<svg height="602.873438pt" stroke-linejoin="round" viewBox="0 0 1764.724219 602.873438" width="1764.724219pt" xmlns="http://www.w3.org/2000/svg" xmlns:xlink="http://www.w3.org/1999/xlink"><defs stroke-linejoin="round"><clipPath id="a" stroke-linejoin="round"><path d="m83.524219 7.2h1674v543.6h-1674z"/></clipPath><path id="b" d="m0 3.535534c.937635 0 1.836992-.372526 2.5-1.035534s1.035534-1.562365 1.035534-2.5-.372526-1.836992-1.035534-2.5-1.562365-1.035534-2.5-1.035534-1.836992.372526-2.5 1.035534-1.035534 1.562365-1.035534 2.5.372526 1.836992 1.035534 2.5 1.562365 1.035534 2.5 1.035534z" stroke-linejoin="round"/><path id="c" d="m0 0v3.5" stroke="#000" stroke-linejoin="round" stroke-width=".8"/><path id="d" d="m10.59375 35.5h62.59375v-8.296875h-62.59375z" stroke-linejoin="round"/><path id="e" d="m12.40625 8.296875h16.109375v55.625l-17.53125-3.515625v8.984375l17.4375 3.515625h9.859375v-64.609375h16.109375v-8.296875h-41.984375z" stroke-linejoin="round"/><path id="f" d="m10.6875 12.40625h10.3125v-12.40625h-10.3125z" stroke-linejoin="round"/><path id="g" d="m31.78125 66.40625q-7.609375 0-11.453125-7.5-3.828125-7.484375-3.828125-22.53125 0-14.984375 3.828125-22.484375 3.84375-7.5 11.453125-7.5 7.671875 0 11.5 7.5 3.84375 7.5 3.84375 22.484375 0 15.046875-3.84375 22.53125-3.828125 7.5-11.5 7.5zm0 7.8125q12.265625 0 18.734375-9.703125 6.46875-9.6875 6.46875-28.140625 0-18.40625-6.46875-28.109375-6.46875-9.6875-18.734375-9.6875-12.25 0-18.71875 9.6875-6.46875 9.703125-6.46875 28.109375 0 18.453125 6.46875 28.140625 6.46875 9.703125 18.71875 9.703125z" stroke-linejoin="round"/><path id="h" d="m8.203125 72.90625h46.875v-4.203125l-26.46875-68.703125h-10.296875l24.90625 64.59375h-35.015625z" stroke-linejoin="round"/><path id="i" d="m10.796875 72.90625h38.71875v-8.3125h-29.6875v-17.859375q2.140625.734375 4.28125 1.09375 2.15625.359375 4.3125.359375 12.203125 0 19.328125-6.6875 7.140625-6.6875 7.140625-18.109375 0-11.765625-7.328125-18.296875-7.328125-6.515625-20.65625-6.515625-4.59375 0-9.359375.78125-4.75.78125-9.828125 2.34375v9.921875q4.390625-2.390625 9.078125-3.5625 4.6875-1.171875 9.90625-1.171875 8.453125 0 13.375 4.4375 4.9375 4.4375 4.9375 12.0625 0 7.609375-4.9375 12.046875-4.921875 4.453125-13.375 4.453125-3.953125 0-7.890625-.875-3.921875-.875-8.015625-2.734375z" stroke-linejoin="round"/><path id="j" d="m19.1875 8.296875h34.421875v-8.296875h-46.28125v8.296875q5.609375 5.8125 15.296875 15.59375 9.703125 9.796875 12.1875 12.640625 4.734375 5.3125 6.609375 9 1.890625 3.6875 1.890625 7.25 0 5.8125-4.078125 9.46875-4.078125 3.671875-10.625 3.671875-4.640625 0-9.796875-1.609375-5.140625-1.609375-11-4.890625v9.96875q5.953125 2.390625 11.125 3.609375 5.1875 1.21875 9.484375 1.21875 11.328125 0 18.0625-5.671875 6.734375-5.65625 6.734375-15.125 0-4.5-1.6875-8.53125-1.671875-4.015625-6.125-9.484375-1.21875-1.421875-7.765625-8.1875-6.53125-6.765625-18.453125-18.921875z" stroke-linejoin="round"/><path id="k" d="m37.109375 75.984375v-7.484375h-8.59375q-4.828125 0-6.71875-1.953125-1.875-1.953125-1.875-7.03125v-4.828125h14.796875v-6.984375h-14.796875v-47.703125h-9.03125v47.703125h-8.59375v6.984375h8.59375v3.8125q0 9.125 4.25 13.296875 4.25 4.1875 13.46875 4.1875z" stroke-linejoin="round"/><path id="l" d="m0 0h-3.5" stroke="#000" stroke-linejoin="round" stroke-width=".8"/></defs><g stroke-linejoin="round"><path d="m0 602.873438h1764.724219v-602.873438h-1764.724219z" fill="none"/><g><g stroke-linejoin="round"><path d="m83.524219 550.8h1674v-543.6h-1674z" fill="#fff"/><g><g clip-path="url(#a)"><use fill="#ffc0cb" stroke="#f00" stroke-linejoin="round" x="165.615123" xlink:href="#b" y="310.029933"/></g><g clip-path="url(#a)"><use fill="#90ee90" stroke="#008000" stroke-linejoin="round" x="551.171187" xlink:href="#b" y="366.31413"/></g><g clip-path="url(#a)"><use fill="#90ee90" stroke="#008000" stroke-linejoin="round" x="629.511194" xlink:href="#b" y="393.457947"/></g><g clip-path="url(#a)"><use fill="#90ee90" stroke="#008000" stroke-linejoin="round" x="629.511194" xlink:href="#b" y="164.542053"/></g><g clip-path="url(#a)"><use fill="#90ee90" stroke="#008000" stroke-linejoin="round" x="478.321979" xlink:href="#b" y="315.942303"/></g><g clip-path="url(#a)"><use fill="#ffc0cb" stroke="#f00" stroke-linejoin="round" x="872.746342" xlink:href="#b" y="526.090909"/></g><g clip-path="url(#a)"><use fill="#ffc0cb" stroke="#f00" stroke-linejoin="round" x="1627.999599" xlink:href="#b" y="187.859926"/></g><g clip-path="url(#a)"><use fill="#90ee90" stroke="#008000" stroke-linejoin="round" x="1289.87725" xlink:href="#b" y="191.68587"/></g><g clip-path="url(#a)"><use fill="#ffc0cb" stroke="#f00" stroke-linejoin="round" x="304.935833" xlink:href="#b" y="133.47645"/></g><g clip-path="url(#a)"><use fill="#ffc0cb" stroke="#f00" stroke-linejoin="round" x="512.808739" xlink:href="#b" y="69.961756"/></g><g clip-path="url(#a)"><use fill="#90ee90" stroke="#008000" stroke-linejoin="round" x="496.03899" xlink:href="#b" y="224.315955"/></g><g clip-path="url(#a)"><use fill="#ffc0cb" stroke="#f00" stroke-linejoin="round" x="165.615123" xlink:href="#b" y="247.970067"/></g><g clip-path="url(#a)"><use fill="#90ee90" stroke="#008000" stroke-linejoin="round" x="520.450387" xlink:href="#b" y="207.436614"/></g><g clip-path="url(#a)"><use fill="#90ee90" stroke="#008000" stroke-linejoin="round" x="891.857492" xlink:href="#b" y="427.254545"/></g><g clip-path="url(#a)"><use fill="#90ee90" stroke="#008000" stroke-linejoin="round" x="1006.072306" xlink:href="#b" y="424.916483"/></g><g clip-path="url(#a)"><use fill="#ffc0cb" stroke="#f00" stroke-linejoin="round" x="253.734499" xlink:href="#b" y="398.27231"/></g><g clip-path="url(#a)"><use fill="#ffc0cb" stroke="#f00" stroke-linejoin="round" x="1244.503552" xlink:href="#b" y="54.983415"/></g><g clip-path="url(#a)"><use fill="#90ee90" stroke="#008000" stroke-linejoin="round" x="675.894931" xlink:href="#b" y="153.577054"/></g><g clip-path="url(#a)"><use fill="#ffc0cb" stroke="#f00" stroke-linejoin="round" x="1328.239698" xlink:href="#b" y="488.038244"/></g><g clip-path="url(#a)"><use fill="#90ee90" stroke="#008000" stroke-linejoin="round" x="1253.331532" xlink:href="#b" y="380.687878"/></g><g clip-path="url(#a)"><use fill="#90ee90" stroke="#008000" stroke-linejoin="round" x="779.443915" xlink:href="#b" y="420.27723"/></g><g clip-path="url(#a)"><use fill="#ffc0cb" stroke="#f00" stroke-linejoin="round" x="213.048838" xlink:href="#b" y="370.140074"/></g><g clip-path="url(#a)"><use fill="#ffc0cb" stroke="#f00" stroke-linejoin="round" x="1328.239698" xlink:href="#b" y="69.961756"/></g><g clip-path="url(#a)"><use fill="#ffc0cb" stroke="#f00" stroke-linejoin="round" x="1063.104364" xlink:href="#b" y="35.805862"/></g><g clip-path="url(#a)"><use fill="#90ee90" stroke="#008000" stroke-linejoin="round" x="891.857492" xlink:href="#b" y="130.745455"/></g><g clip-path="url(#a)"><use fill="#ffc0cb" stroke="#f00" stroke-linejoin="round" x="1587.313938" xlink:href="#b" y="159.72769"/></g><g clip-path="url(#a)"><use fill="#90ee90" stroke="#008000" stroke-linejoin="round" x="1345.009447" xlink:href="#b" y="224.315955"/></g><g clip-path="url(#a)"><use fill="#ffc0cb" stroke="#f00" stroke-linejoin="round" x="1536.112604" xlink:href="#b" y="133.47645"/></g><g clip-path="url(#a)"><use fill="#90ee90" stroke="#008000" stroke-linejoin="round" x="587.716905" xlink:href="#b" y="380.687878"/></g><g clip-path="url(#a)"><use fill="#90ee90" stroke="#008000" stroke-linejoin="round" x="1362.726458" xlink:href="#b" y="315.942303"/></g><g clip-path="url(#a)"><use fill="#90ee90" stroke="#008000" stroke-linejoin="round" x="1345.009447" xlink:href="#b" y="333.684045"/></g><g clip-path="url(#a)"><use fill="#ffc0cb" stroke="#f00" stroke-linejoin="round" x="183.520486" xlink:href="#b" y="217.429494"/></g><g clip-path="url(#a)"><use fill="#ffc0cb" stroke="#f00" stroke-linejoin="round" x="1405.545927" xlink:href="#b" y="88.236755"/></g><g clip-path="url(#a)"><use fill="#90ee90" stroke="#008000" stroke-linejoin="round" x="1061.604523" xlink:href="#b" y="137.72277"/></g><g clip-path="url(#a)"><use fill="#ffc0cb" stroke="#f00" stroke-linejoin="round" x="183.520486" xlink:href="#b" y="340.570506"/></g><g clip-path="url(#a)"><use fill="#90ee90" stroke="#008000" stroke-linejoin="round" x="496.03899" xlink:href="#b" y="333.684045"/></g><g clip-path="url(#a)"><use fill="#ffc0cb" stroke="#f00" stroke-linejoin="round" x="435.50251" xlink:href="#b" y="88.236755"/></g><g clip-path="url(#a)"><use fill="#90ee90" stroke="#008000" stroke-linejoin="round" x="1006.072306" xlink:href="#b" y="133.083517"/></g><g clip-path="url(#a)"><use fill="#ffc0cb" stroke="#f00" stroke-linejoin="round" x="1627.999599" xlink:href="#b" y="370.140074"/></g><g clip-path="url(#a)"><use fill="#ffc0cb" stroke="#f00" stroke-linejoin="round" x="596.544885" xlink:href="#b" y="54.983415"/></g><g clip-path="url(#a)"><use fill="#90ee90" stroke="#008000" stroke-linejoin="round" x="467.578761" xlink:href="#b" y="260.38204"/></g><g clip-path="url(#a)"><use fill="#90ee90" stroke="#008000" stroke-linejoin="round" x="726.136619" xlink:href="#b" y="413.409951"/></g><g clip-path="url(#a)"><use fill="#90ee90" stroke="#008000" stroke-linejoin="round" x="1362.726458" xlink:href="#b" y="242.057697"/></g><g clip-path="url(#a)"><use fill="#90ee90" stroke="#008000" stroke-linejoin="round" x="1377.069673" xlink:href="#b" y="279"/></g><g clip-path="url(#a)"><use fill="#ffc0cb" stroke="#f00" stroke-linejoin="round" x="1587.313938" xlink:href="#b" y="398.27231"/></g><g clip-path="url(#a)"><use fill="#ffc0cb" stroke="#f00" stroke-linejoin="round" x="596.544885" xlink:href="#b" y="503.016585"/></g><g clip-path="url(#a)"><use fill="#90ee90" stroke="#008000" stroke-linejoin="round" x="1373.469676" xlink:href="#b" y="297.61796"/></g><g clip-path="url(#a)"><use fill="#90ee90" stroke="#008000" stroke-linejoin="round" x="949.190945" xlink:href="#b" y="427.254545"/></g><g clip-path="url(#a)"><use fill="#90ee90" stroke="#008000" stroke-linejoin="round" x="520.450387" xlink:href="#b" y="350.563386"/></g><g clip-path="url(#a)"><use fill="#ffc0cb" stroke="#f00" stroke-linejoin="round" x="1681.43331" xlink:href="#b" y="279"/></g><g clip-path="url(#a)"><use fill="#ffc0cb" stroke="#f00" stroke-linejoin="round" x="777.944073" xlink:href="#b" y="35.805862"/></g><g clip-path="url(#a)"><use fill="#ffc0cb" stroke="#f00" stroke-linejoin="round" x="304.935833" xlink:href="#b" y="424.52355"/></g><g clip-path="url(#a)"><use fill="#90ee90" stroke="#008000" stroke-linejoin="round" x="1289.87725" xlink:href="#b" y="366.31413"/></g><g clip-path="url(#a)"><use fill="#ffc0cb" stroke="#f00" stroke-linejoin="round" x="968.302096" xlink:href="#b" y="526.090909"/></g><g clip-path="url(#a)"><use fill="#ffc0cb" stroke="#f00" stroke-linejoin="round" x="213.048838" xlink:href="#b" y="187.859926"/></g><g clip-path="url(#a)"><use fill="#ffc0cb" stroke="#f00" stroke-linejoin="round" x="872.746342" xlink:href="#b" y="31.909091"/></g><g clip-path="url(#a)"><use fill="#90ee90" stroke="#008000" stroke-linejoin="round" x="1253.331532" xlink:href="#b" y="177.312122"/></g><g clip-path="url(#a)"><use fill="#ffc0cb" stroke="#f00" stroke-linejoin="round" x="435.50251" xlink:href="#b" y="469.763245"/></g><g clip-path="url(#a)"><use fill="#ffc0cb" stroke="#f00" stroke-linejoin="round" x="685.390378" xlink:href="#b" y="514.46205"/></g><g clip-path="url(#a)"><use fill="#ffc0cb" stroke="#f00" stroke-linejoin="round" x="1475.203074" xlink:href="#b" y="448.479796"/></g><g clip-path="url(#a)"><use fill="#ffc0cb" stroke="#f00" stroke-linejoin="round" x="1155.658059" xlink:href="#b" y="43.53795"/></g><g clip-path="url(#a)"><use fill="#ffc0cb" stroke="#f00" stroke-linejoin="round" x="1657.527951" xlink:href="#b" y="217.429494"/></g><g clip-path="url(#a)"><use fill="#90ee90" stroke="#008000" stroke-linejoin="round" x="1211.537244" xlink:href="#b" y="393.457947"/></g><g clip-path="url(#a)"><use fill="#90ee90" stroke="#008000" stroke-linejoin="round" x="1320.59805" xlink:href="#b" y="350.563386"/></g><g clip-path="url(#a)"><use fill="#90ee90" stroke="#008000" stroke-linejoin="round" x="1165.153506" xlink:href="#b" y="153.577054"/></g><g clip-path="url(#a)"><use fill="#90ee90" stroke="#008000" stroke-linejoin="round" x="551.171187" xlink:href="#b" y="191.68587"/></g><g clip-path="url(#a)"><use fill="#ffc0cb" stroke="#f00" stroke-linejoin="round" x="1405.545927" xlink:href="#b" y="469.763245"/></g><g clip-path="url(#a)"><use fill="#ffc0cb" stroke="#f00" stroke-linejoin="round" x="1675.433314" xlink:href="#b" y="247.970067"/></g><g clip-path="url(#a)"><use fill="#90ee90" stroke="#008000" stroke-linejoin="round" x="779.443915" xlink:href="#b" y="137.72277"/></g><g clip-path="url(#a)"><use fill="#ffc0cb" stroke="#f00" stroke-linejoin="round" x="777.944073" xlink:href="#b" y="522.194138"/></g><g clip-path="url(#a)"><use fill="#ffc0cb" stroke="#f00" stroke-linejoin="round" x="685.390378" xlink:href="#b" y="43.53795"/></g><g clip-path="url(#a)"><use fill="#90ee90" stroke="#008000" stroke-linejoin="round" x="1165.153506" xlink:href="#b" y="404.422946"/></g><g clip-path="url(#a)"><use fill="#90ee90" stroke="#008000" stroke-linejoin="round" x="1114.911819" xlink:href="#b" y="144.590049"/></g><g clip-path="url(#a)"><use fill="#ffc0cb" stroke="#f00" stroke-linejoin="round" x="512.808739" xlink:href="#b" y="488.038244"/></g><g clip-path="url(#a)"><use fill="#ffc0cb" stroke="#f00" stroke-linejoin="round" x="365.845363" xlink:href="#b" y="109.520204"/></g><g clip-path="url(#a)"><use fill="#90ee90" stroke="#008000" stroke-linejoin="round" x="1211.537244" xlink:href="#b" y="164.542053"/></g><g clip-path="url(#a)"><use fill="#90ee90" stroke="#008000" stroke-linejoin="round" x="949.190945" xlink:href="#b" y="130.745455"/></g><g clip-path="url(#a)"><use fill="#ffc0cb" stroke="#f00" stroke-linejoin="round" x="1244.503552" xlink:href="#b" y="503.016585"/></g><g clip-path="url(#a)"><use fill="#ffc0cb" stroke="#f00" stroke-linejoin="round" x="1657.527951" xlink:href="#b" y="340.570506"/></g><g clip-path="url(#a)"><use fill="#ffc0cb" stroke="#f00" stroke-linejoin="round" x="253.734499" xlink:href="#b" y="159.72769"/></g><g clip-path="url(#a)"><use fill="#90ee90" stroke="#008000" stroke-linejoin="round" x="834.976131" xlink:href="#b" y="424.916483"/></g><g clip-path="url(#a)"><use fill="#90ee90" stroke="#008000" stroke-linejoin="round" x="834.976131" xlink:href="#b" y="133.083517"/></g><g clip-path="url(#a)"><use fill="#90ee90" stroke="#008000" stroke-linejoin="round" x="587.716905" xlink:href="#b" y="177.312122"/></g><g clip-path="url(#a)"><use fill="#90ee90" stroke="#008000" stroke-linejoin="round" x="463.978764" xlink:href="#b" y="279"/></g><g clip-path="url(#a)"><use fill="#90ee90" stroke="#008000" stroke-linejoin="round" x="726.136619" xlink:href="#b" y="144.590049"/></g><g clip-path="url(#a)"><use fill="#ffc0cb" stroke="#f00" stroke-linejoin="round" x="1675.433314" xlink:href="#b" y="310.029933"/></g><g clip-path="url(#a)"><use fill="#ffc0cb" stroke="#f00" stroke-linejoin="round" x="968.302096" xlink:href="#b" y="31.909091"/></g><g clip-path="url(#a)"><use fill="#ffc0cb" stroke="#f00" stroke-linejoin="round" x="1536.112604" xlink:href="#b" y="424.52355"/></g><g clip-path="url(#a)"><use fill="#ffc0cb" stroke="#f00" stroke-linejoin="round" x="1475.203074" xlink:href="#b" y="109.520204"/></g><g clip-path="url(#a)"><use fill="#90ee90" stroke="#008000" stroke-linejoin="round" x="1373.469676" xlink:href="#b" y="260.38204"/></g><g clip-path="url(#a)"><use fill="#ffc0cb" stroke="#f00" stroke-linejoin="round" x="159.615128" xlink:href="#b" y="279"/></g><g clip-path="url(#a)"><use fill="#90ee90" stroke="#008000" stroke-linejoin="round" x="1061.604523" xlink:href="#b" y="420.27723"/></g><g clip-path="url(#a)"><use fill="#ffc0cb" stroke="#f00" stroke-linejoin="round" x="1063.104364" xlink:href="#b" y="522.194138"/></g><g clip-path="url(#a)"><use fill="#90ee90" stroke="#008000" stroke-linejoin="round" x="1114.911819" xlink:href="#b" y="413.409951"/></g><g clip-path="url(#a)"><use fill="#90ee90" stroke="#008000" stroke-linejoin="round" x="467.578761" xlink:href="#b" y="297.61796"/></g><g clip-path="url(#a)"><use fill="#ffc0cb" stroke="#f00" stroke-linejoin="round" x="365.845363" xlink:href="#b" y="448.479796"/></g><g clip-path="url(#a)"><use fill="#90ee90" stroke="#008000" stroke-linejoin="round" x="1320.59805" xlink:href="#b" y="207.436614"/></g><g clip-path="url(#a)"><use fill="#90ee90" stroke="#008000" stroke-linejoin="round" x="478.321979" xlink:href="#b" y="242.057697"/></g><g clip-path="url(#a)"><use fill="#ffc0cb" stroke="#f00" stroke-linejoin="round" x="1155.658059" xlink:href="#b" y="514.46205"/></g><g clip-path="url(#a)"><use fill="#90ee90" stroke="#008000" stroke-linejoin="round" x="675.894931" xlink:href="#b" y="404.422946"/></g></g><g><g><use stroke="#000" stroke-width=".8" x="159.615128" xlink:href="#c" y="550.8"/><g transform="matrix(.15 0 0 -.15 136.631143 569.197656)"><use xlink:href="#d"/><use x="83.789062" xlink:href="#e"/><use x="147.412109" xlink:href="#f"/><use x="179.199219" xlink:href="#g"/><use x="242.822266" xlink:href="#g"/></g></g><g><use stroke="#000" stroke-width=".8" x="349.842401" xlink:href="#c" y="550.8"/><g transform="matrix(.15 0 0 -.15 326.858416 569.197656)"><use xlink:href="#d"/><use x="83.789062" xlink:href="#g"/><use x="147.412109" xlink:href="#f"/><use x="179.199219" xlink:href="#h"/><use x="242.822266" xlink:href="#i"/></g></g><g><use stroke="#000" stroke-width=".8" x="540.069673" xlink:href="#c" y="550.8"/><g transform="matrix(.15 0 0 -.15 517.085689 569.197656)"><use xlink:href="#d"/><use x="83.789062" xlink:href="#g"/><use x="147.412109" xlink:href="#f"/><use x="179.199219" xlink:href="#i"/><use x="242.822266" xlink:href="#g"/></g></g><g><use stroke="#000" stroke-width=".8" x="730.296946" xlink:href="#c" y="550.8"/><g transform="matrix(.15 0 0 -.15 707.312962 569.197656)"><use xlink:href="#d"/><use x="83.789062" xlink:href="#g"/><use x="147.412109" xlink:href="#f"/><use x="179.199219" xlink:href="#j"/><use x="242.822266" xlink:href="#i"/></g></g><g><use stroke="#000" stroke-width=".8" x="920.524219" xlink:href="#c" y="550.8"/><g transform="matrix(.15 0 0 -.15 903.825 569.197656)"><use xlink:href="#g"/><use x="63.623047" xlink:href="#f"/><use x="95.410156" xlink:href="#g"/><use x="159.033203" xlink:href="#g"/></g></g><g><use stroke="#000" stroke-width=".8" x="1110.751491" xlink:href="#c" y="550.8"/><g transform="matrix(.15 0 0 -.15 1094.052273 569.197656)"><use xlink:href="#g"/><use x="63.623047" xlink:href="#f"/><use x="95.410156" xlink:href="#j"/><use x="159.033203" xlink:href="#i"/></g></g><g><use stroke="#000" stroke-width=".8" x="1300.978764" xlink:href="#c" y="550.8"/><g transform="matrix(.15 0 0 -.15 1284.279545 569.197656)"><use xlink:href="#g"/><use x="63.623047" xlink:href="#f"/><use x="95.410156" xlink:href="#i"/><use x="159.033203" xlink:href="#g"/></g></g><g><use stroke="#000" stroke-width=".8" x="1491.206037" xlink:href="#c" y="550.8"/><g transform="matrix(.15 0 0 -.15 1474.506818 569.197656)"><use xlink:href="#g"/><use x="63.623047" xlink:href="#f"/><use x="95.410156" xlink:href="#h"/><use x="159.033203" xlink:href="#i"/></g></g><g><use stroke="#000" stroke-width=".8" x="1681.43331" xlink:href="#c" y="550.8"/><g transform="matrix(.15 0 0 -.15 1664.734091 569.197656)"><use xlink:href="#e"/><use x="63.623047" xlink:href="#f"/><use x="95.410156" xlink:href="#g"/><use x="159.033203" xlink:href="#g"/></g></g><g transform="matrix(.2 0 0 -.2 910.641406 591.514063)"><use xlink:href="#k"/><use x="35.205078" xlink:href="#e"/></g></g><g><g><use stroke="#000" stroke-width=".8" x="83.524219" xlink:href="#l" y="526.579451"/><g transform="matrix(.15 0 0 -.15 30.55625 532.278279)"><use xlink:href="#d"/><use x="83.789062" xlink:href="#e"/><use x="147.412109" xlink:href="#f"/><use x="179.199219" xlink:href="#g"/><use x="242.822266" xlink:href="#g"/></g></g><g><use stroke="#000" stroke-width=".8" x="83.524219" xlink:href="#l" y="464.684588"/><g transform="matrix(.15 0 0 -.15 30.55625 470.383416)"><use xlink:href="#d"/><use x="83.789062" xlink:href="#g"/><use x="147.412109" xlink:href="#f"/><use x="179.199219" xlink:href="#h"/><use x="242.822266" xlink:href="#i"/></g></g><g><use stroke="#000" stroke-width=".8" x="83.524219" xlink:href="#l" y="402.789725"/><g transform="matrix(.15 0 0 -.15 30.55625 408.488553)"><use xlink:href="#d"/><use x="83.789062" xlink:href="#g"/><use x="147.412109" xlink:href="#f"/><use x="179.199219" xlink:href="#i"/><use x="242.822266" xlink:href="#g"/></g></g><g><use stroke="#000" stroke-width=".8" x="83.524219" xlink:href="#l" y="340.894863"/><g transform="matrix(.15 0 0 -.15 30.55625 346.593691)"><use xlink:href="#d"/><use x="83.789062" xlink:href="#g"/><use x="147.412109" xlink:href="#f"/><use x="179.199219" xlink:href="#j"/><use x="242.822266" xlink:href="#i"/></g></g><g><use stroke="#000" stroke-width=".8" x="83.524219" xlink:href="#l" y="279"/><g transform="matrix(.15 0 0 -.15 43.125781 284.698828)"><use xlink:href="#g"/><use x="63.623047" xlink:href="#f"/><use x="95.410156" xlink:href="#g"/><use x="159.033203" xlink:href="#g"/></g></g><g><use stroke="#000" stroke-width=".8" x="83.524219" xlink:href="#l" y="217.105137"/><g transform="matrix(.15 0 0 -.15 43.125781 222.803965)"><use xlink:href="#g"/><use x="63.623047" xlink:href="#f"/><use x="95.410156" xlink:href="#j"/><use x="159.033203" xlink:href="#i"/></g></g><g><use stroke="#000" stroke-width=".8" x="83.524219" xlink:href="#l" y="155.210275"/><g transform="matrix(.15 0 0 -.15 43.125781 160.909103)"><use xlink:href="#g"/><use x="63.623047" xlink:href="#f"/><use x="95.410156" xlink:href="#i"/><use x="159.033203" xlink:href="#g"/></g></g><g><use stroke="#000" stroke-width=".8" x="83.524219" xlink:href="#l" y="93.315412"/><g transform="matrix(.15 0 0 -.15 43.125781 99.01424)"><use xlink:href="#g"/><use x="63.623047" xlink:href="#f"/><use x="95.410156" xlink:href="#h"/><use x="159.033203" xlink:href="#i"/></g></g><g><use stroke="#000" stroke-width=".8" x="83.524219" xlink:href="#l" y="31.420549"/><g transform="matrix(.15 0 0 -.15 43.125781 37.119378)"><use xlink:href="#e"/><use x="63.623047" xlink:href="#f"/><use x="95.410156" xlink:href="#g"/><use x="159.033203" xlink:href="#g"/></g></g><g transform="matrix(0 -.2 -.2 0 22.396875 288.882812)"><use xlink:href="#k"/><use x="35.205078" xlink:href="#j"/></g></g></g><path d="m83.524219 550.8v-543.6" fill="none" stroke="#000" stroke-linecap="square" stroke-linejoin="miter" stroke-width=".8"/><path d="m1757.524219 550.8v-543.6" fill="none" stroke="#000" stroke-linecap="square" stroke-linejoin="miter" stroke-width=".8"/><path d="m83.524219 550.8h1674" fill="none" stroke="#000" stroke-linecap="square" stroke-linejoin="miter" stroke-width=".8"/><path d="m83.524219 7.2h1674" fill="none" stroke="#000" stroke-linecap="square" stroke-linejoin="miter" stroke-width=".8"/></g></g></svg>