<svg height="602.873437pt" stroke-linejoin="round" viewBox="0 0 1759.957031 602.873437" width="1759.957031pt" xmlns="http://www.w3.org/2000/svg" xmlns:xlink="http://www.w3.org/1999/xlink"><defs stroke-linejoin="round"><clipPath id="a" stroke-linejoin="round"><path d="m78.757031 7.2h760.909091v247.090909h-760.909091z"/></clipPath><clipPath id="b" stroke-linejoin="round"><path d="m991.84794 7.2h760.909091v247.090909h-760.909091z"/></clipPath><clipPath id="c" stroke-linejoin="round"><path d="m78.757031 303.709091h760.909091v247.090909h-760.909091z"/></clipPath><clipPath id="d" stroke-linejoin="round"><path d="m991.84794 303.709091h760.909091v247.090909h-760.909091z"/></clipPath><path id="e" d="m0 2.738613c.726289 0 1.422928-.288558 1.936492-.802121.513563-.513564.802121-1.210203.802121-1.936492s-.288558-1.422928-.802121-1.936492c-.513564-.513563-1.210203-.802121-1.936492-.802121s-1.422928.288558-1.936492.802121c-.513563.513564-.802121 1.210203-.802121 1.936492s.288558 1.422928.802121 1.936492c.513564.513563 1.210203.802121 1.936492.802121z" stroke="#008000" stroke-linejoin="round"/><path id="f" d="m0 0v3.5" stroke="#000" stroke-linejoin="round" stroke-width=".8"/><path id="g" d="m10.59375 35.5h62.59375v-8.296875h-62.59375z" stroke-linejoin="round"/><path id="h" d="m19.1875 8.296875h34.421875v-8.296875h-46.28125v8.296875q5.609375 5.8125 15.296875 15.59375 9.703125 9.796875 12.1875 12.640625 4.734375 5.3125 6.609375 9 1.890625 3.6875 1.890625 7.25 0 5.8125-4.078125 9.46875-4.078125 3.671875-10.625 3.671875-4.640625 0-9.796875-1.609375-5.140625-1.609375-11-4.890625v9.96875q5.953125 2.390625 11.125 3.609375 5.1875 1.21875 9.484375 1.21875 11.328125 0 18.0625-5.671875 6.734375-5.65625 6.734375-15.125 0-4.5-1.6875-8.53125-1.671875-4.015625-6.125-9.484375-1.21875-1.421875-7.765625-8.1875-6.53125-6.765625-18.453125-18.921875z" stroke-linejoin="round"/><path id="i" d="m10.6875 12.40625h10.3125v-12.40625h-10.3125z" stroke-linejoin="round"/><path id="j" d="m31.78125 66.40625q-7.609375 0-11.453125-7.5-3.828125-7.484375-3.828125-22.53125 0-14.984375 3.828125-22.484375 3.84375-7.5 11.453125-7.5 7.671875 0 11.5 7.5 3.84375 7.5 3.84375 22.484375 0 15.046875-3.84375 22.53125-3.828125 7.5-11.5 7.5zm0 7.8125q12.265625 0 18.734375-9.703125 6.46875-9.6875 6.46875-28.140625 0-18.40625-6.46875-28.109375-6.46875-9.6875-18.734375-9.6875-12.25 0-18.71875 9.6875-6.46875 9.703125-6.46875 28.109375 0 18.453125 6.46875 28.140625 6.46875 9.703125 18.71875 9.703125z" stroke-linejoin="round"/><path id="k" d="m12.40625 8.296875h16.109375v55.625l-17.53125-3.515625v8.984375l17.4375 3.515625h9.859375v-64.609375h16.109375v-8.296875h-41.984375z" stroke-linejoin="round"/><path id="l" d="m10.796875 72.90625h38.71875v-8.3125h-29.6875v-17.859375q2.140625.734375 4.28125 1.09375 2.15625.359375 4.3125.359375 12.203125 0 19.328125-6.6875 7.140625-6.6875 7.140625-18.109375 0-11.765625-7.328125-18.296875-7.328125-6.515625-20.65625-6.515625-4.59375 0-9.359375.78125-4.75.78125-9.828125 2.34375v9.921875q4.390625-2.390625 9.078125-3.5625 4.6875-1.171875 9.90625-1.171875 8.453125 0 13.375 4.4375 4.9375 4.4375 4.9375 12.0625 0 7.609375-4.9375 12.046875-4.921875 4.453125-13.375 4.453125-3.953125 0-7.890625-.875-3.921875-.875-8.015625-2.734375z" stroke-linejoin="round"/><path id="m" d="m32.171875-5.078125q-3.796875-9.765625-7.421875-12.734375-3.609375-2.984375-9.65625-2.984375h-7.1875v7.515625h5.28125q3.703125 0 5.75 1.765625 2.0625 1.75 4.546875 8.296875l1.609375 4.09375-22.109375 53.8125h9.515625l17.09375-42.765625 17.09375 42.765625h9.515625z" stroke-linejoin="round"/><path id="n" d="m0 0h-3.5" stroke="#000" stroke-linejoin="round" stroke-width=".8"/><path id="o" d="m37.109375 75.984375v-7.484375h-8.59375q-4.828125 0-6.71875-1.953125-1.875-1.953125-1.875-7.03125v-4.828125h14.796875v-6.984375h-14.796875v-47.703125h-9.03125v47.703125h-8.59375v6.984375h8.59375v3.8125q0 9.125 4.25 13.296875 4.25 4.1875 13.46875 4.1875z" stroke-linejoin="round"/><path id="p" d="m40.578125 39.3125q7.078125-1.515625 11.046875-6.3125 3.984375-4.78125 3.984375-11.8125 0-10.78125-7.421875-16.703125-7.421875-5.90625-21.09375-5.90625-4.578125 0-9.4375.90625-4.859375.90625-10.03125 2.71875v9.515625q4.09375-2.390625 8.96875-3.609375 4.890625-1.21875 10.21875-1.21875 9.265625 0 14.125 3.65625 4.859375 3.65625 4.859375 10.640625 0 6.453125-4.515625 10.078125-4.515625 3.640625-12.5625 3.640625h-8.5v8.109375h8.890625q7.265625 0 11.125 2.90625 3.859375 2.90625 3.859375 8.375 0 5.609375-3.984375 8.609375-3.96875 3.015625-11.390625 3.015625-4.0625 0-8.703125-.890625-4.640625-.875-10.203125-2.71875v8.78125q5.625 1.5625 10.53125 2.34375 4.90625.78125 9.25.78125 11.234375 0 17.765625-5.109375 6.546875-5.09375 6.546875-13.78125 0-6.0625-3.46875-10.234375-3.46875-4.171875-9.859375-5.78125z" stroke-linejoin="round"/></defs><g stroke-linejoin="round"><path d="m0 602.873437h1759.957031v-602.873437h-1759.957031z" fill="none"/><g><g stroke-linejoin="round"><path d="m78.757031 254.290909h760.909091v-247.090909h-760.909091z" fill="#fff"/><g clip-path="url(#a)" fill="#90ee90" stroke="#008000"><use x="583.994837" xlink:href="#e" y="113.343056"/><use x="607.168436" xlink:href="#e" y="135.732381"/><use x="326.577378" xlink:href="#e" y="98.843532"/><use x="245.127845" xlink:href="#e" y="175.192105"/><use x="142.627853" xlink:href="#e" y="107.221773"/><use x="428.72932" xlink:href="#e" y="156.920995"/><use x="349.72658" xlink:href="#e" y="161.492937"/><use x="317.391945" xlink:href="#e" y="200.929034"/><use x="381.34772" xlink:href="#e" y="162.257885"/><use x="689.2683" xlink:href="#e" y="210.118018"/><use x="415.437066" xlink:href="#e" y="127.960551"/><use x="550.046527" xlink:href="#e" y="102.415589"/><use x="372.808265" xlink:href="#e" y="118.812834"/><use x="537.819404" xlink:href="#e" y="215.527713"/><use x="500.174608" xlink:href="#e" y="164.030326"/><use x="447.158833" xlink:href="#e" y="53.316131"/><use x="327.003398" xlink:href="#e" y="54.13861"/><use x="411.975658" xlink:href="#e" y="155.803948"/><use x="339.656518" xlink:href="#e" y="101.655209"/><use x="408.408129" xlink:href="#e" y="83.25141"/><use x="358.417947" xlink:href="#e" y="145.196966"/><use x="288.573911" xlink:href="#e" y="141.583135"/><use x="573.4212" xlink:href="#e" y="66.850347"/><use x="299.909382" xlink:href="#e" y="22.130865"/><use x="505.709678" xlink:href="#e" y="92.634619"/><use x="187.911539" xlink:href="#e" y="122.372682"/><use x="252.380719" xlink:href="#e" y="107.76867"/><use x="411.109038" xlink:href="#e" y="163.865386"/><use x="591.273339" xlink:href="#e" y="120.646588"/><use x="373.68969" xlink:href="#e" y="54.397518"/><use x="465.779996" xlink:href="#e" y="125.595066"/><use x="519.280393" xlink:href="#e" y="27.250049"/><use x="508.697881" xlink:href="#e" y="130.388481"/><use x="269.031003" xlink:href="#e" y="106.117737"/><use x="198.755938" xlink:href="#e" y="47.474152"/><use x="488.91241" xlink:href="#e" y="119.902307"/><use x="339.209275" xlink:href="#e" y="113.926405"/><use x="526.047542" xlink:href="#e" y="97.641807"/><use x="409.350925" xlink:href="#e" y="142.394949"/><use x="650.964394" xlink:href="#e" y="243.059504"/><use x="677.822473" xlink:href="#e" y="153.438395"/><use x="423.276901" xlink:href="#e" y="68.009442"/><use x="617.279652" xlink:href="#e" y="116.663746"/><use x="364.181971" xlink:href="#e" y="92.423477"/><use x="426.69273" xlink:href="#e" y="63.837353"/><use x="456.622597" xlink:href="#e" y="162.047161"/><use x="422.274528" xlink:href="#e" y="68.002812"/><use x="228.114952" xlink:href="#e" y="114.710575"/><use x="546.024588" xlink:href="#e" y="165.877111"/><use x="439.669919" xlink:href="#e" y="137.049449"/><use x="462.485848" xlink:href="#e" y="82.555547"/><use x="478.001233" xlink:href="#e" y="138.074782"/><use x="629.861274" xlink:href="#e" y="193.264291"/><use x="554.677427" xlink:href="#e" y="137.705192"/><use x="414.936048" xlink:href="#e" y="118.142496"/><use x="239.162555" xlink:href="#e" y="127.123678"/><use x="592.289409" xlink:href="#e" y="97.816971"/><use x="369.332238" xlink:href="#e" y="127.471909"/><use x="642.207815" xlink:href="#e" y="46.995196"/><use x="338.145272" xlink:href="#e" y="32.630342"/><use x="373.910775" xlink:href="#e" y="191.885163"/><use x="360.182387" xlink:href="#e" y="149.965924"/><use x="114.887753" xlink:href="#e" y="69.917503"/><use x="127.649453" xlink:href="#e" y="67.30263"/><use x="492.36802" xlink:href="#e" y="225.898821"/><use x="725.451961" xlink:href="#e" y="120.132889"/><use x="805.079345" xlink:href="#e" y="184.70089"/><use x="387.259979" xlink:href="#e" y="144.217152"/><use x="405.011389" xlink:href="#e" y="128.878559"/><use x="508.687015" xlink:href="#e" y="164.103952"/><use x="375.549389" xlink:href="#e" y="98.143493"/><use x="290.535863" xlink:href="#e" y="123.419941"/><use x="398.046771" xlink:href="#e" y="150.719808"/><use x="668.334328" xlink:href="#e" y="121.62671"/><use x="404.122134" xlink:href="#e" y="132.231016"/><use x="635.685459" xlink:href="#e" y="68.47852"/><use x="435.212135" xlink:href="#e" y="158.894124"/><use x="757.049269" xlink:href="#e" y="142.796899"/><use x="360.767568" xlink:href="#e" y="62.891363"/><use x="161.368658" xlink:href="#e" y="70.112209"/><use x="428.572096" xlink:href="#e" y="81.029463"/><use x="591.661795" xlink:href="#e" y="116.783976"/><use x="538.565244" xlink:href="#e" y="18.431405"/><use x="397.824211" xlink:href="#e" y="190.015012"/><use x="299.765237" xlink:href="#e" y="81.645011"/><use x="560.273678" xlink:href="#e" y="204.123123"/><use x="625.617122" xlink:href="#e" y="114.837262"/><use x="126.8636" xlink:href="#e" y="148.247087"/><use x="545.74408" xlink:href="#e" y="95.080588"/><use x="282.002533" xlink:href="#e" y="147.360981"/><use x="216.900228" xlink:href="#e" y="77.639322"/><use x="613.034037" xlink:href="#e" y="126.423343"/><use x="113.343808" xlink:href="#e" y="180.982795"/><use x="298.37747" xlink:href="#e" y="95.380372"/><use x="206.97566" xlink:href="#e" y="176.012868"/><use x="428.334161" xlink:href="#e" y="97.047673"/><use x="127.506861" xlink:href="#e" y="105.29973"/><use x="639.627978" xlink:href="#e" y="144.652619"/><use x="362.133849" xlink:href="#e" y="186.600828"/><use x="498.266007" xlink:href="#e" y="175.851873"/></g><g><g><use stroke="#000" stroke-width=".8" x="86.868568" xlink:href="#f" y="254.290909"/><g transform="matrix(.15 0 0 -.15 68.656458 272.688565)"><use xlink:href="#g"/><use x="83.789062" xlink:href="#h"/><use x="147.412109" xlink:href="#i"/><use x="179.199219" xlink:href="#j"/></g></g><g><use stroke="#000" stroke-width=".8" x="173.383727" xlink:href="#f" y="254.290909"/><g transform="matrix(.15 0 0 -.15 155.171618 272.688565)"><use xlink:href="#g"/><use x="83.789062" xlink:href="#k"/><use x="147.412109" xlink:href="#i"/><use x="179.199219" xlink:href="#l"/></g></g><g><use stroke="#000" stroke-width=".8" x="259.898886" xlink:href="#f" y="254.290909"/><g transform="matrix(.15 0 0 -.15 241.686777 272.688565)"><use xlink:href="#g"/><use x="83.789062" xlink:href="#k"/><use x="147.412109" xlink:href="#i"/><use x="179.199219" xlink:href="#j"/></g></g><g><use stroke="#000" stroke-width=".8" x="346.414046" xlink:href="#f" y="254.290909"/><g transform="matrix(.15 0 0 -.15 328.201937 272.688565)"><use xlink:href="#g"/><use x="83.789062" xlink:href="#j"/><use x="147.412109" xlink:href="#i"/><use x="179.199219" xlink:href="#l"/></g></g><g><use stroke="#000" stroke-width=".8" x="432.929205" xlink:href="#f" y="254.290909"/><g transform="matrix(.15 0 0 -.15 421.001862 272.688565)"><use xlink:href="#j"/><use x="63.623047" xlink:href="#i"/><use x="95.410156" xlink:href="#j"/></g></g><g><use stroke="#000" stroke-width=".8" x="519.444365" xlink:href="#f" y="254.290909"/><g transform="matrix(.15 0 0 -.15 507.517021 272.688565)"><use xlink:href="#j"/><use x="63.623047" xlink:href="#i"/><use x="95.410156" xlink:href="#l"/></g></g><g><use stroke="#000" stroke-width=".8" x="605.959524" xlink:href="#f" y="254.290909"/><g transform="matrix(.15 0 0 -.15 594.032181 272.688565)"><use xlink:href="#k"/><use x="63.623047" xlink:href="#i"/><use x="95.410156" xlink:href="#j"/></g></g><g><use stroke="#000" stroke-width=".8" x="692.474684" xlink:href="#f" y="254.290909"/><g transform="matrix(.15 0 0 -.15 680.54734 272.688565)"><use xlink:href="#k"/><use x="63.623047" xlink:href="#i"/><use x="95.410156" xlink:href="#l"/></g></g><g><use stroke="#000" stroke-width=".8" x="778.989843" xlink:href="#f" y="254.290909"/><g transform="matrix(.15 0 0 -.15 767.062499 272.688565)"><use xlink:href="#h"/><use x="63.623047" xlink:href="#i"/><use x="95.410156" xlink:href="#j"/></g></g><use transform="matrix(.2 0 0 -.2 453.292827 295.004972)" xlink:href="#m"/></g><g><g><use stroke="#000" stroke-width=".8" x="78.757031" xlink:href="#n" y="211.047079"/><g transform="matrix(.15 0 0 -.15 30.55625 216.745907)"><use xlink:href="#g"/><use x="83.789062" xlink:href="#h"/><use x="147.412109" xlink:href="#j"/><use x="211.035156" xlink:href="#j"/></g></g><g><use stroke="#000" stroke-width=".8" x="78.757031" xlink:href="#n" y="166.637066"/><g transform="matrix(.15 0 0 -.15 30.55625 172.335894)"><use xlink:href="#g"/><use x="83.789062" xlink:href="#k"/><use x="147.412109" xlink:href="#j"/><use x="211.035156" xlink:href="#j"/></g></g><g><use stroke="#000" stroke-width=".8" x="78.757031" xlink:href="#n" y="122.227053"/><use transform="matrix(.15 0 0 -.15 62.213281 127.925881)" xlink:href="#j"/></g><g><use stroke="#000" stroke-width=".8" x="78.757031" xlink:href="#n" y="77.81704"/><g transform="matrix(.15 0 0 -.15 43.125781 83.515868)"><use xlink:href="#k"/><use x="63.623047" xlink:href="#j"/><use x="127.246094" xlink:href="#j"/></g></g><g><use stroke="#000" stroke-width=".8" x="78.757031" xlink:href="#n" y="33.407027"/><g transform="matrix(.15 0 0 -.15 43.125781 39.105855)"><use xlink:href="#h"/><use x="63.623047" xlink:href="#j"/><use x="127.246094" xlink:href="#j"/></g></g><g transform="matrix(0 -.2 -.2 0 22.396875 140.628267)"><use xlink:href="#o"/><use x="35.205078" xlink:href="#k"/></g></g><path clip-path="url(#a)" d="m583.994837 131.766131 23.173599 1.325284-280.591058-16.046833-81.449533-4.65805-102.499992-5.861912 286.101467 16.36197-79.00274-4.518119-32.334635-1.849198 63.955775 3.657592 307.92058 17.609792-273.831234-15.660243 134.609461 7.698234-177.238262-10.136149 165.011139 9.436887-37.644796-2.152883-53.015775-3.03194-120.155435-6.871617 84.97226 4.859512-72.31914-4.135888 68.751611 3.931863-49.990182-2.858908-69.844036-3.994338 284.847289 16.290244-273.511818-15.641976 205.800296 11.769595-317.798139-18.174683 64.46918 3.686953 158.728319 9.077577 180.164301 10.303487-217.583649-12.443477 92.090306 5.266589 53.500397 3.059655-10.582512-.605208-239.666878-13.706403-70.275065-4.018989 290.156472 16.593873-149.703135-8.561431 186.838267 10.685167-116.696617-6.673809 241.613469 13.817728 26.858079 1.535998-254.545572-14.557308 194.002751 11.0949-253.097681-14.474503 62.510759 3.574952 29.929867 1.711671-34.348069-1.964345-194.159576-11.103869 317.909636 18.18106-106.354669-6.082359 22.815929 1.304829 15.515385.887316 151.860041 8.684784-75.183847-4.299719-139.741379-7.991725-175.773493-10.05238 353.126854 20.195111-222.957171-12.750785 272.875577 15.605589-304.062543-17.389153 35.765503 2.045407-13.728388-.785118-245.294634-14.028252 12.7617.729834 364.718567 20.858035 233.083941 13.329929 79.627384 4.553842-417.819366-23.894837 17.75141 1.015193 103.675626 5.929146-133.137626-7.61406-85.013526-4.861872 107.510908 6.148483 270.287557 15.457582-264.212194-15.110135 231.563325 13.242966-200.473324-11.464948 321.837134 18.405671-396.281701-22.663111-199.39891-11.403503 267.203438 15.281203 163.089699 9.327002-53.096551-3.03656-140.741033-8.048895-98.058974-5.607933 260.508441 14.89832 65.343444 3.736952-498.753522-28.523412 418.88048 23.955521-263.741547-15.083219-65.102305-3.723162 396.133809 22.654653-499.690229-28.576982 185.033662 10.581963-91.40181-5.227214 221.358501 12.659359-300.8273-17.204132 512.121117 29.287898-277.494129-15.869722 136.132158 7.785316" fill="none" stroke="#ffc0cb" stroke-dasharray="3.7 1.6"/></g><path d="m78.757031 254.290909v-247.090909" fill="none" stroke="#000" stroke-linecap="square" stroke-linejoin="miter" stroke-width=".8"/><path d="m839.666122 254.290909v-247.090909" fill="none" stroke="#000" stroke-linecap="square" stroke-linejoin="miter" stroke-width=".8"/><path d="m78.757031 254.290909h760.909091" fill="none" stroke="#000" stroke-linecap="square" stroke-linejoin="miter" stroke-width=".8"/><path d="m78.757031 7.2h760.909091" fill="none" stroke="#000" stroke-linecap="square" stroke-linejoin="miter" stroke-width=".8"/></g><g><g stroke-linejoin="round"><path d="m991.84794 254.290909h760.909091v-247.090909h-760.909091z" fill="#fff"/><g clip-path="url(#b)" fill="#90ee90" stroke="#008000"><use x="1128.234511" xlink:href="#e" y="113.343056"/><use x="1425.660702" xlink:href="#e" y="135.732381"/><use x="1530.065318" xlink:href="#e" y="98.843532"/><use x="1551.157347" xlink:href="#e" y="175.192105"/><use x="1261.312121" xlink:href="#e" y="107.221773"/><use x="1420.399366" xlink:href="#e" y="156.920995"/><use x="1428.435031" xlink:href="#e" y="161.492937"/><use x="1026.434717" xlink:href="#e" y="200.929034"/><use x="1325.174902" xlink:href="#e" y="162.257885"/><use x="1374.771742" xlink:href="#e" y="210.118018"/><use x="1258.860265" xlink:href="#e" y="127.960551"/><use x="1718.170254" xlink:href="#e" y="102.415589"/><use x="1409.963747" xlink:href="#e" y="118.812834"/><use x="1325.157451" xlink:href="#e" y="215.527713"/><use x="1421.875149" xlink:href="#e" y="164.030326"/><use x="1232.952984" xlink:href="#e" y="53.316131"/><use x="1237.703658" xlink:href="#e" y="54.13861"/><use x="1351.196385" xlink:href="#e" y="155.803948"/><use x="1270.922119" xlink:href="#e" y="101.655209"/><use x="1263.649667" xlink:href="#e" y="83.25141"/><use x="1444.034833" xlink:href="#e" y="145.196966"/><use x="1239.492488" xlink:href="#e" y="141.583135"/><use x="1392.854896" xlink:href="#e" y="66.850347"/><use x="1351.075127" xlink:href="#e" y="22.130865"/><use x="1378.312482" xlink:href="#e" y="92.634619"/><use x="1289.685414" xlink:href="#e" y="122.372682"/><use x="1204.267423" xlink:href="#e" y="107.76867"/><use x="1372.888147" xlink:href="#e" y="163.865386"/><use x="1224.754601" xlink:href="#e" y="120.646588"/><use x="1251.582061" xlink:href="#e" y="54.397518"/><use x="1299.504591" xlink:href="#e" y="125.595066"/><use x="1194.077623" xlink:href="#e" y="27.250049"/><use x="1340.12629" xlink:href="#e" y="130.388481"/><use x="1173.459251" xlink:href="#e" y="106.117737"/><use x="1226.602366" xlink:href="#e" y="47.474152"/><use x="1192.850416" xlink:href="#e" y="119.902307"/><use x="1425.102943" xlink:href="#e" y="113.926405"/><use x="1427.346503" xlink:href="#e" y="97.641807"/><use x="1483.069064" xlink:href="#e" y="142.394949"/><use x="1501.1739" xlink:href="#e" y="243.059504"/><use x="1383.955551" xlink:href="#e" y="153.438395"/><use x="1206.456379" xlink:href="#e" y="68.009442"/><use x="1253.776389" xlink:href="#e" y="116.663746"/><use x="1281.807408" xlink:href="#e" y="92.423477"/><use x="1278.791031" xlink:href="#e" y="63.837353"/><use x="1117.731902" xlink:href="#e" y="162.047161"/><use x="1251.091435" xlink:href="#e" y="68.002812"/><use x="1250.073878" xlink:href="#e" y="114.710575"/><use x="1236.605356" xlink:href="#e" y="165.877111"/><use x="1375.656922" xlink:href="#e" y="137.049449"/><use x="1241.081346" xlink:href="#e" y="82.555547"/><use x="1256.157729" xlink:href="#e" y="138.074782"/><use x="1364.957864" xlink:href="#e" y="193.264291"/><use x="1295.087678" xlink:href="#e" y="137.705192"/><use x="1226.20105" xlink:href="#e" y="118.142496"/><use x="1381.463633" xlink:href="#e" y="127.123678"/><use x="1564.589592" xlink:href="#e" y="97.816971"/><use x="1188.655122" xlink:href="#e" y="127.471909"/><use x="1374.066481" xlink:href="#e" y="46.995196"/><use x="1244.734191" xlink:href="#e" y="32.630342"/><use x="1392.296659" xlink:href="#e" y="191.885163"/><use x="1305.16073" xlink:href="#e" y="149.965924"/><use x="1212.981328" xlink:href="#e" y="69.917503"/><use x="1397.275323" xlink:href="#e" y="67.30263"/><use x="1079.641256" xlink:href="#e" y="225.898821"/><use x="1428.388468" xlink:href="#e" y="120.132889"/><use x="1379.967821" xlink:href="#e" y="184.70089"/><use x="1182.09493" xlink:href="#e" y="144.217152"/><use x="1473.905755" xlink:href="#e" y="128.878559"/><use x="1490.481044" xlink:href="#e" y="164.103952"/><use x="1128.060117" xlink:href="#e" y="98.143493"/><use x="1132.25675" xlink:href="#e" y="123.419941"/><use x="1357.46442" xlink:href="#e" y="150.719808"/><use x="1135.717491" xlink:href="#e" y="121.62671"/><use x="1376.67253" xlink:href="#e" y="132.231016"/><use x="1250.958341" xlink:href="#e" y="68.47852"/><use x="1268.511552" xlink:href="#e" y="158.894124"/><use x="1266.522526" xlink:href="#e" y="142.796899"/><use x="1071.146223" xlink:href="#e" y="62.891363"/><use x="1211.932063" xlink:href="#e" y="70.112209"/><use x="1355.839353" xlink:href="#e" y="81.029463"/><use x="1616.2141" xlink:href="#e" y="116.783976"/><use x="1225.130338" xlink:href="#e" y="18.431405"/><use x="1354.103484" xlink:href="#e" y="190.015012"/><use x="1351.438595" xlink:href="#e" y="81.645011"/><use x="1286.910406" xlink:href="#e" y="204.123123"/><use x="1402.154912" xlink:href="#e" y="114.837262"/><use x="1151.145335" xlink:href="#e" y="148.247087"/><use x="1397.563809" xlink:href="#e" y="95.080588"/><use x="1173.3448" xlink:href="#e" y="147.360981"/><use x="1284.674752" xlink:href="#e" y="77.639322"/><use x="1316.404049" xlink:href="#e" y="126.423343"/><use x="1276.287911" xlink:href="#e" y="180.982795"/><use x="1444.060369" xlink:href="#e" y="95.380372"/><use x="1478.64181" xlink:href="#e" y="176.012868"/><use x="1404.219114" xlink:href="#e" y="97.047673"/><use x="1364.868143" xlink:href="#e" y="105.29973"/><use x="1278.901545" xlink:href="#e" y="144.652619"/><use x="1354.872345" xlink:href="#e" y="186.600828"/><use x="1367.350003" xlink:href="#e" y="175.851873"/></g><g><g><use stroke="#000" stroke-width=".8" x="1083.05232" xlink:href="#f" y="254.290909"/><g transform="matrix(.15 0 0 -.15 1071.99568 272.688565)"><use xlink:href="#g"/><use x="83.789062" xlink:href="#h"/></g></g><g><use stroke="#000" stroke-width=".8" x="1205.48463" xlink:href="#f" y="254.290909"/><g transform="matrix(.15 0 0 -.15 1194.427989 272.688565)"><use xlink:href="#g"/><use x="83.789062" xlink:href="#k"/></g></g><g><use stroke="#000" stroke-width=".8" x="1327.916939" xlink:href="#f" y="254.290909"/><use transform="matrix(.15 0 0 -.15 1323.145064 272.688565)" xlink:href="#j"/></g><g><use stroke="#000" stroke-width=".8" x="1450.349249" xlink:href="#f" y="254.290909"/><use transform="matrix(.15 0 0 -.15 1445.577374 272.688565)" xlink:href="#k"/></g><g><use stroke="#000" stroke-width=".8" x="1572.781558" xlink:href="#f" y="254.290909"/><use transform="matrix(.15 0 0 -.15 1568.009683 272.688565)" xlink:href="#h"/></g><g><use stroke="#000" stroke-width=".8" x="1695.213867" xlink:href="#f" y="254.290909"/><use transform="matrix(.15 0 0 -.15 1690.441992 272.688565)" xlink:href="#p"/></g><use transform="matrix(.2 0 0 -.2 1366.383736 295.004972)" xlink:href="#m"/></g><g><g><use stroke="#000" stroke-width=".8" x="991.84794" xlink:href="#n" y="211.047079"/><g transform="matrix(.15 0 0 -.15 943.647159 216.745907)"><use xlink:href="#g"/><use x="83.789062" xlink:href="#h"/><use x="147.412109" xlink:href="#j"/><use x="211.035156" xlink:href="#j"/></g></g><g><use stroke="#000" stroke-width=".8" x="991.84794" xlink:href="#n" y="166.637066"/><g transform="matrix(.15 0 0 -.15 943.647159 172.335894)"><use xlink:href="#g"/><use x="83.789062" xlink:href="#k"/><use x="147.412109" xlink:href="#j"/><use x="211.035156" xlink:href="#j"/></g></g><g><use stroke="#000" stroke-width=".8" x="991.84794" xlink:href="#n" y="122.227053"/><use transform="matrix(.15 0 0 -.15 975.30419 127.925881)" xlink:href="#j"/></g><g><use stroke="#000" stroke-width=".8" x="991.84794" xlink:href="#n" y="77.81704"/><g transform="matrix(.15 0 0 -.15 956.21669 83.515868)"><use xlink:href="#k"/><use x="63.623047" xlink:href="#j"/><use x="127.246094" xlink:href="#j"/></g></g><g><use stroke="#000" stroke-width=".8" x="991.84794" xlink:href="#n" y="33.407027"/><g transform="matrix(.15 0 0 -.15 956.21669 39.105855)"><use xlink:href="#h"/><use x="63.623047" xlink:href="#j"/><use x="127.246094" xlink:href="#j"/></g></g><g transform="matrix(0 -.2 -.2 0 935.487784 140.628267)"><use xlink:href="#o"/><use x="35.205078" xlink:href="#h"/></g></g><path clip-path="url(#b)" d="m1128.234511 112.217904 297.426191 16.687701 104.404616 5.857834 21.092029 1.183411-289.845226-16.262356 159.087245 8.925913 8.035665.450858-402.000314-22.555045 298.740185 16.761425 49.59684 2.782732-115.911477-6.503449 459.309989 25.77052-308.206507-17.292552-84.806296-4.75823 96.717698 5.426543-188.922165-10.599862 4.750674.266546 113.492727 6.36774-80.274266-4.50395-7.272452-.408036 180.385166 10.120876-204.542345-11.476264 153.362408 8.60471-41.779769-2.344139 27.237355 1.528207-88.627068-4.972602-85.417991-4.79255 168.620724 9.460809-148.133546-8.311334 26.82746 1.505209 47.92253 2.688791-105.426968-5.915194 146.048667 8.194357-166.667039-9.351193 53.143115 2.981703-33.75195-1.893722 232.252527 13.031 2.24356.12588 55.722561 3.126427 18.104836 1.015809-117.218349-6.576774-177.499172-9.958952 47.32001 2.654986 28.031019 1.572737-3.016377-.16924-161.059129-9.03655 133.359533 7.482408-1.017557-.057092-13.468522-.755679 139.051566 7.801771-134.575576-7.550637 15.076383.845892 108.800135 6.104452-69.870186-3.920209-68.886628-3.865024 155.262583 8.711323 183.125959 10.274654-375.93447-21.092567 185.411359 10.402881-129.33229-7.256451 147.562468 8.279292-87.135929-4.888939-92.179402-5.171912 184.293995 10.340189-317.634067-17.821505 348.747212 19.567171-48.420647-2.716739-197.872891-11.10206 291.810825 16.372639 16.575289.92999-362.420927-20.334362 4.196633.23546 225.20767 12.635734-221.746929-12.441562 240.955039 13.519272-125.714189-7.05345 17.553211.984859-1.989026-.111598-195.376303-10.961985 140.78584 7.899076 143.90729 8.074211 260.374747 14.608854-391.083762-21.942549 128.973146 7.2363-2.664889-.149519-64.528189-3.620485 115.244506 6.466027-251.009577-14.083402 246.418474 13.825809-224.219009-12.580263 111.329952 6.246393 31.729297 1.780237-40.116138-2.250798 167.772458 9.413215 34.581441 1.940262-74.422696-4.175637-39.350971-2.207866-85.966598-4.82333 75.9708 4.262496 12.477658.700084" fill="none" stroke="#ffc0cb" stroke-dasharray="3.7 1.6"/></g><path d="m991.84794 254.290909v-247.090909" fill="none" stroke="#000" stroke-linecap="square" stroke-linejoin="miter" stroke-width=".8"/><path d="m1752.757031 254.290909v-247.090909" fill="none" stroke="#000" stroke-linecap="square" stroke-linejoin="miter" stroke-width=".8"/><path d="m991.84794 254.290909h760.909091" fill="none" stroke="#000" stroke-linecap="square" stroke-linejoin="miter" stroke-width=".8"/><path d="m991.84794 7.2h760.909091" fill="none" stroke="#000" stroke-linecap="square" stroke-linejoin="miter" stroke-width=".8"/></g><g><g stroke-linejoin="round"><path d="m78.757031 550.8h760.909091v-247.090909h-760.909091z" fill="#fff"/><g clip-path="url(#c)" fill="#90ee90" stroke="#008000"><use x="537.88294" xlink:href="#e" y="409.852147"/><use x="454.447523" xlink:href="#e" y="432.241471"/><use x="572.163254" xlink:href="#e" y="395.352623"/><use x="528.429485" xlink:href="#e" y="471.701196"/><use x="587.725753" xlink:href="#e" y="403.730864"/><use x="453.581684" xlink:href="#e" y="453.430086"/><use x="321.996656" xlink:href="#e" y="458.002028"/><use x="431.158517" xlink:href="#e" y="497.438125"/><use x="497.820962" xlink:href="#e" y="458.766976"/><use x="286.162838" xlink:href="#e" y="506.627109"/><use x="457.87062" xlink:href="#e" y="424.469642"/><use x="643.913216" xlink:href="#e" y="398.92468"/><use x="721.700459" xlink:href="#e" y="415.321925"/><use x="482.094733" xlink:href="#e" y="512.036804"/><use x="387.675956" xlink:href="#e" y="460.539417"/><use x="805.079345" xlink:href="#e" y="349.825222"/><use x="541.410181" xlink:href="#e" y="350.647701"/><use x="379.053802" xlink:href="#e" y="452.313038"/><use x="452.787962" xlink:href="#e" y="398.164299"/><use x="664.600232" xlink:href="#e" y="379.760501"/><use x="299.754305" xlink:href="#e" y="441.706056"/><use x="348.242202" xlink:href="#e" y="438.092226"/><use x="468.246303" xlink:href="#e" y="363.359438"/><use x="653.378815" xlink:href="#e" y="318.639956"/><use x="598.408914" xlink:href="#e" y="389.14371"/><use x="541.100045" xlink:href="#e" y="418.881773"/><use x="469.325342" xlink:href="#e" y="404.277761"/><use x="422.301206" xlink:href="#e" y="460.374476"/><use x="328.645021" xlink:href="#e" y="417.155679"/><use x="698.87851" xlink:href="#e" y="350.906609"/><use x="415.524839" xlink:href="#e" y="422.104157"/><use x="653.861927" xlink:href="#e" y="323.75914"/><use x="339.920344" xlink:href="#e" y="426.897572"/><use x="494.91129" xlink:href="#e" y="402.626828"/><use x="711.014469" xlink:href="#e" y="343.983243"/><use x="369.74459" xlink:href="#e" y="416.411398"/><use x="500.523859" xlink:href="#e" y="410.435496"/><use x="614.540842" xlink:href="#e" y="394.150898"/><use x="320.007935" xlink:href="#e" y="438.90404"/><use x="155.513545" xlink:href="#e" y="539.568595"/><use x="280.093951" xlink:href="#e" y="449.947486"/><use x="582.578006" xlink:href="#e" y="364.518533"/><use x="708.401048" xlink:href="#e" y="413.172837"/><use x="466.577941" xlink:href="#e" y="388.932568"/><use x="756.10365" xlink:href="#e" y="360.346444"/><use x="113.343808" xlink:href="#e" y="458.556252"/><use x="576.396431" xlink:href="#e" y="364.511903"/><use x="372.111251" xlink:href="#e" y="411.219666"/><use x="127.860616" xlink:href="#e" y="462.386202"/><use x="477.684553" xlink:href="#e" y="433.55854"/><use x="695.290035" xlink:href="#e" y="379.064638"/><use x="280.997807" xlink:href="#e" y="434.583873"/><use x="368.744297" xlink:href="#e" y="489.773381"/><use x="340.483953" xlink:href="#e" y="434.214283"/><use x="423.515264" xlink:href="#e" y="414.651587"/><use x="472.413464" xlink:href="#e" y="423.632769"/><use x="609.48241" xlink:href="#e" y="394.326062"/><use x="305.476184" xlink:href="#e" y="423.981"/><use x="441.59828" xlink:href="#e" y="343.504287"/><use x="750.621314" xlink:href="#e" y="329.139433"/><use x="374.596918" xlink:href="#e" y="488.394254"/><use x="323.287982" xlink:href="#e" y="446.475015"/><use x="626.851457" xlink:href="#e" y="366.426594"/><use x="696.782466" xlink:href="#e" y="363.811721"/><use x="411.297288" xlink:href="#e" y="522.407912"/><use x="364.171623" xlink:href="#e" y="416.64198"/><use x="311.306214" xlink:href="#e" y="481.209981"/><use x="411.192381" xlink:href="#e" y="440.726243"/><use x="314.101557" xlink:href="#e" y="425.38765"/><use x="461.937457" xlink:href="#e" y="460.613043"/><use x="479.821177" xlink:href="#e" y="394.652584"/><use x="701.817999" xlink:href="#e" y="419.929032"/><use x="374.09751" xlink:href="#e" y="447.228898"/><use x="446.579866" xlink:href="#e" y="418.135801"/><use x="336.302721" xlink:href="#e" y="428.740107"/><use x="485.921319" xlink:href="#e" y="364.987611"/><use x="533.559578" xlink:href="#e" y="455.403215"/><use x="736.241596" xlink:href="#e" y="439.30599"/><use x="724.758709" xlink:href="#e" y="359.400454"/><use x="523.659649" xlink:href="#e" y="366.6213"/><use x="569.396627" xlink:href="#e" y="377.538554"/><use x="336.074188" xlink:href="#e" y="413.293067"/><use x="791.067464" xlink:href="#e" y="314.940496"/><use x="535.940194" xlink:href="#e" y="486.524103"/><use x="640.938255" xlink:href="#e" y="378.154102"/><use x="424.5139" xlink:href="#e" y="500.632213"/><use x="349.988533" xlink:href="#e" y="411.346352"/><use x="381.204565" xlink:href="#e" y="444.756178"/><use x="424.992" xlink:href="#e" y="391.589678"/><use x="491.554949" xlink:href="#e" y="443.870072"/><use x="511.978195" xlink:href="#e" y="374.148413"/><use x="453.730898" xlink:href="#e" y="422.932434"/><use x="403.541102" xlink:href="#e" y="477.491886"/><use x="464.234859" xlink:href="#e" y="391.889463"/><use x="244.381259" xlink:href="#e" y="472.521959"/><use x="558.479533" xlink:href="#e" y="393.556764"/><use x="333.858453" xlink:href="#e" y="401.808821"/><use x="331.04537" xlink:href="#e" y="441.16171"/><use x="203.622951" xlink:href="#e" y="483.109919"/><use x="267.179263" xlink:href="#e" y="472.360964"/></g><g><g><use stroke="#000" stroke-width=".8" x="165.584102" xlink:href="#f" y="550.8"/><g transform="matrix(.15 0 0 -.15 154.527461 569.197656)"><use xlink:href="#g"/><use x="83.789062" xlink:href="#h"/></g></g><g><use stroke="#000" stroke-width=".8" x="313.006764" xlink:href="#f" y="550.8"/><g transform="matrix(.15 0 0 -.15 301.950123 569.197656)"><use xlink:href="#g"/><use x="83.789062" xlink:href="#k"/></g></g><g><use stroke="#000" stroke-width=".8" x="460.429426" xlink:href="#f" y="550.8"/><use transform="matrix(.15 0 0 -.15 455.657551 569.197656)" xlink:href="#j"/></g><g><use stroke="#000" stroke-width=".8" x="607.852088" xlink:href="#f" y="550.8"/><use transform="matrix(.15 0 0 -.15 603.080213 569.197656)" xlink:href="#k"/></g><g><use stroke="#000" stroke-width=".8" x="755.27475" xlink:href="#f" y="550.8"/><use transform="matrix(.15 0 0 -.15 750.502875 569.197656)" xlink:href="#h"/></g><use transform="matrix(.2 0 0 -.2 453.292827 591.514062)" xlink:href="#m"/></g><g><g><use stroke="#000" stroke-width=".8" x="78.757031" xlink:href="#n" y="507.55617"/><g transform="matrix(.15 0 0 -.15 30.55625 513.254998)"><use xlink:href="#g"/><use x="83.789062" xlink:href="#h"/><use x="147.412109" xlink:href="#j"/><use x="211.035156" xlink:href="#j"/></g></g><g><use stroke="#000" stroke-width=".8" x="78.757031" xlink:href="#n" y="463.146157"/><g transform="matrix(.15 0 0 -.15 30.55625 468.844985)"><use xlink:href="#g"/><use x="83.789062" xlink:href="#k"/><use x="147.412109" xlink:href="#j"/><use x="211.035156" xlink:href="#j"/></g></g><g><use stroke="#000" stroke-width=".8" x="78.757031" xlink:href="#n" y="418.736144"/><use transform="matrix(.15 0 0 -.15 62.213281 424.434972)" xlink:href="#j"/></g><g><use stroke="#000" stroke-width=".8" x="78.757031" xlink:href="#n" y="374.326131"/><g transform="matrix(.15 0 0 -.15 43.125781 380.024959)"><use xlink:href="#k"/><use x="63.623047" xlink:href="#j"/><use x="127.246094" xlink:href="#j"/></g></g><g><use stroke="#000" stroke-width=".8" x="78.757031" xlink:href="#n" y="329.916117"/><g transform="matrix(.15 0 0 -.15 43.125781 335.614946)"><use xlink:href="#h"/><use x="63.623047" xlink:href="#j"/><use x="127.246094" xlink:href="#j"/></g></g><g transform="matrix(0 -.2 -.2 0 22.396875 437.137358)"><use xlink:href="#o"/><use x="35.205078" xlink:href="#p"/></g></g><path clip-path="url(#c)" d="m537.88294 405.663298-83.435417 16.988766 117.715731-23.968779-43.733769 8.904885 59.296268-12.073655-134.144069 27.313847-131.585028 26.792786 109.161861-22.227075 66.662445-13.573525-211.658124 43.09693 171.707782-34.962411 186.042596-37.881205 77.787243-15.838709-239.605726 48.787503-94.418777 19.225151 417.403389-84.989909-263.669164 53.687198-162.356379 33.058318 73.73416-15.013437 211.81227-43.128317-364.845927 74.288381 48.487897-9.8729 120.004101-24.434726 185.132512-37.695898-54.969901 11.192738-57.308869 11.668989-71.774703 14.614461-47.024136 9.574856-93.656185 19.069875 370.233489-75.385374-283.353671 57.695274 238.337088-48.529188-313.941583 63.923455 154.990946-31.5586 216.103179-44.002014-341.269879 69.487927 130.779269-26.628721 114.016983-23.215655-294.532907 59.971543-164.49439 33.493651 124.580406-25.366535 302.484055-61.590521 125.823042-25.619555-241.823107 49.238996 289.525709-58.951998-642.759842 130.876036 463.052623-94.284813-204.28518 41.595683-244.250635 49.733279 349.823937-71.229668 217.605482-44.307906-414.292228 84.356428 87.74649-17.866568-28.260344 5.754251 83.031311-16.906484 48.8982-9.956444 137.068946-27.909398-304.006226 61.90046 136.122096-27.716605 309.023034-62.921961-376.024396 76.564495-51.308936 10.447308 303.563475-61.810309 69.931009-14.239056-285.485178 58.129283-47.125665 9.595528-52.865409 10.764231 99.886167-20.338399-97.090824 19.769223 147.8359-30.10172 17.88372-3.641407 221.996822-45.202052-327.720489 66.729057 72.482356-14.75855-110.277145 22.454165 149.618598-30.464705 47.638259-9.699901 202.682018-41.269253-11.482887 2.338096-201.09906 40.946939 45.736978-9.31277-233.322439 47.508127 454.993276-92.643803-255.12727 51.947933 104.998061-21.37926-216.424355 44.06741-74.525367 15.17454 31.216032-6.356076 43.787435-8.915812 66.562949-13.553266 20.423246-4.158495-58.247297 11.860068-50.189796 10.219434 60.693757-12.358206-219.8536 44.765658 314.098274-63.955359-224.62108 45.736392-2.813083.572788-127.422419 25.945213 63.556312-12.941067" fill="none" stroke="#ffc0cb" stroke-dasharray="3.7 1.6"/></g><path d="m78.757031 550.8v-247.090909" fill="none" stroke="#000" stroke-linecap="square" stroke-linejoin="miter" stroke-width=".8"/><path d="m839.666122 550.8v-247.090909" fill="none" stroke="#000" stroke-linecap="square" stroke-linejoin="miter" stroke-width=".8"/><path d="m78.757031 550.8h760.909091" fill="none" stroke="#000" stroke-linecap="square" stroke-linejoin="miter" stroke-width=".8"/><path d="m78.757031 303.709091h760.909091" fill="none" stroke="#000" stroke-linecap="square" stroke-linejoin="miter" stroke-width=".8"/></g><g><g stroke-linejoin="round"><path d="m991.84794 550.8h760.909091v-247.090909h-760.909091z" fill="#fff"/><g clip-path="url(#d)" fill="#90ee90" stroke="#008000"><use x="1379.72407" xlink:href="#e" y="409.852147"/><use x="1360.925504" xlink:href="#e" y="432.241471"/><use x="1408.155646" xlink:href="#e" y="395.352623"/><use x="1145.878934" xlink:href="#e" y="471.701196"/><use x="1362.615989" xlink:href="#e" y="403.730864"/><use x="1278.860581" xlink:href="#e" y="453.430086"/><use x="1369.297693" xlink:href="#e" y="458.002028"/><use x="1125.38935" xlink:href="#e" y="497.438125"/><use x="1221.600745" xlink:href="#e" y="458.766976"/><use x="1208.826428" xlink:href="#e" y="506.627109"/><use x="1388.470393" xlink:href="#e" y="424.469642"/><use x="1335.148383" xlink:href="#e" y="398.92468"/><use x="1207.068115" xlink:href="#e" y="415.321925"/><use x="1026.434717" xlink:href="#e" y="512.036804"/><use x="1305.328902" xlink:href="#e" y="460.539417"/><use x="1394.32075" xlink:href="#e" y="349.825222"/><use x="1608.114985" xlink:href="#e" y="350.647701"/><use x="1344.563168" xlink:href="#e" y="452.313038"/><use x="1495.420617" xlink:href="#e" y="398.164299"/><use x="1392.991039" xlink:href="#e" y="379.760501"/><use x="1451.267251" xlink:href="#e" y="441.706056"/><use x="1425.478446" xlink:href="#e" y="438.092226"/><use x="1618.67006" xlink:href="#e" y="363.359438"/><use x="1641.006153" xlink:href="#e" y="318.639956"/><use x="1410.811054" xlink:href="#e" y="389.14371"/><use x="1341.800269" xlink:href="#e" y="418.881773"/><use x="1457.926418" xlink:href="#e" y="404.277761"/><use x="1277.475684" xlink:href="#e" y="460.374476"/><use x="1523.400279" xlink:href="#e" y="417.155679"/><use x="1477.502482" xlink:href="#e" y="350.906609"/><use x="1432.563441" xlink:href="#e" y="422.104157"/><use x="1620.609425" xlink:href="#e" y="323.75914"/><use x="1476.061717" xlink:href="#e" y="426.897572"/><use x="1443.318137" xlink:href="#e" y="402.626828"/><use x="1494.561738" xlink:href="#e" y="343.983243"/><use x="1492.481818" xlink:href="#e" y="416.411398"/><use x="1408.192712" xlink:href="#e" y="410.435496"/><use x="1377.972432" xlink:href="#e" y="394.150898"/><use x="1445.544556" xlink:href="#e" y="438.90404"/><use x="1187.662142" xlink:href="#e" y="539.568595"/><use x="1435.251513" xlink:href="#e" y="449.947486"/><use x="1520.043499" xlink:href="#e" y="364.518533"/><use x="1226.409759" xlink:href="#e" y="413.172837"/><use x="1520.136656" xlink:href="#e" y="388.932568"/><use x="1393.525931" xlink:href="#e" y="360.346444"/><use x="1538.859887" xlink:href="#e" y="458.556252"/><use x="1525.15702" xlink:href="#e" y="364.511903"/><use x="1510.816519" xlink:href="#e" y="411.219666"/><use x="1511.949668" xlink:href="#e" y="462.386202"/><use x="1336.65536" xlink:href="#e" y="433.55854"/><use x="1370.450964" xlink:href="#e" y="379.064638"/><use x="1494.52862" xlink:href="#e" y="434.583873"/><use x="1206.701916" xlink:href="#e" y="489.773381"/><use x="1447.013664" xlink:href="#e" y="434.214283"/><use x="1455.102034" xlink:href="#e" y="414.651587"/><use x="1379.770616" xlink:href="#e" y="423.632769"/><use x="1381.451354" xlink:href="#e" y="394.326062"/><use x="1515.804432" xlink:href="#e" y="423.981"/><use x="1718.170254" xlink:href="#e" y="343.504287"/><use x="1519.954446" xlink:href="#e" y="329.139433"/><use x="1207.272874" xlink:href="#e" y="488.394254"/><use x="1413.267464" xlink:href="#e" y="446.475015"/><use x="1476.150939" xlink:href="#e" y="366.426594"/><use x="1428.811202" xlink:href="#e" y="363.811721"/><use x="1044.186282" xlink:href="#e" y="522.407912"/><use x="1496.167714" xlink:href="#e" y="416.64198"/><use x="1287.429759" xlink:href="#e" y="481.209981"/><use x="1363.378299" xlink:href="#e" y="440.726243"/><use x="1503.210142" xlink:href="#e" y="425.38765"/><use x="1243.921887" xlink:href="#e" y="460.613043"/><use x="1486.890709" xlink:href="#e" y="394.652584"/><use x="1205.43338" xlink:href="#e" y="419.929032"/><use x="1368.504545" xlink:href="#e" y="447.228898"/><use x="1422.507421" xlink:href="#e" y="418.135801"/><use x="1471.840898" xlink:href="#e" y="428.740107"/><use x="1597.762224" xlink:href="#e" y="364.987611"/><use x="1205.328022" xlink:href="#e" y="455.403215"/><use x="1101.40182" xlink:href="#e" y="439.30599"/><use x="1423.019431" xlink:href="#e" y="359.400454"/><use x="1560.320148" xlink:href="#e" y="366.6213"/><use x="1480.026858" xlink:href="#e" y="377.538554"/><use x="1532.37592" xlink:href="#e" y="413.293067"/><use x="1542.137054" xlink:href="#e" y="314.940496"/><use x="1081.78877" xlink:href="#e" y="486.524103"/><use x="1418.741253" xlink:href="#e" y="378.154102"/><use x="1118.379721" xlink:href="#e" y="500.632213"/><use x="1528.529234" xlink:href="#e" y="411.346352"/><use x="1372.315407" xlink:href="#e" y="444.756178"/><use x="1543.982568" xlink:href="#e" y="391.589678"/><use x="1284.955571" xlink:href="#e" y="443.870072"/><use x="1540.528163" xlink:href="#e" y="374.148413"/><use x="1397.882912" xlink:href="#e" y="422.932434"/><use x="1226.043234" xlink:href="#e" y="477.491886"/><use x="1510.513382" xlink:href="#e" y="391.889463"/><use x="1376.452433" xlink:href="#e" y="472.521959"/><use x="1426.433624" xlink:href="#e" y="393.556764"/><use x="1579.065023" xlink:href="#e" y="401.808821"/><use x="1427.640389" xlink:href="#e" y="441.16171"/><use x="1368.633738" xlink:href="#e" y="483.109919"/><use x="1358.31797" xlink:href="#e" y="472.360964"/></g><g><g><use stroke="#000" stroke-width=".8" x="1103.660822" xlink:href="#f" y="550.8"/><g transform="matrix(.15 0 0 -.15 1092.604182 569.197656)"><use xlink:href="#g"/><use x="83.789062" xlink:href="#h"/></g></g><g><use stroke="#000" stroke-width=".8" x="1256.212147" xlink:href="#f" y="550.8"/><g transform="matrix(.15 0 0 -.15 1245.155506 569.197656)"><use xlink:href="#g"/><use x="83.789062" xlink:href="#k"/></g></g><g><use stroke="#000" stroke-width=".8" x="1408.763471" xlink:href="#f" y="550.8"/><use transform="matrix(.15 0 0 -.15 1403.991596 569.197656)" xlink:href="#j"/></g><g><use stroke="#000" stroke-width=".8" x="1561.314795" xlink:href="#f" y="550.8"/><use transform="matrix(.15 0 0 -.15 1556.54292 569.197656)" xlink:href="#k"/></g><g><use stroke="#000" stroke-width=".8" x="1713.866119" xlink:href="#f" y="550.8"/><use transform="matrix(.15 0 0 -.15 1709.094244 569.197656)" xlink:href="#h"/></g><use transform="matrix(.2 0 0 -.2 1366.383736 591.514062)" xlink:href="#m"/></g><g><g><use stroke="#000" stroke-width=".8" x="991.84794" xlink:href="#n" y="507.55617"/><g transform="matrix(.15 0 0 -.15 943.647159 513.254998)"><use xlink:href="#g"/><use x="83.789062" xlink:href="#h"/><use x="147.412109" xlink:href="#j"/><use x="211.035156" xlink:href="#j"/></g></g><g><use stroke="#000" stroke-width=".8" x="991.84794" xlink:href="#n" y="463.146157"/><g transform="matrix(.15 0 0 -.15 943.647159 468.844985)"><use xlink:href="#g"/><use x="83.789062" xlink:href="#k"/><use x="147.412109" xlink:href="#j"/><use x="211.035156" xlink:href="#j"/></g></g><g><use stroke="#000" stroke-width=".8" x="991.84794" xlink:href="#n" y="418.736144"/><use transform="matrix(.15 0 0 -.15 975.30419 424.434972)" xlink:href="#j"/></g><g><use stroke="#000" stroke-width=".8" x="991.84794" xlink:href="#n" y="374.326131"/><g transform="matrix(.15 0 0 -.15 956.21669 380.024959)"><use xlink:href="#k"/><use x="63.623047" xlink:href="#j"/><use x="127.246094" xlink:href="#j"/></g></g><g><use stroke="#000" stroke-width=".8" x="991.84794" xlink:href="#n" y="329.916117"/><g transform="matrix(.15 0 0 -.15 956.21669 335.614946)"><use xlink:href="#h"/><use x="63.623047" xlink:href="#j"/><use x="127.246094" xlink:href="#j"/></g></g><g transform="matrix(0 -.2 -.2 0 935.487784 437.137358)"><use xlink:href="#o"/><path d="m37.796875 64.3125-24.90625-38.921875h24.90625zm-2.59375 8.59375h12.40625v-47.515625h10.40625v-8.203125h-10.40625v-17.1875h-9.8125v17.1875h-32.90625v9.515625z" transform="translate(35.205078)"/></g></g><path clip-path="url(#d)" d="m1379.72407 423.77879-18.798566 4.680241 47.230142-11.758793-262.276712 65.298503 216.737055-53.960587-83.755408 20.852415 90.437112-22.515945-243.908343 60.725368 96.211395-23.953557-12.774317 3.180396 179.643965-44.725596-53.32201 13.275474-128.080268 31.887885-180.633398 44.971933 278.894185-69.435722 88.991848-22.156121 213.794235-53.227919-263.551817 65.615964 150.857449-37.558675-102.429578 25.501685 58.276212-14.50891-25.788805 6.420586 193.191614-48.098526 22.336093-5.560972-230.195099 57.311209-69.010785 17.181476 116.126149-28.911693-180.450734 44.926455 245.924595-61.22735-45.897797 11.427082-44.939041 11.188382 188.045984-46.817429-144.547708 35.987751-32.74358 8.152104 51.243601-12.758016-2.07992.517833-84.289106 20.985289-30.22028 7.523882 67.572124-16.823296-257.882414 64.204464 247.589371-61.641825 84.791986-21.11049-293.63374 73.105399 293.726897-73.128592-126.610725 31.522016 145.333956-36.183501-13.702867 3.411575-14.340501 3.570326 1.133149-.282118-175.294308 43.64267 33.795604-8.414024 124.077656-30.891363-287.826704 71.659633 240.311748-59.82993 8.08837-2.013746-75.331418 18.755111 1.680738-.418449 134.353078-33.449615 202.365822-50.38261-198.215808 49.349389-312.681572 77.8477 205.99459-51.286057 62.883475-15.655972-47.339737 11.786079-384.62492 95.759289 451.981432-112.528904-208.737955 51.969067 75.94854-18.908754 139.831843-34.813652-259.288255 64.554473 242.968822-60.491457-281.457329 70.073863 163.071165-40.599499 54.002876-13.444987 49.333477-12.282456 125.921326-31.350378-392.434202 97.703551-103.926202 25.874296 321.617611-80.072487 137.300717-34.183482-80.29329 19.990458 52.349062-13.03324 9.761134-2.43021-460.348284 114.611983 336.952483-83.890379-300.361532 74.780404 410.149513-102.114096-156.213827 38.892241 171.667161-42.739627-259.026997 64.489429 255.572592-63.629393-142.645251 35.514101-171.839678 42.782577 284.470148-70.823958-134.060949 33.376884 49.981191-12.443717 152.631399-38.000331-151.424634 37.699886-59.006651 14.690767-10.315768 2.568295" fill="none" stroke="#ffc0cb" stroke-dasharray="3.7 1.6"/></g><path d="m991.84794 550.8v-247.090909" fill="none" stroke="#000" stroke-linecap="square" stroke-linejoin="miter" stroke-width=".8"/><path d="m1752.757031 550.8v-247.090909" fill="none" stroke="#000" stroke-linecap="square" stroke-linejoin="miter" stroke-width=".8"/><path d="m991.84794 550.8h760.909091" fill="none" stroke="#000" stroke-linecap="square" stroke-linejoin="miter" stroke-width=".8"/><path d="m991.84794 303.709091h760.909091" fill="none" stroke="#000" stroke-linecap="square" stroke-linejoin="miter" stroke-width=".8"/></g></g></svg>