<svg height="602.873438pt" stroke-linejoin="round" viewBox="0 0 1755.180469 602.873438" width="1755.180469pt" xmlns="http://www.w3.org/2000/svg" xmlns:xlink="http://www.w3.org/1999/xlink"><defs stroke-linejoin="round"><clipPath id="a" stroke-linejoin="round"><path d="m73.980469 7.2h1674v543.6h-1674z"/></clipPath><path id="b" d="m0 3.535534c.937635 0 1.836992-.372526 2.5-1.035534s1.035534-1.562365 1.035534-2.5-.372526-1.836992-1.035534-2.5-1.562365-1.035534-2.5-1.035534-1.836992.372526-2.5 1.035534-1.035534 1.562365-1.035534 2.5.372526 1.836992 1.035534 2.5 1.562365 1.035534 2.5 1.035534z" stroke-linejoin="round"/><path id="c" d="m0 0v3.5" stroke="#000" stroke-linejoin="round" stroke-width=".8"/><path id="d" d="m10.59375 35.5h62.59375v-8.296875h-62.59375z" stroke-linejoin="round"/><path id="e" d="m12.40625 8.296875h16.109375v55.625l-17.53125-3.515625v8.984375l17.4375 3.515625h9.859375v-64.609375h16.109375v-8.296875h-41.984375z" stroke-linejoin="round"/><path id="f" d="m10.6875 12.40625h10.3125v-12.40625h-10.3125z" stroke-linejoin="round"/><path id="g" d="m31.78125 66.40625q-7.609375 0-11.453125-7.5-3.828125-7.484375-3.828125-22.53125 0-14.984375 3.828125-22.484375 3.84375-7.5 11.453125-7.5 7.671875 0 11.5 7.5 3.84375 7.5 3.84375 22.484375 0 15.046875-3.84375 22.53125-3.828125 7.5-11.5 7.5zm0 7.8125q12.265625 0 18.734375-9.703125 6.46875-9.6875 6.46875-28.140625 0-18.40625-6.46875-28.109375-6.46875-9.6875-18.734375-9.6875-12.25 0-18.71875 9.6875-6.46875 9.703125-6.46875 28.109375 0 18.453125 6.46875 28.140625 6.46875 9.703125 18.71875 9.703125z" stroke-linejoin="round"/><path id="h" d="m10.796875 72.90625h38.71875v-8.3125h-29.6875v-17.859375q2.140625.734375 4.28125 1.09375 2.15625.359375 4.3125.359375 12.203125 0 19.328125-6.6875 7.140625-6.6875 7.140625-18.109375 0-11.765625-7.328125-18.296875-7.328125-6.515625-20.65625-6.515625-4.59375 0-9.359375.78125-4.75.78125-9.828125 2.34375v9.921875q4.390625-2.390625 9.078125-3.5625 4.6875-1.171875 9.90625-1.171875 8.453125 0 13.375 4.4375 4.9375 4.4375 4.9375 12.0625 0 7.609375-4.9375 12.046875-4.921875 4.453125-13.375 4.453125-3.953125 0-7.890625-.875-3.921875-.875-8.015625-2.734375z" stroke-linejoin="round"/><path id="i" d="m19.1875 8.296875h34.421875v-8.296875h-46.28125v8.296875q5.609375 5.8125 15.296875 15.59375 9.703125 9.796875 12.1875 12.640625 4.734375 5.3125 6.609375 9 1.890625 3.6875 1.890625 7.25 0 5.8125-4.078125 9.46875-4.078125 3.671875-10.625 3.671875-4.640625 0-9.796875-1.609375-5.140625-1.609375-11-4.890625v9.96875q5.953125 2.390625 11.125 3.609375 5.1875 1.21875 9.484375 1.21875 11.328125 0 18.0625-5.671875 6.734375-5.65625 6.734375-15.125 0-4.5-1.6875-8.53125-1.671875-4.015625-6.125-9.484375-1.21875-1.421875-7.765625-8.1875-6.53125-6.765625-18.453125-18.921875z" stroke-linejoin="round"/><path id="j" d="m37.109375 75.984375v-7.484375h-8.59375q-4.828125 0-6.71875-1.953125-1.875-1.953125-1.875-7.03125v-4.828125h14.796875v-6.984375h-14.796875v-47.703125h-9.03125v47.703125h-8.59375v6.984375h8.59375v3.8125q0 9.125 4.25 13.296875 4.25 4.1875 13.46875 4.1875z" stroke-linejoin="round"/><path id="k" d="m0 0h-3.5" stroke="#000" stroke-linejoin="round" stroke-width=".8"/><path id="l" d="m37.796875 64.3125-24.90625-38.921875h24.90625zm-2.59375 8.59375h12.40625v-47.515625h10.40625v-8.203125h-10.40625v-17.1875h-9.8125v17.1875h-32.90625v9.515625z" stroke-linejoin="round"/></defs><g stroke-linejoin="round"><path d="m0 602.873438h1755.180469v-602.873438h-1755.180469z" fill="none"/><g><g stroke-linejoin="round"><path d="m73.980469 550.8h1674v-543.6h-1674z" fill="#fff"/><g><g clip-path="url(#a)"><use fill="#ffc0cb" stroke="#f00" stroke-linejoin="round" x="608.634243" xlink:href="#b" y="33.263122"/></g><g clip-path="url(#a)"><use fill="#90ee90" stroke="#008000" stroke-linejoin="round" x="1339.811105" xlink:href="#b" y="505.974539"/></g><g clip-path="url(#a)"><use fill="#90ee90" stroke="#008000" stroke-linejoin="round" x="1399.249892" xlink:href="#b" y="488.874308"/></g><g clip-path="url(#a)"><use fill="#90ee90" stroke="#008000" stroke-linejoin="round" x="959.281282" xlink:href="#b" y="498.043814"/></g><g clip-path="url(#a)"><use fill="#90ee90" stroke="#008000" stroke-linejoin="round" x="1245.577506" xlink:href="#b" y="522.034379"/></g><g clip-path="url(#a)"><use fill="#ffc0cb" stroke="#f00" stroke-linejoin="round" x="292.945071" xlink:href="#b" y="132.067202"/></g><g clip-path="url(#a)"><use fill="#ffc0cb" stroke="#f00" stroke-linejoin="round" x="1155.262296" xlink:href="#b" y="298.398846"/></g><g clip-path="url(#a)"><use fill="#90ee90" stroke="#008000" stroke-linejoin="round" x="683.186735" xlink:href="#b" y="300.464903"/></g><g clip-path="url(#a)"><use fill="#ffc0cb" stroke="#f00" stroke-linejoin="round" x="801.67719" xlink:href="#b" y="45.366105"/></g><g clip-path="url(#a)"><use fill="#ffc0cb" stroke="#f00" stroke-linejoin="round" x="891.977165" xlink:href="#b" y="69.125692"/></g><g clip-path="url(#a)"><use fill="#90ee90" stroke="#008000" stroke-linejoin="round" x="1083.656158" xlink:href="#b" y="522.034379"/></g><g clip-path="url(#a)"><use fill="#ffc0cb" stroke="#f00" stroke-linejoin="round" x="673.602996" xlink:href="#b" y="31.909091"/></g><g clip-path="url(#a)"><use fill="#90ee90" stroke="#008000" stroke-linejoin="round" x="1051.738031" xlink:href="#b" y="517.994518"/></g><g clip-path="url(#a)"><use fill="#90ee90" stroke="#008000" stroke-linejoin="round" x="1529.015866" xlink:href="#b" y="425.932798"/></g><g clip-path="url(#a)"><use fill="#90ee90" stroke="#008000" stroke-linejoin="round" x="1571.152106" xlink:href="#b" y="393.765216"/></g><g clip-path="url(#a)"><use fill="#ffc0cb" stroke="#f00" stroke-linejoin="round" x="513.01102" xlink:href="#b" y="45.366105"/></g><g clip-path="url(#a)"><use fill="#ffc0cb" stroke="#f00" stroke-linejoin="round" x="1082.483344" xlink:href="#b" y="181.567938"/></g><g clip-path="url(#a)"><use fill="#90ee90" stroke="#008000" stroke-linejoin="round" x="929.983772" xlink:href="#b" y="488.874308"/></g><g clip-path="url(#a)"><use fill="#ffc0cb" stroke="#f00" stroke-linejoin="round" x="200.30717" xlink:href="#b" y="218.377137"/></g><g clip-path="url(#a)"><use fill="#90ee90" stroke="#008000" stroke-linejoin="round" x="1646.04693" xlink:href="#b" y="300.464903"/></g><g clip-path="url(#a)"><use fill="#90ee90" stroke="#008000" stroke-linejoin="round" x="1480.896205" xlink:href="#b" y="454.334411"/></g><g clip-path="url(#a)"><use fill="#ffc0cb" stroke="#f00" stroke-linejoin="round" x="544.465304" xlink:href="#b" y="40.005482"/></g><g clip-path="url(#a)"><use fill="#ffc0cb" stroke="#f00" stroke-linejoin="round" x="1099.34032" xlink:href="#b" y="199.640143"/></g><g clip-path="url(#a)"><use fill="#ffc0cb" stroke="#f00" stroke-linejoin="round" x="1043.604873" xlink:href="#b" y="147.711907"/></g><g clip-path="url(#a)"><use fill="#90ee90" stroke="#008000" stroke-linejoin="round" x="823.576926" xlink:href="#b" y="440.635042"/></g><g clip-path="url(#a)"><use fill="#ffc0cb" stroke="#f00" stroke-linejoin="round" x="1148.026408" xlink:href="#b" y="277.795155"/></g><g clip-path="url(#a)"><use fill="#90ee90" stroke="#008000" stroke-linejoin="round" x="666.698642" xlink:href="#b" y="259.601154"/></g><g clip-path="url(#a)"><use fill="#ffc0cb" stroke="#f00" stroke-linejoin="round" x="1138.774202" xlink:href="#b" y="257.535097"/></g><g clip-path="url(#a)"><use fill="#90ee90" stroke="#008000" stroke-linejoin="round" x="1369.952383" xlink:href="#b" y="498.043814"/></g><g clip-path="url(#a)"><use fill="#90ee90" stroke="#008000" stroke-linejoin="round" x="1670.847313" xlink:href="#b" y="217.702597"/></g><g clip-path="url(#a)"><use fill="#90ee90" stroke="#008000" stroke-linejoin="round" x="1667.724858" xlink:href="#b" y="238.738495"/></g><g clip-path="url(#a)"><use fill="#ffc0cb" stroke="#f00" stroke-linejoin="round" x="706.053967" xlink:href="#b" y="33.263122"/></g><g clip-path="url(#a)"><use fill="#ffc0cb" stroke="#f00" stroke-linejoin="round" x="1114.38104" xlink:href="#b" y="218.377137"/></g><g clip-path="url(#a)"><use fill="#90ee90" stroke="#008000" stroke-linejoin="round" x="758.081559" xlink:href="#b" y="393.765216"/></g><g clip-path="url(#a)"><use fill="#ffc0cb" stroke="#f00" stroke-linejoin="round" x="576.383431" xlink:href="#b" y="35.965621"/></g><g clip-path="url(#a)"><use fill="#90ee90" stroke="#008000" stroke-linejoin="round" x="1277.495633" xlink:href="#b" y="517.994518"/></g><g clip-path="url(#a)"><use fill="#ffc0cb" stroke="#f00" stroke-linejoin="round" x="862.679656" xlink:href="#b" y="59.956186"/></g><g clip-path="url(#a)"><use fill="#90ee90" stroke="#008000" stroke-linejoin="round" x="778.356064" xlink:href="#b" y="410.288093"/></g><g clip-path="url(#a)"><use fill="#ffc0cb" stroke="#f00" stroke-linejoin="round" x="154.23608" xlink:href="#b" y="319.261505"/></g><g clip-path="url(#a)"><use fill="#ffc0cb" stroke="#f00" stroke-linejoin="round" x="920.310517" xlink:href="#b" y="79.496297"/></g><g clip-path="url(#a)"><use fill="#90ee90" stroke="#008000" stroke-linejoin="round" x="1148.357941" xlink:href="#b" y="526.090909"/></g><g clip-path="url(#a)"><use fill="#90ee90" stroke="#008000" stroke-linejoin="round" x="1454.836011" xlink:href="#b" y="466.974612"/></g><g clip-path="url(#a)"><use fill="#90ee90" stroke="#008000" stroke-linejoin="round" x="661.508807" xlink:href="#b" y="238.738495"/></g><g clip-path="url(#a)"><use fill="#90ee90" stroke="#008000" stroke-linejoin="round" x="657.344105" xlink:href="#b" y="196.579902"/></g><g clip-path="url(#a)"><use fill="#ffc0cb" stroke="#f00" stroke-linejoin="round" x="159.425915" xlink:href="#b" y="298.398846"/></g><g clip-path="url(#a)"><use fill="#ffc0cb" stroke="#f00" stroke-linejoin="round" x="367.124927" xlink:href="#b" y="91.025388"/></g><g clip-path="url(#a)"><use fill="#90ee90" stroke="#008000" stroke-linejoin="round" x="1671.88956" xlink:href="#b" y="196.579902"/></g><g clip-path="url(#a)"><use fill="#90ee90" stroke="#008000" stroke-linejoin="round" x="1550.8776" xlink:href="#b" y="410.288093"/></g><g clip-path="url(#a)"><use fill="#90ee90" stroke="#008000" stroke-linejoin="round" x="1308.949917" xlink:href="#b" y="512.633895"/></g><g clip-path="url(#a)"><use fill="#ffc0cb" stroke="#f00" stroke-linejoin="round" x="1164.616832" xlink:href="#b" y="361.420098"/></g><g clip-path="url(#a)"><use fill="#ffc0cb" stroke="#f00" stroke-linejoin="round" x="973.623477" xlink:href="#b" y="103.665589"/></g><g clip-path="url(#a)"><use fill="#ffc0cb" stroke="#f00" stroke-linejoin="round" x="482.149832" xlink:href="#b" y="52.025461"/></g><g clip-path="url(#a)"><use fill="#90ee90" stroke="#008000" stroke-linejoin="round" x="1655.299136" xlink:href="#b" y="280.204845"/></g><g clip-path="url(#a)"><use fill="#ffc0cb" stroke="#f00" stroke-linejoin="round" x="271.083337" xlink:href="#b" y="147.711907"/></g><g clip-path="url(#a)"><use fill="#ffc0cb" stroke="#f00" stroke-linejoin="round" x="738.304779" xlink:href="#b" y="35.965621"/></g><g clip-path="url(#a)"><use fill="#ffc0cb" stroke="#f00" stroke-linejoin="round" x="998.384011" xlink:href="#b" y="117.364958"/></g><g clip-path="url(#a)"><use fill="#90ee90" stroke="#008000" stroke-linejoin="round" x="694.417241" xlink:href="#b" y="320.298075"/></g><g clip-path="url(#a)"><use fill="#ffc0cb" stroke="#f00" stroke-linejoin="round" x="422.711045" xlink:href="#b" y="69.125692"/></g><g clip-path="url(#a)"><use fill="#ffc0cb" stroke="#f00" stroke-linejoin="round" x="341.064733" xlink:href="#b" y="103.665589"/></g><g clip-path="url(#a)"><use fill="#ffc0cb" stroke="#f00" stroke-linejoin="round" x="175.914008" xlink:href="#b" y="257.535097"/></g><g clip-path="url(#a)"><use fill="#ffc0cb" stroke="#f00" stroke-linejoin="round" x="1063.879379" xlink:href="#b" y="164.234784"/></g><g clip-path="url(#a)"><use fill="#ffc0cb" stroke="#f00" stroke-linejoin="round" x="1160.45213" xlink:href="#b" y="319.261505"/></g><g clip-path="url(#a)"><use fill="#90ee90" stroke="#008000" stroke-linejoin="round" x="1634.816424" xlink:href="#b" y="320.298075"/></g><g clip-path="url(#a)"><use fill="#90ee90" stroke="#008000" stroke-linejoin="round" x="1662.535023" xlink:href="#b" y="259.601154"/></g><g clip-path="url(#a)"><use fill="#90ee90" stroke="#008000" stroke-linejoin="round" x="722.620617" xlink:href="#b" y="358.359857"/></g><g clip-path="url(#a)"><use fill="#90ee90" stroke="#008000" stroke-linejoin="round" x="1020.283748" xlink:href="#b" y="512.633895"/></g><g clip-path="url(#a)"><use fill="#ffc0cb" stroke="#f00" stroke-linejoin="round" x="187.144514" xlink:href="#b" y="237.701925"/></g><g clip-path="url(#a)"><use fill="#ffc0cb" stroke="#f00" stroke-linejoin="round" x="1163.574586" xlink:href="#b" y="340.297403"/></g><g clip-path="url(#a)"><use fill="#90ee90" stroke="#008000" stroke-linejoin="round" x="874.397654" xlink:href="#b" y="466.974612"/></g><g clip-path="url(#a)"><use fill="#ffc0cb" stroke="#f00" stroke-linejoin="round" x="316.304199" xlink:href="#b" y="117.364958"/></g><g clip-path="url(#a)"><use fill="#ffc0cb" stroke="#f00" stroke-linejoin="round" x="947.563284" xlink:href="#b" y="91.025388"/></g><g clip-path="url(#a)"><use fill="#90ee90" stroke="#008000" stroke-linejoin="round" x="1621.653767" xlink:href="#b" y="339.622863"/></g><g clip-path="url(#a)"><use fill="#90ee90" stroke="#008000" stroke-linejoin="round" x="739.477594" xlink:href="#b" y="376.432062"/></g><g clip-path="url(#a)"><use fill="#ffc0cb" stroke="#f00" stroke-linejoin="round" x="394.377693" xlink:href="#b" y="79.496297"/></g><g clip-path="url(#a)"><use fill="#ffc0cb" stroke="#f00" stroke-linejoin="round" x="832.538378" xlink:href="#b" y="52.025461"/></g><g clip-path="url(#a)"><use fill="#90ee90" stroke="#008000" stroke-linejoin="round" x="707.579898" xlink:href="#b" y="339.622863"/></g><g clip-path="url(#a)"><use fill="#90ee90" stroke="#008000" stroke-linejoin="round" x="800.217798" xlink:href="#b" y="425.932798"/></g><g clip-path="url(#a)"><use fill="#ffc0cb" stroke="#f00" stroke-linejoin="round" x="215.34789" xlink:href="#b" y="199.640143"/></g><g clip-path="url(#a)"><use fill="#ffc0cb" stroke="#f00" stroke-linejoin="round" x="151.113624" xlink:href="#b" y="340.297403"/></g><g clip-path="url(#a)"><use fill="#ffc0cb" stroke="#f00" stroke-linejoin="round" x="770.222906" xlink:href="#b" y="40.005482"/></g><g clip-path="url(#a)"><use fill="#90ee90" stroke="#008000" stroke-linejoin="round" x="1505.656739" xlink:href="#b" y="440.635042"/></g><g clip-path="url(#a)"><use fill="#90ee90" stroke="#008000" stroke-linejoin="round" x="848.33746" xlink:href="#b" y="454.334411"/></g><g clip-path="url(#a)"><use fill="#90ee90" stroke="#008000" stroke-linejoin="round" x="989.422559" xlink:href="#b" y="505.974539"/></g><g clip-path="url(#a)"><use fill="#90ee90" stroke="#008000" stroke-linejoin="round" x="1180.875724" xlink:href="#b" y="526.090909"/></g><g clip-path="url(#a)"><use fill="#90ee90" stroke="#008000" stroke-linejoin="round" x="901.65042" xlink:href="#b" y="478.503703"/></g><g clip-path="url(#a)"><use fill="#ffc0cb" stroke="#f00" stroke-linejoin="round" x="150.071378" xlink:href="#b" y="361.420098"/></g><g clip-path="url(#a)"><use fill="#ffc0cb" stroke="#f00" stroke-linejoin="round" x="1021.743139" xlink:href="#b" y="132.067202"/></g><g clip-path="url(#a)"><use fill="#ffc0cb" stroke="#f00" stroke-linejoin="round" x="166.661802" xlink:href="#b" y="277.795155"/></g><g clip-path="url(#a)"><use fill="#ffc0cb" stroke="#f00" stroke-linejoin="round" x="1127.543697" xlink:href="#b" y="237.701925"/></g><g clip-path="url(#a)"><use fill="#90ee90" stroke="#008000" stroke-linejoin="round" x="658.386351" xlink:href="#b" y="217.702597"/></g><g clip-path="url(#a)"><use fill="#ffc0cb" stroke="#f00" stroke-linejoin="round" x="641.085214" xlink:href="#b" y="31.909091"/></g><g clip-path="url(#a)"><use fill="#90ee90" stroke="#008000" stroke-linejoin="round" x="1589.756071" xlink:href="#b" y="376.432062"/></g><g clip-path="url(#a)"><use fill="#ffc0cb" stroke="#f00" stroke-linejoin="round" x="250.808831" xlink:href="#b" y="164.234784"/></g><g clip-path="url(#a)"><use fill="#90ee90" stroke="#008000" stroke-linejoin="round" x="1606.613048" xlink:href="#b" y="358.359857"/></g><g clip-path="url(#a)"><use fill="#90ee90" stroke="#008000" stroke-linejoin="round" x="1213.326695" xlink:href="#b" y="524.736878"/></g><g clip-path="url(#a)"><use fill="#ffc0cb" stroke="#f00" stroke-linejoin="round" x="452.008555" xlink:href="#b" y="59.956186"/></g><g clip-path="url(#a)"><use fill="#90ee90" stroke="#008000" stroke-linejoin="round" x="673.934529" xlink:href="#b" y="280.204845"/></g><g clip-path="url(#a)"><use fill="#90ee90" stroke="#008000" stroke-linejoin="round" x="1115.90697" xlink:href="#b" y="524.736878"/></g><g clip-path="url(#a)"><use fill="#ffc0cb" stroke="#f00" stroke-linejoin="round" x="232.204866" xlink:href="#b" y="181.567938"/></g><g clip-path="url(#a)"><use fill="#90ee90" stroke="#008000" stroke-linejoin="round" x="1427.583244" xlink:href="#b" y="478.503703"/></g></g><g><g><use stroke="#000" stroke-width=".8" x="150.071378" xlink:href="#c" y="550.8"/><g transform="matrix(.15 0 0 -.15 131.859268 569.197656)"><use xlink:href="#d"/><use x="83.789062" xlink:href="#e"/><use x="147.412109" xlink:href="#f"/><use x="179.199219" xlink:href="#g"/></g></g><g><use stroke="#000" stroke-width=".8" x="403.707741" xlink:href="#c" y="550.8"/><g transform="matrix(.15 0 0 -.15 385.495632 569.197656)"><use xlink:href="#d"/><use x="83.789062" xlink:href="#g"/><use x="147.412109" xlink:href="#f"/><use x="179.199219" xlink:href="#h"/></g></g><g><use stroke="#000" stroke-width=".8" x="657.344105" xlink:href="#c" y="550.8"/><g transform="matrix(.15 0 0 -.15 645.416761 569.197656)"><use xlink:href="#g"/><use x="63.623047" xlink:href="#f"/><use x="95.410156" xlink:href="#g"/></g></g><g><use stroke="#000" stroke-width=".8" x="910.980469" xlink:href="#c" y="550.8"/><g transform="matrix(.15 0 0 -.15 899.053125 569.197656)"><use xlink:href="#g"/><use x="63.623047" xlink:href="#f"/><use x="95.410156" xlink:href="#h"/></g></g><g><use stroke="#000" stroke-width=".8" x="1164.616832" xlink:href="#c" y="550.8"/><g transform="matrix(.15 0 0 -.15 1152.689489 569.197656)"><use xlink:href="#e"/><use x="63.623047" xlink:href="#f"/><use x="95.410156" xlink:href="#g"/></g></g><g><use stroke="#000" stroke-width=".8" x="1418.253196" xlink:href="#c" y="550.8"/><g transform="matrix(.15 0 0 -.15 1406.325852 569.197656)"><use xlink:href="#e"/><use x="63.623047" xlink:href="#f"/><use x="95.410156" xlink:href="#h"/></g></g><g><use stroke="#000" stroke-width=".8" x="1671.88956" xlink:href="#c" y="550.8"/><g transform="matrix(.15 0 0 -.15 1659.962216 569.197656)"><use xlink:href="#i"/><use x="63.623047" xlink:href="#f"/><use x="95.410156" xlink:href="#g"/></g></g><g transform="matrix(.2 0 0 -.2 901.097656 591.514063)"><use xlink:href="#j"/><use x="35.205078" xlink:href="#e"/></g></g><g><g><use stroke="#000" stroke-width=".8" x="73.980469" xlink:href="#k" y="493.292254"/><g transform="matrix(.15 0 0 -.15 30.55625 498.991083)"><use xlink:href="#d"/><use x="83.789062" xlink:href="#g"/><use x="147.412109" xlink:href="#f"/><use x="179.199219" xlink:href="#l"/></g></g><g><use stroke="#000" stroke-width=".8" x="73.980469" xlink:href="#k" y="427.356176"/><g transform="matrix(.15 0 0 -.15 30.55625 433.055004)"><use xlink:href="#d"/><use x="83.789062" xlink:href="#g"/><use x="147.412109" xlink:href="#f"/><use x="179.199219" xlink:href="#i"/></g></g><g><use stroke="#000" stroke-width=".8" x="73.980469" xlink:href="#k" y="361.420098"/><g transform="matrix(.15 0 0 -.15 43.125781 367.118926)"><use xlink:href="#g"/><use x="63.623047" xlink:href="#f"/><use x="95.410156" xlink:href="#g"/></g></g><g><use stroke="#000" stroke-width=".8" x="73.980469" xlink:href="#k" y="295.48402"/><g transform="matrix(.15 0 0 -.15 43.125781 301.182848)"><use xlink:href="#g"/><use x="63.623047" xlink:href="#f"/><use x="95.410156" xlink:href="#i"/></g></g><g><use stroke="#000" stroke-width=".8" x="73.980469" xlink:href="#k" y="229.547941"/><g transform="matrix(.15 0 0 -.15 43.125781 235.246769)"><use xlink:href="#g"/><use x="63.623047" xlink:href="#f"/><use x="95.410156" xlink:href="#l"/></g></g><g><use stroke="#000" stroke-width=".8" x="73.980469" xlink:href="#k" y="163.611863"/><g transform="matrix(.15 0 0 -.15 43.125781 169.310691)"><use xlink:href="#g"/><use x="63.623047" xlink:href="#f"/><path d="m33.015625 40.375q-6.640625 0-10.53125-4.546875-3.875-4.53125-3.875-12.4375 0-7.859375 3.875-12.4375 3.890625-4.5625 10.53125-4.5625 6.640625 0 10.515625 4.5625 3.875 4.578125 3.875 12.4375 0 7.90625-3.875 12.4375-3.875 4.546875-10.515625 4.546875zm19.578125 30.921875v-8.984375q-3.71875 1.75-7.5 2.671875-3.78125.9375-7.5.9375-9.765625 0-14.921875-6.59375-5.140625-6.59375-5.875-19.921875 2.875 4.25 7.21875 6.515625 4.359375 2.265625 9.578125 2.265625 10.984375 0 17.359375-6.671875 6.375-6.65625 6.375-18.125 0-11.234375-6.640625-18.03125-6.640625-6.78125-17.671875-6.78125-12.65625 0-19.34375 9.6875-6.6875 9.703125-6.6875 28.109375 0 17.28125 8.203125 27.5625 8.203125 10.28125 22.015625 10.28125 3.71875 0 7.5-.734375 3.78125-.734375 7.890625-2.1875z" transform="translate(95.410156)"/></g></g><g><use stroke="#000" stroke-width=".8" x="73.980469" xlink:href="#k" y="97.675785"/><g transform="matrix(.15 0 0 -.15 43.125781 103.374613)"><use xlink:href="#g"/><use x="63.623047" xlink:href="#f"/><path d="m31.78125 34.625q-7.03125 0-11.0625-3.765625-4.015625-3.765625-4.015625-10.34375 0-6.59375 4.015625-10.359375 4.03125-3.765625 11.0625-3.765625 7.03125 0 11.078125 3.78125 4.0625 3.796875 4.0625 10.34375 0 6.578125-4.03125 10.34375-4.015625 3.765625-11.109375 3.765625zm-9.859375 4.1875q-6.34375 1.5625-9.890625 5.90625-3.53125 4.359375-3.53125 10.609375 0 8.734375 6.21875 13.8125 6.234375 5.078125 17.0625 5.078125 10.890625 0 17.09375-5.078125 6.203125-5.078125 6.203125-13.8125 0-6.25-3.546875-10.609375-3.53125-4.34375-9.828125-5.90625 7.125-1.65625 11.09375-6.5 3.984375-4.828125 3.984375-11.796875 0-10.609375-6.46875-16.28125-6.46875-5.65625-18.53125-5.65625-12.046875 0-18.53125 5.65625-6.46875 5.671875-6.46875 16.28125 0 6.96875 4 11.796875 4.015625 4.84375 11.140625 6.5zm-3.609375 15.578125q0-5.65625 3.53125-8.828125 3.546875-3.171875 9.9375-3.171875 6.359375 0 9.9375 3.171875 3.59375 3.171875 3.59375 8.828125 0 5.671875-3.59375 8.84375-3.578125 3.171875-9.9375 3.171875-6.390625 0-9.9375-3.171875-3.53125-3.171875-3.53125-8.84375z" transform="translate(95.410156)"/></g></g><g><use stroke="#000" stroke-width=".8" x="73.980469" xlink:href="#k" y="31.739706"/><g transform="matrix(.15 0 0 -.15 43.125781 37.438535)"><use xlink:href="#e"/><use x="63.623047" xlink:href="#f"/><use x="95.410156" xlink:href="#g"/></g></g><g transform="matrix(0 -.2 -.2 0 22.396875 288.882812)"><use xlink:href="#j"/><use x="35.205078" xlink:href="#i"/></g></g></g><path d="m73.980469 550.8v-543.6" fill="none" stroke="#000" stroke-linecap="square" stroke-linejoin="miter" stroke-width=".8"/><path d="m1747.980469 550.8v-543.6" fill="none" stroke="#000" stroke-linecap="square" stroke-linejoin="miter" stroke-width=".8"/><path d="m73.980469 550.8h1674" fill="none" stroke="#000" stroke-linecap="square" stroke-linejoin="miter" stroke-width=".8"/><path d="m73.980469 7.2h1674" fill="none" stroke="#000" stroke-linecap="square" stroke-linejoin="miter" stroke-width=".8"/></g></g></svg>