<svg height="602.873438pt" stroke-linejoin="round" viewBox="0 0 1759.957031 602.873438" width="1759.957031pt" xmlns="http://www.w3.org/2000/svg" xmlns:xlink="http://www.w3.org/1999/xlink"><defs stroke-linejoin="round"><clipPath id="a" stroke-linejoin="round"><path d="m78.757031 7.2h492.352941v543.6h-492.352941z"/></clipPath><clipPath id="b" stroke-linejoin="round"><path d="m669.580561 7.2h492.352941v543.6h-492.352941z"/></clipPath><clipPath id="c" stroke-linejoin="round"><path d="m1260.40409 7.2h492.352941v543.6h-492.352941z"/></clipPath><path id="d" d="m0 2.738613c.726289 0 1.422928-.288558 1.936492-.802121.513563-.513564.802121-1.210203.802121-1.936492s-.288558-1.422928-.802121-1.936492c-.513564-.513563-1.210203-.802121-1.936492-.802121s-1.422928.288558-1.936492.802121c-.513563.513564-.802121 1.210203-.802121 1.936492s.288558 1.422928.802121 1.936492c.513564.513563 1.210203.802121 1.936492.802121z" stroke="#008000" stroke-linejoin="round"/><path id="e" d="m0 0v3.5" stroke="#000" stroke-linejoin="round" stroke-width=".8"/><path id="f" d="m10.59375 35.5h62.59375v-8.296875h-62.59375z" stroke-linejoin="round"/><path id="g" d="m19.1875 8.296875h34.421875v-8.296875h-46.28125v8.296875q5.609375 5.8125 15.296875 15.59375 9.703125 9.796875 12.1875 12.640625 4.734375 5.3125 6.609375 9 1.890625 3.6875 1.890625 7.25 0 5.8125-4.078125 9.46875-4.078125 3.671875-10.625 3.671875-4.640625 0-9.796875-1.609375-5.140625-1.609375-11-4.890625v9.96875q5.953125 2.390625 11.125 3.609375 5.1875 1.21875 9.484375 1.21875 11.328125 0 18.0625-5.671875 6.734375-5.65625 6.734375-15.125 0-4.5-1.6875-8.53125-1.671875-4.015625-6.125-9.484375-1.21875-1.421875-7.765625-8.1875-6.53125-6.765625-18.453125-18.921875z" stroke-linejoin="round"/><path id="h" d="m12.40625 8.296875h16.109375v55.625l-17.53125-3.515625v8.984375l17.4375 3.515625h9.859375v-64.609375h16.109375v-8.296875h-41.984375z" stroke-linejoin="round"/><path id="i" d="m31.78125 66.40625q-7.609375 0-11.453125-7.5-3.828125-7.484375-3.828125-22.53125 0-14.984375 3.828125-22.484375 3.84375-7.5 11.453125-7.5 7.671875 0 11.5 7.5 3.84375 7.5 3.84375 22.484375 0 15.046875-3.84375 22.53125-3.828125 7.5-11.5 7.5zm0 7.8125q12.265625 0 18.734375-9.703125 6.46875-9.6875 6.46875-28.140625 0-18.40625-6.46875-28.109375-6.46875-9.6875-18.734375-9.6875-12.25 0-18.71875 9.6875-6.46875 9.703125-6.46875 28.109375 0 18.453125 6.46875 28.140625 6.46875 9.703125 18.71875 9.703125z" stroke-linejoin="round"/><path id="j" d="m40.578125 39.3125q7.078125-1.515625 11.046875-6.3125 3.984375-4.78125 3.984375-11.8125 0-10.78125-7.421875-16.703125-7.421875-5.90625-21.09375-5.90625-4.578125 0-9.4375.90625-4.859375.90625-10.03125 2.71875v9.515625q4.09375-2.390625 8.96875-3.609375 4.890625-1.21875 10.21875-1.21875 9.265625 0 14.125 3.65625 4.859375 3.65625 4.859375 10.640625 0 6.453125-4.515625 10.078125-4.515625 3.640625-12.5625 3.640625h-8.5v8.109375h8.890625q7.265625 0 11.125 2.90625 3.859375 2.90625 3.859375 8.375 0 5.609375-3.984375 8.609375-3.96875 3.015625-11.390625 3.015625-4.0625 0-8.703125-.890625-4.640625-.875-10.203125-2.71875v8.78125q5.625 1.5625 10.53125 2.34375 4.90625.78125 9.25.78125 11.234375 0 17.765625-5.109375 6.546875-5.09375 6.546875-13.78125 0-6.0625-3.46875-10.234375-3.46875-4.171875-9.859375-5.78125z" stroke-linejoin="round"/><path id="k" d="m37.109375 75.984375v-7.484375h-8.59375q-4.828125 0-6.71875-1.953125-1.875-1.953125-1.875-7.03125v-4.828125h14.796875v-6.984375h-14.796875v-47.703125h-9.03125v47.703125h-8.59375v6.984375h8.59375v3.8125q0 9.125 4.25 13.296875 4.25 4.1875 13.46875 4.1875z" stroke-linejoin="round"/><path id="l" d="m0 0h-3.5" stroke="#000" stroke-linejoin="round" stroke-width=".8"/><path id="m" d="m10.796875 72.90625h38.71875v-8.3125h-29.6875v-17.859375q2.140625.734375 4.28125 1.09375 2.15625.359375 4.3125.359375 12.203125 0 19.328125-6.6875 7.140625-6.6875 7.140625-18.109375 0-11.765625-7.328125-18.296875-7.328125-6.515625-20.65625-6.515625-4.59375 0-9.359375.78125-4.75.78125-9.828125 2.34375v9.921875q4.390625-2.390625 9.078125-3.5625 4.6875-1.171875 9.90625-1.171875 8.453125 0 13.375 4.4375 4.9375 4.4375 4.9375 12.0625 0 7.609375-4.9375 12.046875-4.921875 4.453125-13.375 4.453125-3.953125 0-7.890625-.875-3.921875-.875-8.015625-2.734375z" stroke-linejoin="round"/><path id="n" d="m32.171875-5.078125q-3.796875-9.765625-7.421875-12.734375-3.609375-2.984375-9.65625-2.984375h-7.1875v7.515625h5.28125q3.703125 0 5.75 1.765625 2.0625 1.75 4.546875 8.296875l1.609375 4.09375-22.109375 53.8125h9.515625l17.09375-42.765625 17.09375 42.765625h9.515625z" stroke-linejoin="round"/></defs><g stroke-linejoin="round"><path d="m0 602.873438h1759.957031v-602.873438h-1759.957031z" fill="none"/><g><g stroke-linejoin="round"><path d="m78.757031 550.8h492.352941v-543.6h-492.352941z" fill="#fff"/><g clip-path="url(#a)" fill="#90ee90" stroke="#008000"><use x="397.775975" xlink:href="#d" y="201.46759"/><use x="296.38372" xlink:href="#d" y="308.019905"/><use x="338.41549" xlink:href="#d" y="262.808723"/><use x="361.997504" xlink:href="#d" y="237.492304"/><use x="350.588552" xlink:href="#d" y="252.625052"/><use x="330.513626" xlink:href="#d" y="274.237352"/><use x="218.762371" xlink:href="#d" y="394.324781"/><use x="255.093036" xlink:href="#d" y="356.197847"/><use x="282.288528" xlink:href="#d" y="323.316572"/><use x="237.65611" xlink:href="#d" y="375.798043"/><use x="331.221368" xlink:href="#d" y="270.704969"/><use x="265.072314" xlink:href="#d" y="344.737004"/><use x="269.261986" xlink:href="#d" y="339.953707"/><use x="194.219379" xlink:href="#d" y="424.137244"/><use x="218.637117" xlink:href="#d" y="395.13866"/><use x="332.57404" xlink:href="#d" y="271.289325"/><use x="386.898379" xlink:href="#d" y="211.402575"/><use x="162.687822" xlink:href="#d" y="456.829611"/><use x="294.583618" xlink:href="#d" y="312.018273"/><use x="353.468533" xlink:href="#d" y="248.139851"/><use x="270.841224" xlink:href="#d" y="339.196015"/><use x="242.39994" xlink:href="#d" y="368.91444"/><use x="305.994948" xlink:href="#d" y="298.581011"/><use x="216.128243" xlink:href="#d" y="397.852452"/><use x="287.443388" xlink:href="#d" y="322.269699"/><use x="213.210592" xlink:href="#d" y="400.981388"/><use x="309.708342" xlink:href="#d" y="295.047959"/><use x="215.528313" xlink:href="#d" y="397.524115"/><use x="423.392548" xlink:href="#d" y="171.550716"/><use x="332.835174" xlink:href="#d" y="270.46328"/><use x="284.081261" xlink:href="#d" y="322.543206"/><use x="233.895308" xlink:href="#d" y="376.819017"/><use x="317.866346" xlink:href="#d" y="286.74046"/><use x="377.636513" xlink:href="#d" y="219.148214"/><use x="334.136941" xlink:href="#d" y="267.059985"/><use x="224.357415" xlink:href="#d" y="388.334109"/><use x="350.836344" xlink:href="#d" y="250.075807"/><use x="441.494258" xlink:href="#d" y="148.418929"/><use x="332.578977" xlink:href="#d" y="270.605848"/><use x="254.762823" xlink:href="#d" y="356.641164"/><use x="346.8251" xlink:href="#d" y="254.200855"/><use x="277.076451" xlink:href="#d" y="330.586328"/><use x="317.109296" xlink:href="#d" y="286.579394"/><use x="292.54865" xlink:href="#d" y="313.486392"/><use x="290.763316" xlink:href="#d" y="315.364776"/><use x="244.745367" xlink:href="#d" y="368.515731"/><use x="169.831007" xlink:href="#d" y="448.617635"/><use x="313.10286" xlink:href="#d" y="289.811037"/><use x="353.315096" xlink:href="#d" y="248.138714"/><use x="311.805161" xlink:href="#d" y="294.141728"/><use x="311.583796" xlink:href="#d" y="296.184786"/><use x="300.184747" xlink:href="#d" y="306.88001"/><use x="308.495991" xlink:href="#d" y="296.590348"/><use x="290.208461" xlink:href="#d" y="317.312354"/><use x="351.36461" xlink:href="#d" y="247.365619"/><use x="278.412621" xlink:href="#d" y="327.532922"/><use x="223.27722" xlink:href="#d" y="392.547511"/><use x="450.118865" xlink:href="#d" y="139.865625"/><use x="260.220756" xlink:href="#d" y="351.361405"/><use x="409.416137" xlink:href="#d" y="186.430429"/><use x="323.489826" xlink:href="#d" y="281.619458"/><use x="285.471838" xlink:href="#d" y="320.093563"/><use x="334.415873" xlink:href="#d" y="266.853222"/><use x="379.981273" xlink:href="#d" y="219.076844"/><use x="402.535077" xlink:href="#d" y="195.804741"/><use x="371.731685" xlink:href="#d" y="226.436283"/><use x="220.127705" xlink:href="#d" y="393.583651"/><use x="340.461324" xlink:href="#d" y="259.642952"/><use x="153.662052" xlink:href="#d" y="467.219655"/><use x="548.730293" xlink:href="#d" y="31.909091"/><use x="237.025616" xlink:href="#d" y="373.5452"/><use x="332.881152" xlink:href="#d" y="271.113825"/><use x="303.297216" xlink:href="#d" y="302.474264"/><use x="253.815469" xlink:href="#d" y="355.221584"/><use x="313.258379" xlink:href="#d" y="293.03323"/><use x="272.086579" xlink:href="#d" y="335.777895"/><use x="234.195847" xlink:href="#d" y="378.342814"/><use x="302.899195" xlink:href="#d" y="302.677249"/><use x="345.809549" xlink:href="#d" y="254.823043"/><use x="208.737989" xlink:href="#d" y="408.970477"/><use x="380.33387" xlink:href="#d" y="216.931677"/><use x="355.453651" xlink:href="#d" y="244.035217"/><use x="372.729182" xlink:href="#d" y="226.581185"/><use x="452.897385" xlink:href="#d" y="137.905231"/><use x="370.556515" xlink:href="#d" y="228.86136"/><use x="235.630747" xlink:href="#d" y="376.012748"/><use x="391.892377" xlink:href="#d" y="205.160439"/><use x="467.231838" xlink:href="#d" y="123.589093"/><use x="299.210684" xlink:href="#d" y="307.689625"/><use x="101.13671" xlink:href="#d" y="526.090909"/><use x="212.833097" xlink:href="#d" y="399.885597"/><use x="394.410019" xlink:href="#d" y="200.488491"/><use x="296.791082" xlink:href="#d" y="311.713146"/><use x="437.475636" xlink:href="#d" y="156.559798"/><use x="298.959681" xlink:href="#d" y="307.715622"/><use x="287.69826" xlink:href="#d" y="316.050564"/><use x="201.993498" xlink:href="#d" y="412.844972"/><use x="331.57649" xlink:href="#d" y="273.441318"/><use x="288.635864" xlink:href="#d" y="317.790744"/><use x="395.996387" xlink:href="#d" y="202.11675"/></g><g><g><use stroke="#000" stroke-width=".8" x="140.932296" xlink:href="#e" y="550.8"/><g transform="matrix(.15 0 0 -.15 129.875656 569.197656)"><use xlink:href="#f"/><use x="83.789062" xlink:href="#g"/></g></g><g><use stroke="#000" stroke-width=".8" x="219.543918" xlink:href="#e" y="550.8"/><g transform="matrix(.15 0 0 -.15 208.487277 569.197656)"><use xlink:href="#f"/><use x="83.789062" xlink:href="#h"/></g></g><g><use stroke="#000" stroke-width=".8" x="298.155539" xlink:href="#e" y="550.8"/><use transform="matrix(.15 0 0 -.15 293.383664 569.197656)" xlink:href="#i"/></g><g><use stroke="#000" stroke-width=".8" x="376.76716" xlink:href="#e" y="550.8"/><use transform="matrix(.15 0 0 -.15 371.995285 569.197656)" xlink:href="#h"/></g><g><use stroke="#000" stroke-width=".8" x="455.378782" xlink:href="#e" y="550.8"/><use transform="matrix(.15 0 0 -.15 450.606907 569.197656)" xlink:href="#g"/></g><g><use stroke="#000" stroke-width=".8" x="533.990403" xlink:href="#e" y="550.8"/><use transform="matrix(.15 0 0 -.15 529.218528 569.197656)" xlink:href="#j"/></g><g transform="matrix(.2 0 0 -.2 315.050689 591.514063)"><use xlink:href="#k"/><use x="35.205078" xlink:href="#h"/></g></g><g><g><use stroke="#000" stroke-width=".8" x="78.757031" xlink:href="#l" y="514.217314"/><g transform="matrix(.15 0 0 -.15 30.55625 519.916142)"><use xlink:href="#f"/><use x="83.789062" xlink:href="#h"/><use x="147.412109" xlink:href="#m"/><use x="211.035156" xlink:href="#i"/></g></g><g><use stroke="#000" stroke-width=".8" x="78.757031" xlink:href="#l" y="445.46612"/><g transform="matrix(.15 0 0 -.15 30.55625 451.164948)"><use xlink:href="#f"/><use x="83.789062" xlink:href="#h"/><use x="147.412109" xlink:href="#i"/><use x="211.035156" xlink:href="#i"/></g></g><g><use stroke="#000" stroke-width=".8" x="78.757031" xlink:href="#l" y="376.714926"/><g transform="matrix(.15 0 0 -.15 40.1 382.413754)"><use xlink:href="#f"/><use x="83.789062" xlink:href="#m"/><use x="147.412109" xlink:href="#i"/></g></g><g><use stroke="#000" stroke-width=".8" x="78.757031" xlink:href="#l" y="307.963732"/><use transform="matrix(.15 0 0 -.15 62.213281 313.66256)" xlink:href="#i"/></g><g><use stroke="#000" stroke-width=".8" x="78.757031" xlink:href="#l" y="239.212538"/><g transform="matrix(.15 0 0 -.15 52.669531 244.911366)"><use xlink:href="#m"/><use x="63.623047" xlink:href="#i"/></g></g><g><use stroke="#000" stroke-width=".8" x="78.757031" xlink:href="#l" y="170.461344"/><g transform="matrix(.15 0 0 -.15 43.125781 176.160172)"><use xlink:href="#h"/><use x="63.623047" xlink:href="#i"/><use x="127.246094" xlink:href="#i"/></g></g><g><use stroke="#000" stroke-width=".8" x="78.757031" xlink:href="#l" y="101.71015"/><g transform="matrix(.15 0 0 -.15 43.125781 107.408978)"><use xlink:href="#h"/><use x="63.623047" xlink:href="#m"/><use x="127.246094" xlink:href="#i"/></g></g><g><use stroke="#000" stroke-width=".8" x="78.757031" xlink:href="#l" y="32.958956"/><g transform="matrix(.15 0 0 -.15 43.125781 38.657784)"><use xlink:href="#g"/><use x="63.623047" xlink:href="#i"/><use x="127.246094" xlink:href="#i"/></g></g><g transform="matrix(0 -.2 -.2 0 22.396875 291.28125)"><use xlink:href="#n"/><use x="59.179688" xlink:href="#h"/></g></g><path clip-path="url(#a)" d="m397.775975 198.651278-101.392255 111.357278 42.03177-46.162732 23.582014-25.899699-11.408952 12.530246-20.074926 22.047927-111.751255 122.73438 36.330665-39.901311 27.195492-29.868317-44.632418 49.018976 93.565258-102.761028-66.149054 72.650309 4.189672-4.601442-75.042607 82.417937 24.417738-26.81756 113.936923-125.134859 54.324339-59.663438-224.210557 246.246395 131.895796-144.858764 58.884915-64.672237-82.627309 90.748077-28.441284 31.236548 63.595008-69.845245-89.866705 98.698974 71.315145-78.324133-74.232796 81.528536 96.49775-105.981731-94.180029 103.43622 207.864235-228.293525-90.557374 99.457524-48.753913 53.54554-50.185953 55.118323 83.971038-92.22387 59.770167-65.644492-43.499572 47.774792-109.779526 120.568865 126.478929-138.909517 90.657914-99.567946-108.915281 119.619682-77.816154 85.464072 92.062277-101.110331-69.748649 76.603678 40.032845-43.967349-24.560646 26.974513-1.785334 1.9608-46.017949 50.54068-74.91436 82.277085 143.271853-157.352881 40.212236-44.164372-41.509935 45.58961-.221365.243122-11.399049 12.519369 8.311244-9.128089-18.28753 20.084863 61.156149-67.166691-72.951989 80.121849-55.135401 60.554211 226.841645-249.13607-189.898109 208.561654 149.195381-163.858585-85.926311 94.371312-38.017988 41.754467 48.944035-53.754347 45.5654-50.043654 22.553804-24.770434-30.803392 33.830808-151.60398 166.503905 120.333619-132.160234-186.799272 205.158258 395.068241-433.896296-311.704677 342.339602 95.855536-105.276398-29.583936 32.4915-49.481747 54.344907 59.44291-65.285071-41.1718 45.218242-37.890732 41.614705 68.703348-75.455643 42.910354-47.127665-137.07156 150.543213 171.595881-188.46065-24.880219 27.325495 17.275531-18.973403 80.168203-88.047286-82.34087 90.433486-134.925768 148.186528 156.26163-171.619318 75.339461-82.743966-168.021154 184.53459-198.073974 217.541059 111.696387-122.674119 181.576922-199.422645-97.618937 107.213111 140.684554-154.511298-138.515955 152.129565-11.261421 12.368214-85.704762 94.127988 129.582992-142.318653-42.940626 47.160911 107.360523-117.912117" fill="none" stroke="#ffc0cb" stroke-dasharray="3.7 1.6"/></g><path d="m78.757031 550.8v-543.6" fill="none" stroke="#000" stroke-linecap="square" stroke-linejoin="miter" stroke-width=".8"/><path d="m571.109972 550.8v-543.6" fill="none" stroke="#000" stroke-linecap="square" stroke-linejoin="miter" stroke-width=".8"/><path d="m78.757031 550.8h492.352941" fill="none" stroke="#000" stroke-linecap="square" stroke-linejoin="miter" stroke-width=".8"/><path d="m78.757031 7.2h492.352941" fill="none" stroke="#000" stroke-linecap="square" stroke-linejoin="miter" stroke-width=".8"/></g><g><g stroke-linejoin="round"><path d="m669.580561 550.8h492.352941v-543.6h-492.352941z" fill="#fff"/><g clip-path="url(#b)" fill="#90ee90" stroke="#008000"><use x="988.599505" xlink:href="#d" y="225.940072"/><use x="887.20725" xlink:href="#d" y="286.851412"/><use x="929.239019" xlink:href="#d" y="251.756959"/><use x="952.821034" xlink:href="#d" y="232.534684"/><use x="941.412081" xlink:href="#d" y="269.130181"/><use x="921.337156" xlink:href="#d" y="286.070077"/><use x="809.5859" xlink:href="#d" y="378.269448"/><use x="845.916565" xlink:href="#d" y="356.942231"/><use x="873.112058" xlink:href="#d" y="299.900181"/><use x="828.479639" xlink:href="#d" y="379.490097"/><use x="922.044898" xlink:href="#d" y="259.258159"/><use x="855.895843" xlink:href="#d" y="341.733764"/><use x="860.085515" xlink:href="#d" y="335.617331"/><use x="785.042908" xlink:href="#d" y="431.056078"/><use x="809.460647" xlink:href="#d" y="384.800351"/><use x="923.39757" xlink:href="#d" y="277.425642"/><use x="977.721908" xlink:href="#d" y="218.317364"/><use x="753.511351" xlink:href="#d" y="445.798369"/><use x="885.407147" xlink:href="#d" y="307.866587"/><use x="944.292063" xlink:href="#d" y="253.597865"/><use x="861.664754" xlink:href="#d" y="343.202808"/><use x="833.223469" xlink:href="#d" y="358.677506"/><use x="896.818477" xlink:href="#d" y="287.336475"/><use x="806.951772" xlink:href="#d" y="387.038381"/><use x="878.266918" xlink:href="#d" y="338.156706"/><use x="804.034121" xlink:href="#d" y="389.385384"/><use x="900.531871" xlink:href="#d" y="288.600311"/><use x="806.351843" xlink:href="#d" y="378.326361"/><use x="1014.216078" xlink:href="#d" y="182.19605"/><use x="923.658704" xlink:href="#d" y="272.049161"/><use x="874.90479" xlink:href="#d" y="309.332028"/><use x="824.718838" xlink:href="#d" y="354.013319"/><use x="908.689875" xlink:href="#d" y="286.213363"/><use x="968.460042" xlink:href="#d" y="205.074346"/><use x="924.960471" xlink:href="#d" y="252.008743"/><use x="815.180944" xlink:href="#d" y="373.859002"/><use x="941.659873" xlink:href="#d" y="247.323643"/><use x="1032.317788" xlink:href="#d" y="132.442396"/><use x="923.402506" xlink:href="#d" y="271.004506"/><use x="845.586352" xlink:href="#d" y="358.051816"/><use x="937.64863" xlink:href="#d" y="248.878602"/><use x="867.89998" xlink:href="#d" y="319.991773"/><use x="907.932826" xlink:href="#d" y="277.616121"/><use x="883.372179" xlink:href="#d" y="302.745464"/><use x="881.586846" xlink:href="#d" y="303.838728"/><use x="835.568897" xlink:href="#d" y="376.818353"/><use x="760.654536" xlink:href="#d" y="434.833742"/><use x="903.926389" xlink:href="#d" y="270.762348"/><use x="944.138626" xlink:href="#d" y="252.153526"/><use x="902.628691" xlink:href="#d" y="299.616071"/><use x="902.407325" xlink:href="#d" y="316.879835"/><use x="891.008277" xlink:href="#d" y="311.578746"/><use x="899.319521" xlink:href="#d" y="291.867737"/><use x="881.031991" xlink:href="#d" y="317.083213"/><use x="942.18814" xlink:href="#d" y="226.614701"/><use x="869.23615" xlink:href="#d" y="303.58353"/><use x="814.10075" xlink:href="#d" y="403.635074"/><use x="1040.942395" xlink:href="#d" y="132.089075"/><use x="851.044285" xlink:href="#d" y="359.087193"/><use x="1000.239667" xlink:href="#d" y="192.409253"/><use x="914.313355" xlink:href="#d" y="290.297666"/><use x="876.295367" xlink:href="#d" y="299.145096"/><use x="925.239402" xlink:href="#d" y="252.658371"/><use x="970.804802" xlink:href="#d" y="226.306339"/><use x="993.358606" xlink:href="#d" y="216.821305"/><use x="962.555214" xlink:href="#d" y="218.866791"/><use x="810.951234" xlink:href="#d" y="384.013102"/><use x="931.284853" xlink:href="#d" y="240.915938"/><use x="744.485581" xlink:href="#d" y="459.783342"/><use x="1139.553823" xlink:href="#d" y="31.909091"/><use x="827.849146" xlink:href="#d" y="352.282285"/><use x="923.704681" xlink:href="#d" y="278.634376"/><use x="894.120746" xlink:href="#d" y="298.970397"/><use x="844.638999" xlink:href="#d" y="335.768125"/><use x="904.081908" xlink:href="#d" y="302.704692"/><use x="862.910109" xlink:href="#d" y="322.495032"/><use x="825.019376" xlink:href="#d" y="371.239887"/><use x="893.722724" xlink:href="#d" y="297.172353"/><use x="936.633079" xlink:href="#d" y="245.277546"/><use x="799.561518" xlink:href="#d" y="423.192493"/><use x="971.157399" xlink:href="#d" y="209.302497"/><use x="946.27718" xlink:href="#d" y="233.305775"/><use x="963.552711" xlink:href="#d" y="229.557598"/><use x="1043.720914" xlink:href="#d" y="139.499232"/><use x="961.380044" xlink:href="#d" y="230.833839"/><use x="826.454276" xlink:href="#d" y="362.598541"/><use x="982.715906" xlink:href="#d" y="205.911868"/><use x="1058.055367" xlink:href="#d" y="137.96395"/><use x="890.034214" xlink:href="#d" y="310.138797"/><use x="691.96024" xlink:href="#d" y="526.090909"/><use x="803.656626" xlink:href="#d" y="375.489728"/><use x="985.233549" xlink:href="#d" y="185.227119"/><use x="887.614611" xlink:href="#d" y="325.603937"/><use x="1028.299165" xlink:href="#d" y="171.92727"/><use x="889.78321" xlink:href="#d" y="308.039643"/><use x="878.52179" xlink:href="#d" y="281.690751"/><use x="792.817027" xlink:href="#d" y="396.839674"/><use x="922.40002" xlink:href="#d" y="288.468215"/><use x="879.459394" xlink:href="#d" y="306.916961"/><use x="986.819916" xlink:href="#d" y="215.455756"/></g><g><g><use stroke="#000" stroke-width=".8" x="731.755826" xlink:href="#e" y="550.8"/><g transform="matrix(.15 0 0 -.15 720.699185 569.197656)"><use xlink:href="#f"/><use x="83.789062" xlink:href="#g"/></g></g><g><use stroke="#000" stroke-width=".8" x="810.367447" xlink:href="#e" y="550.8"/><g transform="matrix(.15 0 0 -.15 799.310807 569.197656)"><use xlink:href="#f"/><use x="83.789062" xlink:href="#h"/></g></g><g><use stroke="#000" stroke-width=".8" x="888.979068" xlink:href="#e" y="550.8"/><use transform="matrix(.15 0 0 -.15 884.207193 569.197656)" xlink:href="#i"/></g><g><use stroke="#000" stroke-width=".8" x="967.59069" xlink:href="#e" y="550.8"/><use transform="matrix(.15 0 0 -.15 962.818815 569.197656)" xlink:href="#h"/></g><g><use stroke="#000" stroke-width=".8" x="1046.202311" xlink:href="#e" y="550.8"/><use transform="matrix(.15 0 0 -.15 1041.430436 569.197656)" xlink:href="#g"/></g><g><use stroke="#000" stroke-width=".8" x="1124.813932" xlink:href="#e" y="550.8"/><use transform="matrix(.15 0 0 -.15 1120.042057 569.197656)" xlink:href="#j"/></g><g transform="matrix(.2 0 0 -.2 905.874219 591.514063)"><use xlink:href="#k"/><use x="35.205078" xlink:href="#g"/></g></g><g><g><use stroke="#000" stroke-width=".8" x="669.580561" xlink:href="#l" y="498.03723"/><g transform="matrix(.15 0 0 -.15 621.379779 503.736058)"><use xlink:href="#f"/><use x="83.789062" xlink:href="#h"/><use x="147.412109" xlink:href="#m"/><use x="211.035156" xlink:href="#i"/></g></g><g><use stroke="#000" stroke-width=".8" x="669.580561" xlink:href="#l" y="432.982872"/><g transform="matrix(.15 0 0 -.15 621.379779 438.6817)"><use xlink:href="#f"/><use x="83.789062" xlink:href="#h"/><use x="147.412109" xlink:href="#i"/><use x="211.035156" xlink:href="#i"/></g></g><g><use stroke="#000" stroke-width=".8" x="669.580561" xlink:href="#l" y="367.928513"/><g transform="matrix(.15 0 0 -.15 630.923529 373.627341)"><use xlink:href="#f"/><use x="83.789062" xlink:href="#m"/><use x="147.412109" xlink:href="#i"/></g></g><g><use stroke="#000" stroke-width=".8" x="669.580561" xlink:href="#l" y="302.874155"/><use transform="matrix(.15 0 0 -.15 653.036811 308.572983)" xlink:href="#i"/></g><g><use stroke="#000" stroke-width=".8" x="669.580561" xlink:href="#l" y="237.819796"/><g transform="matrix(.15 0 0 -.15 643.493061 243.518624)"><use xlink:href="#m"/><use x="63.623047" xlink:href="#i"/></g></g><g><use stroke="#000" stroke-width=".8" x="669.580561" xlink:href="#l" y="172.765437"/><g transform="matrix(.15 0 0 -.15 633.949311 178.464266)"><use xlink:href="#h"/><use x="63.623047" xlink:href="#i"/><use x="127.246094" xlink:href="#i"/></g></g><g><use stroke="#000" stroke-width=".8" x="669.580561" xlink:href="#l" y="107.711079"/><g transform="matrix(.15 0 0 -.15 633.949311 113.409907)"><use xlink:href="#h"/><use x="63.623047" xlink:href="#m"/><use x="127.246094" xlink:href="#i"/></g></g><g><use stroke="#000" stroke-width=".8" x="669.580561" xlink:href="#l" y="42.65672"/><g transform="matrix(.15 0 0 -.15 633.949311 48.355548)"><use xlink:href="#g"/><use x="63.623047" xlink:href="#i"/><use x="127.246094" xlink:href="#i"/></g></g><g transform="matrix(0 -.2 -.2 0 613.220404 291.28125)"><use xlink:href="#n"/><use x="59.179688" xlink:href="#g"/></g></g><path clip-path="url(#b)" d="m988.599505 199.291322-101.392255 106.377272 42.031769-44.098289 23.582015-24.74144-11.408953 11.969881-20.074925 21.061923-111.751256 117.24558 36.330665-38.116886 27.195493-28.532578-44.632419 46.826801 93.565259-98.165456-66.149055 69.401317 4.189672-4.39566-75.042607 78.732126 24.417739-25.618253 113.936923-119.538707 54.324338-56.995231-224.210557 235.234018 131.895796-138.38054 58.884916-61.780032-82.627309 86.689736-28.441285 29.839619 63.595008-66.721699-89.866705 94.285061 71.315146-74.821402-74.232797 77.882502 96.49775-101.242126-94.180028 98.810452 207.864235-218.084018-90.557374 95.009687-48.753914 51.150932-50.185952 52.653378 83.971037-88.099529 59.770167-62.708807-43.499571 45.638257-109.779527 115.176909 126.478929-132.697349 90.657915-95.115171-108.915282 114.270174-77.816154 81.642036 92.062278-96.58858-69.74865 73.177888 40.032846-42.001087-24.560647 25.768187-1.785333 1.873111-46.017949 48.280452-74.914361 78.597574 143.271853-150.315908 40.212237-42.189298-41.509935 43.550799-.221366.232249-11.399048 11.95949 8.311244-8.719872-18.28753 19.186649 61.156149-64.162932-72.95199 76.538722-55.1354 57.846169 226.841645-237.994464-189.89811 199.234575 149.195382-156.530671-85.926312 90.150936-38.017988 39.887167 48.944035-51.3504 45.5654-47.805654 22.553804-23.662676-30.803392 32.317861-151.60398 159.05769 120.333619-126.249901-186.799272 195.983382 395.068242-414.492033-311.704677 327.029844 95.855535-100.568337-29.583935 31.03845-49.481747 51.914549 59.442909-62.365459-41.171799 43.196038-37.890733 39.753656 68.703348-72.081194 42.910355-45.020071-137.071561 143.810775 171.595881-180.032506-24.880219 26.103471 17.275531-18.124894 80.168203-84.109725-82.34087 86.389213-134.925768 141.559483 156.26163-163.944337 75.339461-79.043575-168.021153 176.282024-198.073974 207.812413 111.696386-117.188014 181.576923-190.504272-97.618938 102.418437 140.684554-147.601403-138.515955 145.326184-11.26142 11.815095-85.704763 89.918494 129.582993-135.954026-42.940626 45.05183 107.360522-112.638973" fill="none" stroke="#ffc0cb" stroke-dasharray="3.7 1.6"/></g><path d="m669.580561 550.8v-543.6" fill="none" stroke="#000" stroke-linecap="square" stroke-linejoin="miter" stroke-width=".8"/><path d="m1161.933502 550.8v-543.6" fill="none" stroke="#000" stroke-linecap="square" stroke-linejoin="miter" stroke-width=".8"/><path d="m669.580561 550.8h492.352941" fill="none" stroke="#000" stroke-linecap="square" stroke-linejoin="miter" stroke-width=".8"/><path d="m669.580561 7.2h492.352941" fill="none" stroke="#000" stroke-linecap="square" stroke-linejoin="miter" stroke-width=".8"/></g><g><g stroke-linejoin="round"><path d="m1260.40409 550.8h492.352941v-543.6h-492.352941z" fill="#fff"/><g clip-path="url(#c)" fill="#90ee90" stroke="#008000"><use x="1579.423034" xlink:href="#d" y="376.531109"/><use x="1478.030779" xlink:href="#d" y="156.591424"/><use x="1520.062549" xlink:href="#d" y="183.750099"/><use x="1543.644563" xlink:href="#d" y="202.028047"/><use x="1532.23561" xlink:href="#d" y="370.694237"/><use x="1512.160685" xlink:href="#d" y="358.882566"/><use x="1400.40943" xlink:href="#d" y="279.473207"/><use x="1436.740094" xlink:href="#d" y="361.522782"/><use x="1463.935587" xlink:href="#d" y="155.807781"/><use x="1419.303169" xlink:href="#d" y="402.209089"/><use x="1512.868427" xlink:href="#d" y="188.820392"/><use x="1446.719372" xlink:href="#d" y="323.253372"/><use x="1450.909045" xlink:href="#d" y="308.93351"/><use x="1375.866437" xlink:href="#d" y="473.63101"/><use x="1400.284176" xlink:href="#d" y="321.183727"/><use x="1514.221099" xlink:href="#d" y="315.185371"/><use x="1568.545438" xlink:href="#d" y="260.86741"/><use x="1344.334881" xlink:href="#d" y="377.917797"/><use x="1476.230676" xlink:href="#d" y="282.319256"/><use x="1535.115592" xlink:href="#d" y="287.183666"/><use x="1452.488283" xlink:href="#d" y="367.85854"/><use x="1424.046999" xlink:href="#d" y="295.684692"/><use x="1487.642006" xlink:href="#d" y="218.143399"/><use x="1397.775301" xlink:href="#d" y="320.494162"/><use x="1469.090447" xlink:href="#d" y="435.917151"/><use x="1394.857651" xlink:href="#d" y="318.029558"/><use x="1491.355401" xlink:href="#d" y="248.924811"/><use x="1397.175372" xlink:href="#d" y="260.193283"/><use x="1605.039607" xlink:href="#d" y="247.701946"/><use x="1514.482233" xlink:href="#d" y="281.807854"/><use x="1465.728319" xlink:href="#d" y="228.03725"/><use x="1415.542367" xlink:href="#d" y="213.678817"/><use x="1499.513405" xlink:href="#d" y="282.969879"/><use x="1559.283572" xlink:href="#d" y="118.471016"/><use x="1515.784" xlink:href="#d" y="159.391157"/><use x="1406.004474" xlink:href="#d" y="284.786663"/><use x="1532.483403" xlink:href="#d" y="230.388241"/><use x="1623.141317" xlink:href="#d" y="34.131051"/><use x="1514.226036" xlink:href="#d" y="273.457643"/><use x="1436.409882" xlink:href="#d" y="366.73224"/><use x="1528.472159" xlink:href="#d" y="216.128204"/><use x="1458.72351" xlink:href="#d" y="254.798341"/><use x="1498.756355" xlink:href="#d" y="222.460764"/><use x="1474.195709" xlink:href="#d" y="236.651328"/><use x="1472.410375" xlink:href="#d" y="232.913372"/><use x="1426.392426" xlink:href="#d" y="427.908409"/><use x="1351.478066" xlink:href="#d" y="350.014772"/><use x="1494.749918" xlink:href="#d" y="153.546539"/><use x="1534.962155" xlink:href="#d" y="276.858612"/><use x="1493.45222" xlink:href="#d" y="333.30236"/><use x="1493.230855" xlink:href="#d" y="444.226496"/><use x="1481.831806" xlink:href="#d" y="340.492347"/><use x="1490.14305" xlink:href="#d" y="262.807224"/><use x="1471.85552" xlink:href="#d" y="315.673195"/><use x="1533.011669" xlink:href="#d" y="98.924258"/><use x="1460.05968" xlink:href="#d" y="156.211323"/><use x="1404.924279" xlink:href="#d" y="471.862214"/><use x="1631.765924" xlink:href="#d" y="84.236199"/><use x="1441.867815" xlink:href="#d" y="406.627712"/><use x="1591.063196" xlink:href="#d" y="229.199857"/><use x="1505.136885" xlink:href="#d" y="343.698883"/><use x="1467.118897" xlink:href="#d" y="170.239035"/><use x="1516.062932" xlink:href="#d" y="165.310579"/><use x="1561.628332" xlink:href="#d" y="270.792921"/><use x="1584.182136" xlink:href="#d" y="346.146399"/><use x="1553.378743" xlink:href="#d" y="172.288041"/><use x="1401.774764" xlink:href="#d" y="325.120883"/><use x="1522.108383" xlink:href="#d" y="125.679548"/><use x="1335.309111" xlink:href="#d" y="414.024108"/><use x="1730.377352" xlink:href="#d" y="31.909091"/><use x="1418.672675" xlink:href="#d" y="221.441271"/><use x="1514.52821" xlink:href="#d" y="324.911971"/><use x="1484.944275" xlink:href="#d" y="277.409408"/><use x="1435.462528" xlink:href="#d" y="216.061571"/><use x="1494.905437" xlink:href="#d" y="362.21788"/><use x="1453.733638" xlink:href="#d" y="240.759143"/><use x="1415.842906" xlink:href="#d" y="327.532133"/><use x="1484.546254" xlink:href="#d" y="263.298058"/><use x="1527.456608" xlink:href="#d" y="186.539481"/><use x="1390.385047" xlink:href="#d" y="510.707445"/><use x="1561.980929" xlink:href="#d" y="162.356453"/><use x="1537.10071" xlink:href="#d" y="167.282322"/><use x="1554.376241" xlink:href="#d" y="247.872913"/><use x="1634.544444" xlink:href="#d" y="149.307896"/><use x="1552.203574" xlink:href="#d" y="242.971463"/><use x="1417.277806" xlink:href="#d" y="280.054426"/><use x="1573.539436" xlink:href="#d" y="210.535768"/><use x="1648.878897" xlink:href="#d" y="226.419408"/><use x="1480.857743" xlink:href="#d" y="325.209736"/><use x="1282.783769" xlink:href="#d" y="526.090909"/><use x="1394.480156" xlink:href="#d" y="225.370129"/><use x="1576.057078" xlink:href="#d" y="91.316507"/><use x="1478.438141" xlink:href="#d" y="411.080702"/><use x="1619.122695" xlink:href="#d" y="266.490767"/><use x="1480.60674" xlink:href="#d" y="310.033497"/><use x="1469.345319" xlink:href="#d" y="70.258182"/><use x="1383.640557" xlink:href="#d" y="298.351324"/><use x="1513.223549" xlink:href="#d" y="380.935989"/><use x="1470.282923" xlink:href="#d" y="240.005304"/><use x="1577.643446" xlink:href="#d" y="297.537116"/></g><g><g><use stroke="#000" stroke-width=".8" x="1322.579355" xlink:href="#e" y="550.8"/><g transform="matrix(.15 0 0 -.15 1311.522715 569.197656)"><use xlink:href="#f"/><use x="83.789062" xlink:href="#g"/></g></g><g><use stroke="#000" stroke-width=".8" x="1401.190977" xlink:href="#e" y="550.8"/><g transform="matrix(.15 0 0 -.15 1390.134336 569.197656)"><use xlink:href="#f"/><use x="83.789062" xlink:href="#h"/></g></g><g><use stroke="#000" stroke-width=".8" x="1479.802598" xlink:href="#e" y="550.8"/><use transform="matrix(.15 0 0 -.15 1475.030723 569.197656)" xlink:href="#i"/></g><g><use stroke="#000" stroke-width=".8" x="1558.414219" xlink:href="#e" y="550.8"/><use transform="matrix(.15 0 0 -.15 1553.642344 569.197656)" xlink:href="#h"/></g><g><use stroke="#000" stroke-width=".8" x="1637.025841" xlink:href="#e" y="550.8"/><use transform="matrix(.15 0 0 -.15 1632.253966 569.197656)" xlink:href="#g"/></g><g><use stroke="#000" stroke-width=".8" x="1715.637462" xlink:href="#e" y="550.8"/><use transform="matrix(.15 0 0 -.15 1710.865587 569.197656)" xlink:href="#j"/></g><g transform="matrix(.2 0 0 -.2 1496.697748 591.514063)"><use xlink:href="#k"/><use x="35.205078" xlink:href="#j"/></g></g><g><g><use stroke="#000" stroke-width=".8" x="1260.40409" xlink:href="#l" y="525.391155"/><g transform="matrix(.15 0 0 -.15 1212.203309 531.089983)"><use xlink:href="#f"/><use x="83.789062" xlink:href="#j"/><use x="147.412109" xlink:href="#i"/><use x="211.035156" xlink:href="#i"/></g></g><g><use stroke="#000" stroke-width=".8" x="1260.40409" xlink:href="#l" y="440.779276"/><g transform="matrix(.15 0 0 -.15 1212.203309 446.478104)"><use xlink:href="#f"/><use x="83.789062" xlink:href="#g"/><use x="147.412109" xlink:href="#i"/><use x="211.035156" xlink:href="#i"/></g></g><g><use stroke="#000" stroke-width=".8" x="1260.40409" xlink:href="#l" y="356.167397"/><g transform="matrix(.15 0 0 -.15 1212.203309 361.866225)"><use xlink:href="#f"/><use x="83.789062" xlink:href="#h"/><use x="147.412109" xlink:href="#i"/><use x="211.035156" xlink:href="#i"/></g></g><g><use stroke="#000" stroke-width=".8" x="1260.40409" xlink:href="#l" y="271.555519"/><use transform="matrix(.15 0 0 -.15 1243.86034 277.254347)" xlink:href="#i"/></g><g><use stroke="#000" stroke-width=".8" x="1260.40409" xlink:href="#l" y="186.94364"/><g transform="matrix(.15 0 0 -.15 1224.77284 192.642468)"><use xlink:href="#h"/><use x="63.623047" xlink:href="#i"/><use x="127.246094" xlink:href="#i"/></g></g><g><use stroke="#000" stroke-width=".8" x="1260.40409" xlink:href="#l" y="102.331761"/><g transform="matrix(.15 0 0 -.15 1224.77284 108.030589)"><use xlink:href="#g"/><use x="63.623047" xlink:href="#i"/><use x="127.246094" xlink:href="#i"/></g></g><g><use stroke="#000" stroke-width=".8" x="1260.40409" xlink:href="#l" y="17.719882"/><g transform="matrix(.15 0 0 -.15 1224.77284 23.41871)"><use xlink:href="#j"/><use x="63.623047" xlink:href="#i"/><use x="127.246094" xlink:href="#i"/></g></g><g transform="matrix(0 -.2 -.2 0 1204.043934 291.28125)"><use xlink:href="#n"/><use x="59.179688" xlink:href="#j"/></g></g><path clip-path="url(#c)" d="m1579.423034 203.22982-101.392255 75.732889 42.03177-31.394778 23.582014-17.614108-11.408953 8.521686-20.074925 14.994559-111.751255 83.470334 36.330664-27.136453 27.195493-20.313122-44.632418 33.33728 93.565258-69.886673-66.149055 49.408695 4.189673-3.12939-75.042608 56.051554 24.417739-18.238335 113.936923-85.102875 54.324339-40.576463-224.210557 167.46953 131.895795-98.516891 58.884916-43.982894-82.627309 61.716793-28.441284 21.243641 63.595007-47.501001-89.866705 67.124113 71.315146-53.267402-74.232796 55.446682 96.49775-72.077038-94.180029 70.345863 207.864235-155.259976-90.557374 67.639995-48.753914 36.415747-50.185952 37.485379 83.971038-62.720464 59.770167-44.644114-43.499572 32.491123-109.779526 81.997592 126.478929-94.470872 90.657914-67.715091-108.915281 81.352061-77.816154 58.123198 92.062277-68.764051-69.748649 52.09734 40.032845-29.901723-24.560646 18.345077-1.785334 1.333519-46.017949 34.372174-74.91436 55.955762 143.271852-107.014005 40.212237-30.035715-41.509935 31.005004-.221365.165345-11.399049 8.514288 8.311244-6.207915-18.28753 13.6595 61.156149-45.679346-72.951989 54.490009-55.135401 41.18227 226.841645-169.434767-189.898109 141.840542 149.195381-111.438465-85.926311 64.180916-38.017988 28.396765 48.944035-36.557754 45.5654-34.034152 22.553804-16.846107-30.803393 23.00797-151.603979 113.237519 120.333619-89.880757-186.799272 139.525929 395.068241-295.088213-311.704677 232.821488 95.855535-71.597348-29.583935 22.09712-49.481747 36.959388 59.442909-44.399676-41.171799 30.752441-37.890732 28.301714 68.703348-51.316573 42.910354-32.051019-137.071561 102.382823 171.595882-128.170064-24.880219 18.583775 17.275531-12.903608 80.168203-59.880013-82.34087 61.502843-134.925768 100.780067 156.26163-116.716456 75.339461-56.273283-168.021154 125.499993-198.073974 147.947339 111.696387-83.429351 181.576922-135.625201-97.618937 72.914487 140.684554-105.081476-138.515955 103.461684-11.261421 8.41149-85.704762 64.015435 129.582992-96.789389-42.940626 32.07363 107.360523-80.190766" fill="none" stroke="#ffc0cb" stroke-dasharray="3.7 1.6"/></g><path d="m1260.40409 550.8v-543.6" fill="none" stroke="#000" stroke-linecap="square" stroke-linejoin="miter" stroke-width=".8"/><path d="m1752.757031 550.8v-543.6" fill="none" stroke="#000" stroke-linecap="square" stroke-linejoin="miter" stroke-width=".8"/><path d="m1260.40409 550.8h492.352941" fill="none" stroke="#000" stroke-linecap="square" stroke-linejoin="miter" stroke-width=".8"/><path d="m1260.40409 7.2h492.352941" fill="none" stroke="#000" stroke-linecap="square" stroke-linejoin="miter" stroke-width=".8"/></g></g></svg>