<svg height="602.873438pt" stroke-linejoin="round" viewBox="0 0 1750.413281 602.873438" width="1750.413281pt" xmlns="http://www.w3.org/2000/svg" xmlns:xlink="http://www.w3.org/1999/xlink"><defs stroke-linejoin="round"><clipPath id="a" stroke-linejoin="round"><path d="m69.213281 7.2h1674v543.6h-1674z"/></clipPath><path id="b" d="m0 3.535534c.937635 0 1.836992-.372526 2.5-1.035534s1.035534-1.562365 1.035534-2.5-.372526-1.836992-1.035534-2.5-1.562365-1.035534-2.5-1.035534-1.836992.372526-2.5 1.035534-1.035534 1.562365-1.035534 2.5.372526 1.836992 1.035534 2.5 1.562365 1.035534 2.5 1.035534z" stroke-linejoin="round"/><path id="c" d="m0 0v3.5" stroke="#000" stroke-linejoin="round" stroke-width=".8"/><path id="d" d="m10.59375 35.5h62.59375v-8.296875h-62.59375z" stroke-linejoin="round"/><path id="e" d="m19.1875 8.296875h34.421875v-8.296875h-46.28125v8.296875q5.609375 5.8125 15.296875 15.59375 9.703125 9.796875 12.1875 12.640625 4.734375 5.3125 6.609375 9 1.890625 3.6875 1.890625 7.25 0 5.8125-4.078125 9.46875-4.078125 3.671875-10.625 3.671875-4.640625 0-9.796875-1.609375-5.140625-1.609375-11-4.890625v9.96875q5.953125 2.390625 11.125 3.609375 5.1875 1.21875 9.484375 1.21875 11.328125 0 18.0625-5.671875 6.734375-5.65625 6.734375-15.125 0-4.5-1.6875-8.53125-1.671875-4.015625-6.125-9.484375-1.21875-1.421875-7.765625-8.1875-6.53125-6.765625-18.453125-18.921875z" stroke-linejoin="round"/><path id="f" d="m31.78125 66.40625q-7.609375 0-11.453125-7.5-3.828125-7.484375-3.828125-22.53125 0-14.984375 3.828125-22.484375 3.84375-7.5 11.453125-7.5 7.671875 0 11.5 7.5 3.84375 7.5 3.84375 22.484375 0 15.046875-3.84375 22.53125-3.828125 7.5-11.5 7.5zm0 7.8125q12.265625 0 18.734375-9.703125 6.46875-9.6875 6.46875-28.140625 0-18.40625-6.46875-28.109375-6.46875-9.6875-18.734375-9.6875-12.25 0-18.71875 9.6875-6.46875 9.703125-6.46875 28.109375 0 18.453125 6.46875 28.140625 6.46875 9.703125 18.71875 9.703125z" stroke-linejoin="round"/><path id="g" d="m37.796875 64.3125-24.90625-38.921875h24.90625zm-2.59375 8.59375h12.40625v-47.515625h10.40625v-8.203125h-10.40625v-17.1875h-9.8125v17.1875h-32.90625v9.515625z" stroke-linejoin="round"/><path id="h" d="m33.015625 40.375q-6.640625 0-10.53125-4.546875-3.875-4.53125-3.875-12.4375 0-7.859375 3.875-12.4375 3.890625-4.5625 10.53125-4.5625 6.640625 0 10.515625 4.5625 3.875 4.578125 3.875 12.4375 0 7.90625-3.875 12.4375-3.875 4.546875-10.515625 4.546875zm19.578125 30.921875v-8.984375q-3.71875 1.75-7.5 2.671875-3.78125.9375-7.5.9375-9.765625 0-14.921875-6.59375-5.140625-6.59375-5.875-19.921875 2.875 4.25 7.21875 6.515625 4.359375 2.265625 9.578125 2.265625 10.984375 0 17.359375-6.671875 6.375-6.65625 6.375-18.125 0-11.234375-6.640625-18.03125-6.640625-6.78125-17.671875-6.78125-12.65625 0-19.34375 9.6875-6.6875 9.703125-6.6875 28.109375 0 17.28125 8.203125 27.5625 8.203125 10.28125 22.015625 10.28125 3.71875 0 7.5-.734375 3.78125-.734375 7.890625-2.1875z" stroke-linejoin="round"/><path id="i" d="m31.78125 34.625q-7.03125 0-11.0625-3.765625-4.015625-3.765625-4.015625-10.34375 0-6.59375 4.015625-10.359375 4.03125-3.765625 11.0625-3.765625 7.03125 0 11.078125 3.78125 4.0625 3.796875 4.0625 10.34375 0 6.578125-4.03125 10.34375-4.015625 3.765625-11.109375 3.765625zm-9.859375 4.1875q-6.34375 1.5625-9.890625 5.90625-3.53125 4.359375-3.53125 10.609375 0 8.734375 6.21875 13.8125 6.234375 5.078125 17.0625 5.078125 10.890625 0 17.09375-5.078125 6.203125-5.078125 6.203125-13.8125 0-6.25-3.546875-10.609375-3.53125-4.34375-9.828125-5.90625 7.125-1.65625 11.09375-6.5 3.984375-4.828125 3.984375-11.796875 0-10.609375-6.46875-16.28125-6.46875-5.65625-18.53125-5.65625-12.046875 0-18.53125 5.65625-6.46875 5.671875-6.46875 16.28125 0 6.96875 4 11.796875 4.015625 4.84375 11.140625 6.5zm-3.609375 15.578125q0-5.65625 3.53125-8.828125 3.546875-3.171875 9.9375-3.171875 6.359375 0 9.9375 3.171875 3.59375 3.171875 3.59375 8.828125 0 5.671875-3.59375 8.84375-3.578125 3.171875-9.9375 3.171875-6.390625 0-9.9375-3.171875-3.53125-3.171875-3.53125-8.84375z" stroke-linejoin="round"/><path id="j" d="m37.109375 75.984375v-7.484375h-8.59375q-4.828125 0-6.71875-1.953125-1.875-1.953125-1.875-7.03125v-4.828125h14.796875v-6.984375h-14.796875v-47.703125h-9.03125v47.703125h-8.59375v6.984375h8.59375v3.8125q0 9.125 4.25 13.296875 4.25 4.1875 13.46875 4.1875z" stroke-linejoin="round"/><path id="k" d="m12.40625 8.296875h16.109375v55.625l-17.53125-3.515625v8.984375l17.4375 3.515625h9.859375v-64.609375h16.109375v-8.296875h-41.984375z" stroke-linejoin="round"/><path id="l" d="m0 0h-3.5" stroke="#000" stroke-linejoin="round" stroke-width=".8"/></defs><g stroke-linejoin="round"><path d="m0 602.873438h1750.413281v-602.873438h-1750.413281z" fill="none"/><g><g stroke-linejoin="round"><path d="m69.213281 550.8h1674v-543.6h-1674z" fill="#fff"/><g><g clip-path="url(#a)"><use fill="#ffc0cb" stroke="#f00" stroke-linejoin="round" x="574.619097" xlink:href="#b" y="196.709696"/></g><g clip-path="url(#a)"><use fill="#fffb96" stroke="#cac200" stroke-linejoin="round" x="1288.150884" xlink:href="#b" y="395.801153"/></g><g clip-path="url(#a)"><use fill="#ffc0cb" stroke="#f00" stroke-linejoin="round" x="378.929853" xlink:href="#b" y="114.924337"/></g><g clip-path="url(#a)"><use fill="#90ee90" stroke="#008000" stroke-linejoin="round" x="1667.122372" xlink:href="#b" y="526.090909"/></g><g clip-path="url(#a)"><use fill="#90ee90" stroke="#008000" stroke-linejoin="round" x="1091.027577" xlink:href="#b" y="287.156407"/></g><g clip-path="url(#a)"><use fill="#ffc0cb" stroke="#f00" stroke-linejoin="round" x="684.930227" xlink:href="#b" y="209.617892"/></g><g clip-path="url(#a)"><use fill="#fffb96" stroke="#cac200" stroke-linejoin="round" x="1196.052123" xlink:href="#b" y="354.99313"/></g><g clip-path="url(#a)"><use fill="#ffc0cb" stroke="#f00" stroke-linejoin="round" x="405.807666" xlink:href="#b" y="99.517341"/></g><g clip-path="url(#a)"><use fill="#fffb96" stroke="#cac200" stroke-linejoin="round" x="1327.677658" xlink:href="#b" y="398.098366"/></g><g clip-path="url(#a)"><use fill="#90ee90" stroke="#008000" stroke-linejoin="round" x="1140.331608" xlink:href="#b" y="281.981164"/></g><g clip-path="url(#a)"><use fill="#ffc0cb" stroke="#f00" stroke-linejoin="round" x="599.318988" xlink:href="#b" y="201.581875"/></g><g clip-path="url(#a)"><use fill="#ffc0cb" stroke="#f00" stroke-linejoin="round" x="313.039565" xlink:href="#b" y="79.15332"/></g><g clip-path="url(#a)"><use fill="#ffc0cb" stroke="#f00" stroke-linejoin="round" x="329.32614" xlink:href="#b" y="96.405791"/></g><g clip-path="url(#a)"><use fill="#90ee90" stroke="#008000" stroke-linejoin="round" x="1474.218077" xlink:href="#b" y="471.528263"/></g><g clip-path="url(#a)"><use fill="#90ee90" stroke="#008000" stroke-linejoin="round" x="1177.229734" xlink:href="#b" y="371.334564"/></g><g clip-path="url(#a)"><use fill="#fffb96" stroke="#cac200" stroke-linejoin="round" x="1100.756549" xlink:href="#b" y="308.795798"/></g><g clip-path="url(#a)"><use fill="#90ee90" stroke="#008000" stroke-linejoin="round" x="1146.28964" xlink:href="#b" y="334.284954"/></g><g clip-path="url(#a)"><use fill="#90ee90" stroke="#008000" stroke-linejoin="round" x="1170.228713" xlink:href="#b" y="318.026505"/></g><g clip-path="url(#a)"><use fill="#ffc0cb" stroke="#f00" stroke-linejoin="round" x="453.113341" xlink:href="#b" y="144.863067"/></g><g clip-path="url(#a)"><use fill="#ffc0cb" stroke="#f00" stroke-linejoin="round" x="626.245804" xlink:href="#b" y="216.460433"/></g><g clip-path="url(#a)"><use fill="#fffb96" stroke="#cac200" stroke-linejoin="round" x="1235.467946" xlink:href="#b" y="392.145064"/></g><g clip-path="url(#a)"><use fill="#90ee90" stroke="#008000" stroke-linejoin="round" x="974.136189" xlink:href="#b" y="247.634922"/></g><g clip-path="url(#a)"><use fill="#90ee90" stroke="#008000" stroke-linejoin="round" x="1285.000527" xlink:href="#b" y="385.355822"/></g><g clip-path="url(#a)"><use fill="#ffc0cb" stroke="#f00" stroke-linejoin="round" x="615.938669" xlink:href="#b" y="147.7787"/></g><g clip-path="url(#a)"><use fill="#90ee90" stroke="#008000" stroke-linejoin="round" x="1264.353723" xlink:href="#b" y="389.634794"/></g><g clip-path="url(#a)"><use fill="#fffb96" stroke="#cac200" stroke-linejoin="round" x="1089.074105" xlink:href="#b" y="317.139907"/></g><g clip-path="url(#a)"><use fill="#fffb96" stroke="#cac200" stroke-linejoin="round" x="1035.350576" xlink:href="#b" y="276.309002"/></g><g clip-path="url(#a)"><use fill="#fffb96" stroke="#cac200" stroke-linejoin="round" x="1069.258022" xlink:href="#b" y="334.944874"/></g><g clip-path="url(#a)"><use fill="#ffc0cb" stroke="#f00" stroke-linejoin="round" x="549.201687" xlink:href="#b" y="123.056806"/></g><g clip-path="url(#a)"><use fill="#ffc0cb" stroke="#f00" stroke-linejoin="round" x="514.712041" xlink:href="#b" y="164.953384"/></g><g clip-path="url(#a)"><use fill="#fffb96" stroke="#cac200" stroke-linejoin="round" x="1263.940935" xlink:href="#b" y="329.280703"/></g><g clip-path="url(#a)"><use fill="#fffb96" stroke="#cac200" stroke-linejoin="round" x="1315.801417" xlink:href="#b" y="397.428982"/></g><g clip-path="url(#a)"><use fill="#ffc0cb" stroke="#f00" stroke-linejoin="round" x="352.423105" xlink:href="#b" y="74.297153"/></g><g clip-path="url(#a)"><use fill="#fffb96" stroke="#cac200" stroke-linejoin="round" x="1357.51067" xlink:href="#b" y="431.986151"/></g><g clip-path="url(#a)"><use fill="#90ee90" stroke="#008000" stroke-linejoin="round" x="1382.190999" xlink:href="#b" y="414.860113"/></g><g clip-path="url(#a)"><use fill="#fffb96" stroke="#cac200" stroke-linejoin="round" x="1220.456322" xlink:href="#b" y="350.958648"/></g><g clip-path="url(#a)"><use fill="#fffb96" stroke="#cac200" stroke-linejoin="round" x="1225.434145" xlink:href="#b" y="354.681599"/></g><g clip-path="url(#a)"><use fill="#90ee90" stroke="#008000" stroke-linejoin="round" x="1263.558525" xlink:href="#b" y="386.371056"/></g><g clip-path="url(#a)"><use fill="#90ee90" stroke="#008000" stroke-linejoin="round" x="1248.939832" xlink:href="#b" y="369.305606"/></g><g clip-path="url(#a)"><use fill="#90ee90" stroke="#008000" stroke-linejoin="round" x="1336.529988" xlink:href="#b" y="368.649487"/></g><g clip-path="url(#a)"><use fill="#ffc0cb" stroke="#f00" stroke-linejoin="round" x="322.805199" xlink:href="#b" y="90.379175"/></g><g clip-path="url(#a)"><use fill="#90ee90" stroke="#008000" stroke-linejoin="round" x="1395.446631" xlink:href="#b" y="432.370961"/></g><g clip-path="url(#a)"><use fill="#ffc0cb" stroke="#f00" stroke-linejoin="round" x="240.620435" xlink:href="#b" y="31.909091"/></g><g clip-path="url(#a)"><use fill="#fffb96" stroke="#cac200" stroke-linejoin="round" x="1216.759858" xlink:href="#b" y="340.884628"/></g><g clip-path="url(#a)"><use fill="#fffb96" stroke="#cac200" stroke-linejoin="round" x="1291.371096" xlink:href="#b" y="371.637163"/></g><g clip-path="url(#a)"><use fill="#90ee90" stroke="#008000" stroke-linejoin="round" x="1410.497731" xlink:href="#b" y="434.732887"/></g><g clip-path="url(#a)"><use fill="#ffc0cb" stroke="#f00" stroke-linejoin="round" x="145.30419" xlink:href="#b" y="38.009036"/></g><g clip-path="url(#a)"><use fill="#fffb96" stroke="#cac200" stroke-linejoin="round" x="1233.56081" xlink:href="#b" y="351.413601"/></g><g clip-path="url(#a)"><use fill="#ffc0cb" stroke="#f00" stroke-linejoin="round" x="517.894523" xlink:href="#b" y="161.150424"/></g><g clip-path="url(#a)"><use fill="#90ee90" stroke="#008000" stroke-linejoin="round" x="1346.321724" xlink:href="#b" y="418.35571"/></g></g><g><g><use stroke="#000" stroke-width=".8" x="222.655188" xlink:href="#c" y="550.8"/><g transform="matrix(.15 0 0 -.15 211.598547 569.197656)"><use xlink:href="#d"/><use x="83.789062" xlink:href="#e"/></g></g><g><use stroke="#000" stroke-width=".8" x="510.546725" xlink:href="#c" y="550.8"/><use transform="matrix(.15 0 0 -.15 505.77485 569.197656)" xlink:href="#f"/></g><g><use stroke="#000" stroke-width=".8" x="798.438262" xlink:href="#c" y="550.8"/><use transform="matrix(.15 0 0 -.15 793.666387 569.197656)" xlink:href="#e"/></g><g><use stroke="#000" stroke-width=".8" x="1086.329799" xlink:href="#c" y="550.8"/><use transform="matrix(.15 0 0 -.15 1081.557924 569.197656)" xlink:href="#g"/></g><g><use stroke="#000" stroke-width=".8" x="1374.221337" xlink:href="#c" y="550.8"/><use transform="matrix(.15 0 0 -.15 1369.449462 569.197656)" xlink:href="#h"/></g><g><use stroke="#000" stroke-width=".8" x="1662.112874" xlink:href="#c" y="550.8"/><use transform="matrix(.15 0 0 -.15 1657.340999 569.197656)" xlink:href="#i"/></g><g transform="matrix(.2 0 0 -.2 896.330469 591.514063)"><use xlink:href="#j"/><use x="35.205078" xlink:href="#k"/></g></g><g><g><use stroke="#000" stroke-width=".8" x="69.213281" xlink:href="#l" y="497.510601"/><g transform="matrix(.15 0 0 -.15 30.55625 503.209429)"><use xlink:href="#d"/><use x="83.789062" xlink:href="#k"/><use x="147.412109" xlink:href="#f"/></g></g><g><use stroke="#000" stroke-width=".8" x="69.213281" xlink:href="#l" y="420.059293"/><g transform="matrix(.15 0 0 -.15 40.1 425.758121)"><use xlink:href="#d"/><use x="83.789062" xlink:href="#i"/></g></g><g><use stroke="#000" stroke-width=".8" x="69.213281" xlink:href="#l" y="342.607986"/><g transform="matrix(.15 0 0 -.15 40.1 348.306814)"><use xlink:href="#d"/><use x="83.789062" xlink:href="#h"/></g></g><g><use stroke="#000" stroke-width=".8" x="69.213281" xlink:href="#l" y="265.156679"/><g transform="matrix(.15 0 0 -.15 40.1 270.855507)"><use xlink:href="#d"/><use x="83.789062" xlink:href="#g"/></g></g><g><use stroke="#000" stroke-width=".8" x="69.213281" xlink:href="#l" y="187.705371"/><g transform="matrix(.15 0 0 -.15 40.1 193.4042)"><use xlink:href="#d"/><use x="83.789062" xlink:href="#e"/></g></g><g><use stroke="#000" stroke-width=".8" x="69.213281" xlink:href="#l" y="110.254064"/><use transform="matrix(.15 0 0 -.15 52.669531 115.952892)" xlink:href="#f"/></g><g><use stroke="#000" stroke-width=".8" x="69.213281" xlink:href="#l" y="32.802757"/><use transform="matrix(.15 0 0 -.15 52.669531 38.501585)" xlink:href="#e"/></g><g transform="matrix(0 -.2 -.2 0 22.396875 288.882812)"><use xlink:href="#j"/><use x="35.205078" xlink:href="#e"/></g></g></g><path d="m69.213281 550.8v-543.6" fill="none" stroke="#000" stroke-linecap="square" stroke-linejoin="miter" stroke-width=".8"/><path d="m1743.213281 550.8v-543.6" fill="none" stroke="#000" stroke-linecap="square" stroke-linejoin="miter" stroke-width=".8"/><path d="m69.213281 550.8h1674" fill="none" stroke="#000" stroke-linecap="square" stroke-linejoin="miter" stroke-width=".8"/><path d="m69.213281 7.2h1674" fill="none" stroke="#000" stroke-linecap="square" stroke-linejoin="miter" stroke-width=".8"/></g></g></svg>