<svg height="602.873438pt" stroke-linejoin="round" viewBox="0 0 1764.724219 602.873438" width="1764.724219pt" xmlns="http://www.w3.org/2000/svg" xmlns:xlink="http://www.w3.org/1999/xlink"><defs stroke-linejoin="round"><clipPath id="a" stroke-linejoin="round"><path d="m83.524219 7.2h1674v543.6h-1674z"/></clipPath><path id="b" d="m0 3.535534c.937635 0 1.836992-.372526 2.5-1.035534s1.035534-1.562365 1.035534-2.5-.372526-1.836992-1.035534-2.5-1.562365-1.035534-2.5-1.035534-1.836992.372526-2.5 1.035534-1.035534 1.562365-1.035534 2.5.372526 1.836992 1.035534 2.5 1.562365 1.035534 2.5 1.035534z" stroke-linejoin="round"/><path id="c" d="m0 0v3.5" stroke="#000" stroke-linejoin="round" stroke-width=".8"/><path id="d" d="m10.59375 35.5h62.59375v-8.296875h-62.59375z" stroke-linejoin="round"/><path id="e" d="m12.40625 8.296875h16.109375v55.625l-17.53125-3.515625v8.984375l17.4375 3.515625h9.859375v-64.609375h16.109375v-8.296875h-41.984375z" stroke-linejoin="round"/><path id="f" d="m10.6875 12.40625h10.3125v-12.40625h-10.3125z" stroke-linejoin="round"/><path id="g" d="m31.78125 66.40625q-7.609375 0-11.453125-7.5-3.828125-7.484375-3.828125-22.53125 0-14.984375 3.828125-22.484375 3.84375-7.5 11.453125-7.5 7.671875 0 11.5 7.5 3.84375 7.5 3.84375 22.484375 0 15.046875-3.84375 22.53125-3.828125 7.5-11.5 7.5zm0 7.8125q12.265625 0 18.734375-9.703125 6.46875-9.6875 6.46875-28.140625 0-18.40625-6.46875-28.109375-6.46875-9.6875-18.734375-9.6875-12.25 0-18.71875 9.6875-6.46875 9.703125-6.46875 28.109375 0 18.453125 6.46875 28.140625 6.46875 9.703125 18.71875 9.703125z" stroke-linejoin="round"/><path id="h" d="m10.796875 72.90625h38.71875v-8.3125h-29.6875v-17.859375q2.140625.734375 4.28125 1.09375 2.15625.359375 4.3125.359375 12.203125 0 19.328125-6.6875 7.140625-6.6875 7.140625-18.109375 0-11.765625-7.328125-18.296875-7.328125-6.515625-20.65625-6.515625-4.59375 0-9.359375.78125-4.75.78125-9.828125 2.34375v9.921875q4.390625-2.390625 9.078125-3.5625 4.6875-1.171875 9.90625-1.171875 8.453125 0 13.375 4.4375 4.9375 4.4375 4.9375 12.0625 0 7.609375-4.9375 12.046875-4.921875 4.453125-13.375 4.453125-3.953125 0-7.890625-.875-3.921875-.875-8.015625-2.734375z" stroke-linejoin="round"/><path id="i" d="m19.1875 8.296875h34.421875v-8.296875h-46.28125v8.296875q5.609375 5.8125 15.296875 15.59375 9.703125 9.796875 12.1875 12.640625 4.734375 5.3125 6.609375 9 1.890625 3.6875 1.890625 7.25 0 5.8125-4.078125 9.46875-4.078125 3.671875-10.625 3.671875-4.640625 0-9.796875-1.609375-5.140625-1.609375-11-4.890625v9.96875q5.953125 2.390625 11.125 3.609375 5.1875 1.21875 9.484375 1.21875 11.328125 0 18.0625-5.671875 6.734375-5.65625 6.734375-15.125 0-4.5-1.6875-8.53125-1.671875-4.015625-6.125-9.484375-1.21875-1.421875-7.765625-8.1875-6.53125-6.765625-18.453125-18.921875z" stroke-linejoin="round"/><path id="j" d="m37.109375 75.984375v-7.484375h-8.59375q-4.828125 0-6.71875-1.953125-1.875-1.953125-1.875-7.03125v-4.828125h14.796875v-6.984375h-14.796875v-47.703125h-9.03125v47.703125h-8.59375v6.984375h8.59375v3.8125q0 9.125 4.25 13.296875 4.25 4.1875 13.46875 4.1875z" stroke-linejoin="round"/><path id="k" d="m0 0h-3.5" stroke="#000" stroke-linejoin="round" stroke-width=".8"/></defs><g stroke-linejoin="round"><path d="m0 602.873438h1764.724219v-602.873438h-1764.724219z" fill="none"/><g><g stroke-linejoin="round"><path d="m83.524219 550.8h1674v-543.6h-1674z" fill="#fff"/><g><g clip-path="url(#a)"><use fill="#ffc0cb" stroke="#f00" stroke-linejoin="round" x="674.132856" xlink:href="#b" y="62.891933"/></g><g clip-path="url(#a)"><use fill="#90ee90" stroke="#008000" stroke-linejoin="round" x="1252.587435" xlink:href="#b" y="460.895005"/></g><g clip-path="url(#a)"><use fill="#90ee90" stroke="#008000" stroke-linejoin="round" x="1362.444476" xlink:href="#b" y="428.904158"/></g><g clip-path="url(#a)"><use fill="#90ee90" stroke="#008000" stroke-linejoin="round" x="951.614306" xlink:href="#b" y="464.050146"/></g><g clip-path="url(#a)"><use fill="#90ee90" stroke="#008000" stroke-linejoin="round" x="1215.851565" xlink:href="#b" y="437.033792"/></g><g clip-path="url(#a)"><use fill="#ffc0cb" stroke="#f00" stroke-linejoin="round" x="248.355283" xlink:href="#b" y="85.533361"/></g><g clip-path="url(#a)"><use fill="#ffc0cb" stroke="#f00" stroke-linejoin="round" x="1120.814717" xlink:href="#b" y="354.277834"/></g><g clip-path="url(#a)"><use fill="#90ee90" stroke="#008000" stroke-linejoin="round" x="612.223869" xlink:href="#b" y="306.039747"/></g><g clip-path="url(#a)"><use fill="#ffc0cb" stroke="#f00" stroke-linejoin="round" x="842.819509" xlink:href="#b" y="50.994532"/></g><g clip-path="url(#a)"><use fill="#ffc0cb" stroke="#f00" stroke-linejoin="round" x="889.517557" xlink:href="#b" y="77.43781"/></g><g clip-path="url(#a)"><use fill="#90ee90" stroke="#008000" stroke-linejoin="round" x="1110.599996" xlink:href="#b" y="501.363523"/></g><g clip-path="url(#a)"><use fill="#ffc0cb" stroke="#f00" stroke-linejoin="round" x="649.775423" xlink:href="#b" y="57.814287"/></g><g clip-path="url(#a)"><use fill="#90ee90" stroke="#008000" stroke-linejoin="round" x="1113.840629" xlink:href="#b" y="466.78742"/></g><g clip-path="url(#a)"><use fill="#90ee90" stroke="#008000" stroke-linejoin="round" x="1480.923282" xlink:href="#b" y="452.593331"/></g><g clip-path="url(#a)"><use fill="#90ee90" stroke="#008000" stroke-linejoin="round" x="1542.318826" xlink:href="#b" y="350.515711"/></g><g clip-path="url(#a)"><use fill="#ffc0cb" stroke="#f00" stroke-linejoin="round" x="556.156406" xlink:href="#b" y="118.364189"/></g><g clip-path="url(#a)"><use fill="#ffc0cb" stroke="#f00" stroke-linejoin="round" x="1181.072174" xlink:href="#b" y="211.977237"/></g><g clip-path="url(#a)"><use fill="#90ee90" stroke="#008000" stroke-linejoin="round" x="902.171755" xlink:href="#b" y="469.84554"/></g><g clip-path="url(#a)"><use fill="#ffc0cb" stroke="#f00" stroke-linejoin="round" x="215.94494" xlink:href="#b" y="195.325395"/></g><g clip-path="url(#a)"><use fill="#90ee90" stroke="#008000" stroke-linejoin="round" x="1522.474494" xlink:href="#b" y="285.525567"/></g><g clip-path="url(#a)"><use fill="#90ee90" stroke="#008000" stroke-linejoin="round" x="1480.857145" xlink:href="#b" y="451.644415"/></g><g clip-path="url(#a)"><use fill="#ffc0cb" stroke="#f00" stroke-linejoin="round" x="497.726883" xlink:href="#b" y="43.60189"/></g><g clip-path="url(#a)"><use fill="#ffc0cb" stroke="#f00" stroke-linejoin="round" x="1067.220486" xlink:href="#b" y="187.171486"/></g><g clip-path="url(#a)"><use fill="#ffc0cb" stroke="#f00" stroke-linejoin="round" x="1027.294235" xlink:href="#b" y="165.106372"/></g><g clip-path="url(#a)"><use fill="#90ee90" stroke="#008000" stroke-linejoin="round" x="792.054938" xlink:href="#b" y="412.906562"/></g><g clip-path="url(#a)"><use fill="#ffc0cb" stroke="#f00" stroke-linejoin="round" x="1119.065237" xlink:href="#b" y="278.348886"/></g><g clip-path="url(#a)"><use fill="#90ee90" stroke="#008000" stroke-linejoin="round" x="662.301325" xlink:href="#b" y="280.800997"/></g><g clip-path="url(#a)"><use fill="#ffc0cb" stroke="#f00" stroke-linejoin="round" x="1075.245545" xlink:href="#b" y="233.309719"/></g><g clip-path="url(#a)"><use fill="#90ee90" stroke="#008000" stroke-linejoin="round" x="1302.597496" xlink:href="#b" y="468.869602"/></g><g clip-path="url(#a)"><use fill="#90ee90" stroke="#008000" stroke-linejoin="round" x="1588.753288" xlink:href="#b" y="199.338922"/></g><g clip-path="url(#a)"><use fill="#90ee90" stroke="#008000" stroke-linejoin="round" x="1622.522137" xlink:href="#b" y="272.070921"/></g><g clip-path="url(#a)"><use fill="#ffc0cb" stroke="#f00" stroke-linejoin="round" x="739.435691" xlink:href="#b" y="33.856026"/></g><g clip-path="url(#a)"><use fill="#ffc0cb" stroke="#f00" stroke-linejoin="round" x="1155.9179" xlink:href="#b" y="195.494049"/></g><g clip-path="url(#a)"><use fill="#90ee90" stroke="#008000" stroke-linejoin="round" x="823.995433" xlink:href="#b" y="351.303084"/></g><g clip-path="url(#a)"><use fill="#ffc0cb" stroke="#f00" stroke-linejoin="round" x="626.542772" xlink:href="#b" y="82.516044"/></g><g clip-path="url(#a)"><use fill="#90ee90" stroke="#008000" stroke-linejoin="round" x="1300.619854" xlink:href="#b" y="456.120523"/></g><g clip-path="url(#a)"><use fill="#ffc0cb" stroke="#f00" stroke-linejoin="round" x="767.881233" xlink:href="#b" y="75.225751"/></g><g clip-path="url(#a)"><use fill="#90ee90" stroke="#008000" stroke-linejoin="round" x="791.386961" xlink:href="#b" y="449.300691"/></g><g clip-path="url(#a)"><use fill="#ffc0cb" stroke="#f00" stroke-linejoin="round" x="199.12186" xlink:href="#b" y="298.389339"/></g><g clip-path="url(#a)"><use fill="#ffc0cb" stroke="#f00" stroke-linejoin="round" x="943.457307" xlink:href="#b" y="75.274783"/></g><g clip-path="url(#a)"><use fill="#90ee90" stroke="#008000" stroke-linejoin="round" x="1172.194183" xlink:href="#b" y="454.912433"/></g><g clip-path="url(#a)"><use fill="#90ee90" stroke="#008000" stroke-linejoin="round" x="1492.044268" xlink:href="#b" y="455.158114"/></g><g clip-path="url(#a)"><use fill="#90ee90" stroke="#008000" stroke-linejoin="round" x="707.573162" xlink:href="#b" y="312.40138"/></g><g clip-path="url(#a)"><use fill="#90ee90" stroke="#008000" stroke-linejoin="round" x="620.544411" xlink:href="#b" y="196.264276"/></g><g clip-path="url(#a)"><use fill="#ffc0cb" stroke="#f00" stroke-linejoin="round" x="212.577352" xlink:href="#b" y="287.624258"/></g><g clip-path="url(#a)"><use fill="#ffc0cb" stroke="#f00" stroke-linejoin="round" x="368.23732" xlink:href="#b" y="130.947126"/></g><g clip-path="url(#a)"><use fill="#90ee90" stroke="#008000" stroke-linejoin="round" x="1681.43331" xlink:href="#b" y="163.281775"/></g><g clip-path="url(#a)"><use fill="#90ee90" stroke="#008000" stroke-linejoin="round" x="1527.719262" xlink:href="#b" y="419.698184"/></g><g clip-path="url(#a)"><use fill="#90ee90" stroke="#008000" stroke-linejoin="round" x="1301.942042" xlink:href="#b" y="487.777688"/></g><g clip-path="url(#a)"><use fill="#ffc0cb" stroke="#f00" stroke-linejoin="round" x="1130.05821" xlink:href="#b" y="341.607159"/></g><g clip-path="url(#a)"><use fill="#ffc0cb" stroke="#f00" stroke-linejoin="round" x="983.891351" xlink:href="#b" y="109.758288"/></g><g clip-path="url(#a)"><use fill="#ffc0cb" stroke="#f00" stroke-linejoin="round" x="560.53853" xlink:href="#b" y="69.768259"/></g><g clip-path="url(#a)"><use fill="#90ee90" stroke="#008000" stroke-linejoin="round" x="1578.73337" xlink:href="#b" y="279.00473"/></g><g clip-path="url(#a)"><use fill="#ffc0cb" stroke="#f00" stroke-linejoin="round" x="322.006196" xlink:href="#b" y="151.416579"/></g><g clip-path="url(#a)"><use fill="#ffc0cb" stroke="#f00" stroke-linejoin="round" x="640.506552" xlink:href="#b" y="81.426471"/></g><g clip-path="url(#a)"><use fill="#ffc0cb" stroke="#f00" stroke-linejoin="round" x="962.349667" xlink:href="#b" y="92.909119"/></g><g clip-path="url(#a)"><use fill="#90ee90" stroke="#008000" stroke-linejoin="round" x="656.997726" xlink:href="#b" y="308.398225"/></g><g clip-path="url(#a)"><use fill="#ffc0cb" stroke="#f00" stroke-linejoin="round" x="408.870853" xlink:href="#b" y="98.937555"/></g><g clip-path="url(#a)"><use fill="#ffc0cb" stroke="#f00" stroke-linejoin="round" x="405.058395" xlink:href="#b" y="136.821727"/></g><g clip-path="url(#a)"><use fill="#ffc0cb" stroke="#f00" stroke-linejoin="round" x="159.615128" xlink:href="#b" y="249.405474"/></g><g clip-path="url(#a)"><use fill="#ffc0cb" stroke="#f00" stroke-linejoin="round" x="1102.750776" xlink:href="#b" y="121.02409"/></g><g clip-path="url(#a)"><use fill="#ffc0cb" stroke="#f00" stroke-linejoin="round" x="1141.816199" xlink:href="#b" y="280.911254"/></g><g clip-path="url(#a)"><use fill="#90ee90" stroke="#008000" stroke-linejoin="round" x="1597.277701" xlink:href="#b" y="303.428013"/></g><g clip-path="url(#a)"><use fill="#90ee90" stroke="#008000" stroke-linejoin="round" x="1635.107558" xlink:href="#b" y="281.613245"/></g><g clip-path="url(#a)"><use fill="#90ee90" stroke="#008000" stroke-linejoin="round" x="757.023418" xlink:href="#b" y="341.717576"/></g><g clip-path="url(#a)"><use fill="#90ee90" stroke="#008000" stroke-linejoin="round" x="1044.447089" xlink:href="#b" y="495.973382"/></g><g clip-path="url(#a)"><use fill="#ffc0cb" stroke="#f00" stroke-linejoin="round" x="318.641779" xlink:href="#b" y="247.993596"/></g><g clip-path="url(#a)"><use fill="#ffc0cb" stroke="#f00" stroke-linejoin="round" x="1211.989816" xlink:href="#b" y="338.295498"/></g><g clip-path="url(#a)"><use fill="#90ee90" stroke="#008000" stroke-linejoin="round" x="838.009056" xlink:href="#b" y="451.313489"/></g><g clip-path="url(#a)"><use fill="#ffc0cb" stroke="#f00" stroke-linejoin="round" x="382.078757" xlink:href="#b" y="64.96786"/></g><g clip-path="url(#a)"><use fill="#ffc0cb" stroke="#f00" stroke-linejoin="round" x="916.086039" xlink:href="#b" y="108.458705"/></g><g clip-path="url(#a)"><use fill="#90ee90" stroke="#008000" stroke-linejoin="round" x="1603.415531" xlink:href="#b" y="319.055432"/></g><g clip-path="url(#a)"><use fill="#90ee90" stroke="#008000" stroke-linejoin="round" x="742.232223" xlink:href="#b" y="335.834987"/></g><g clip-path="url(#a)"><use fill="#ffc0cb" stroke="#f00" stroke-linejoin="round" x="433.087992" xlink:href="#b" y="107.977053"/></g><g clip-path="url(#a)"><use fill="#ffc0cb" stroke="#f00" stroke-linejoin="round" x="875.747225" xlink:href="#b" y="47.938264"/></g><g clip-path="url(#a)"><use fill="#90ee90" stroke="#008000" stroke-linejoin="round" x="678.400569" xlink:href="#b" y="315.95824"/></g><g clip-path="url(#a)"><use fill="#90ee90" stroke="#008000" stroke-linejoin="round" x="799.555773" xlink:href="#b" y="345.628676"/></g><g clip-path="url(#a)"><use fill="#ffc0cb" stroke="#f00" stroke-linejoin="round" x="210.749254" xlink:href="#b" y="193.110314"/></g><g clip-path="url(#a)"><use fill="#ffc0cb" stroke="#f00" stroke-linejoin="round" x="226.353036" xlink:href="#b" y="334.898672"/></g><g clip-path="url(#a)"><use fill="#ffc0cb" stroke="#f00" stroke-linejoin="round" x="817.43162" xlink:href="#b" y="31.909091"/></g><g clip-path="url(#a)"><use fill="#90ee90" stroke="#008000" stroke-linejoin="round" x="1438.348634" xlink:href="#b" y="391.680244"/></g><g clip-path="url(#a)"><use fill="#90ee90" stroke="#008000" stroke-linejoin="round" x="836.665215" xlink:href="#b" y="427.767224"/></g><g clip-path="url(#a)"><use fill="#90ee90" stroke="#008000" stroke-linejoin="round" x="958.280343" xlink:href="#b" y="428.430829"/></g><g clip-path="url(#a)"><use fill="#90ee90" stroke="#008000" stroke-linejoin="round" x="1168.017501" xlink:href="#b" y="484.092933"/></g><g clip-path="url(#a)"><use fill="#90ee90" stroke="#008000" stroke-linejoin="round" x="976.133302" xlink:href="#b" y="429.404917"/></g><g clip-path="url(#a)"><use fill="#ffc0cb" stroke="#f00" stroke-linejoin="round" x="182.317675" xlink:href="#b" y="381.319105"/></g><g clip-path="url(#a)"><use fill="#ffc0cb" stroke="#f00" stroke-linejoin="round" x="1034.84521" xlink:href="#b" y="107.212999"/></g><g clip-path="url(#a)"><use fill="#ffc0cb" stroke="#f00" stroke-linejoin="round" x="279.721639" xlink:href="#b" y="293.887609"/></g><g clip-path="url(#a)"><use fill="#ffc0cb" stroke="#f00" stroke-linejoin="round" x="1189.938662" xlink:href="#b" y="243.254715"/></g><g clip-path="url(#a)"><use fill="#90ee90" stroke="#008000" stroke-linejoin="round" x="686.189372" xlink:href="#b" y="170.825595"/></g><g clip-path="url(#a)"><use fill="#ffc0cb" stroke="#f00" stroke-linejoin="round" x="740.02105" xlink:href="#b" y="77.809405"/></g><g clip-path="url(#a)"><use fill="#90ee90" stroke="#008000" stroke-linejoin="round" x="1550.145133" xlink:href="#b" y="371.000844"/></g><g clip-path="url(#a)"><use fill="#ffc0cb" stroke="#f00" stroke-linejoin="round" x="320.207675" xlink:href="#b" y="199.842143"/></g><g clip-path="url(#a)"><use fill="#90ee90" stroke="#008000" stroke-linejoin="round" x="1559.750594" xlink:href="#b" y="318.219487"/></g><g clip-path="url(#a)"><use fill="#90ee90" stroke="#008000" stroke-linejoin="round" x="1156.416575" xlink:href="#b" y="526.090909"/></g><g clip-path="url(#a)"><use fill="#ffc0cb" stroke="#f00" stroke-linejoin="round" x="439.665417" xlink:href="#b" y="72.464692"/></g><g clip-path="url(#a)"><use fill="#90ee90" stroke="#008000" stroke-linejoin="round" x="750.801292" xlink:href="#b" y="270.211496"/></g><g clip-path="url(#a)"><use fill="#90ee90" stroke="#008000" stroke-linejoin="round" x="1086.652719" xlink:href="#b" y="487.790151"/></g><g clip-path="url(#a)"><use fill="#ffc0cb" stroke="#f00" stroke-linejoin="round" x="255.100828" xlink:href="#b" y="210.083536"/></g><g clip-path="url(#a)"><use fill="#90ee90" stroke="#008000" stroke-linejoin="round" x="1369.154403" xlink:href="#b" y="445.357351"/></g></g><g><g><use stroke="#000" stroke-width=".8" x="190.80031" xlink:href="#c" y="550.8"/><g transform="matrix(.15 0 0 -.15 172.588201 569.197656)"><use xlink:href="#d"/><use x="83.789062" xlink:href="#e"/><use x="147.412109" xlink:href="#f"/><use x="179.199219" xlink:href="#g"/></g></g><g><use stroke="#000" stroke-width=".8" x="428.300794" xlink:href="#c" y="550.8"/><g transform="matrix(.15 0 0 -.15 410.088685 569.197656)"><use xlink:href="#d"/><use x="83.789062" xlink:href="#g"/><use x="147.412109" xlink:href="#f"/><use x="179.199219" xlink:href="#h"/></g></g><g><use stroke="#000" stroke-width=".8" x="665.801278" xlink:href="#c" y="550.8"/><g transform="matrix(.15 0 0 -.15 653.873935 569.197656)"><use xlink:href="#g"/><use x="63.623047" xlink:href="#f"/><use x="95.410156" xlink:href="#g"/></g></g><g><use stroke="#000" stroke-width=".8" x="903.301762" xlink:href="#c" y="550.8"/><g transform="matrix(.15 0 0 -.15 891.374419 569.197656)"><use xlink:href="#g"/><use x="63.623047" xlink:href="#f"/><use x="95.410156" xlink:href="#h"/></g></g><g><use stroke="#000" stroke-width=".8" x="1140.802246" xlink:href="#c" y="550.8"/><g transform="matrix(.15 0 0 -.15 1128.874903 569.197656)"><use xlink:href="#e"/><use x="63.623047" xlink:href="#f"/><use x="95.410156" xlink:href="#g"/></g></g><g><use stroke="#000" stroke-width=".8" x="1378.30273" xlink:href="#c" y="550.8"/><g transform="matrix(.15 0 0 -.15 1366.375387 569.197656)"><use xlink:href="#e"/><use x="63.623047" xlink:href="#f"/><use x="95.410156" xlink:href="#h"/></g></g><g><use stroke="#000" stroke-width=".8" x="1615.803215" xlink:href="#c" y="550.8"/><g transform="matrix(.15 0 0 -.15 1603.875871 569.197656)"><use xlink:href="#i"/><use x="63.623047" xlink:href="#f"/><use x="95.410156" xlink:href="#g"/></g></g><g transform="matrix(.2 0 0 -.2 910.641406 591.514063)"><use xlink:href="#j"/><use x="35.205078" xlink:href="#e"/></g></g><g><g><use stroke="#000" stroke-width=".8" x="83.524219" xlink:href="#k" y="484.512865"/><g transform="matrix(.15 0 0 -.15 30.55625 490.211694)"><use xlink:href="#d"/><use x="83.789062" xlink:href="#g"/><use x="147.412109" xlink:href="#f"/><use x="179.199219" xlink:href="#h"/><use x="242.822266" xlink:href="#g"/></g></g><g><use stroke="#000" stroke-width=".8" x="83.524219" xlink:href="#k" y="411.934114"/><g transform="matrix(.15 0 0 -.15 30.55625 417.632942)"><use xlink:href="#d"/><use x="83.789062" xlink:href="#g"/><use x="147.412109" xlink:href="#f"/><use x="179.199219" xlink:href="#i"/><use x="242.822266" xlink:href="#h"/></g></g><g><use stroke="#000" stroke-width=".8" x="83.524219" xlink:href="#k" y="339.355362"/><g transform="matrix(.15 0 0 -.15 43.125781 345.05419)"><use xlink:href="#g"/><use x="63.623047" xlink:href="#f"/><use x="95.410156" xlink:href="#g"/><use x="159.033203" xlink:href="#g"/></g></g><g><use stroke="#000" stroke-width=".8" x="83.524219" xlink:href="#k" y="266.77661"/><g transform="matrix(.15 0 0 -.15 43.125781 272.475438)"><use xlink:href="#g"/><use x="63.623047" xlink:href="#f"/><use x="95.410156" xlink:href="#i"/><use x="159.033203" xlink:href="#h"/></g></g><g><use stroke="#000" stroke-width=".8" x="83.524219" xlink:href="#k" y="194.197858"/><g transform="matrix(.15 0 0 -.15 43.125781 199.896686)"><use xlink:href="#g"/><use x="63.623047" xlink:href="#f"/><use x="95.410156" xlink:href="#h"/><use x="159.033203" xlink:href="#g"/></g></g><g><use stroke="#000" stroke-width=".8" x="83.524219" xlink:href="#k" y="121.619106"/><g transform="matrix(.15 0 0 -.15 43.125781 127.317934)"><use xlink:href="#g"/><use x="63.623047" xlink:href="#f"/><path d="m8.203125 72.90625h46.875v-4.203125l-26.46875-68.703125h-10.296875l24.90625 64.59375h-35.015625z" transform="translate(95.410156)"/><use x="159.033203" xlink:href="#h"/></g></g><g><use stroke="#000" stroke-width=".8" x="83.524219" xlink:href="#k" y="49.040354"/><g transform="matrix(.15 0 0 -.15 43.125781 54.739182)"><use xlink:href="#e"/><use x="63.623047" xlink:href="#f"/><use x="95.410156" xlink:href="#g"/><use x="159.033203" xlink:href="#g"/></g></g><g transform="matrix(0 -.2 -.2 0 22.396875 288.882812)"><use xlink:href="#j"/><use x="35.205078" xlink:href="#i"/></g></g></g><path d="m83.524219 550.8v-543.6" fill="none" stroke="#000" stroke-linecap="square" stroke-linejoin="miter" stroke-width=".8"/><path d="m1757.524219 550.8v-543.6" fill="none" stroke="#000" stroke-linecap="square" stroke-linejoin="miter" stroke-width=".8"/><path d="m83.524219 550.8h1674" fill="none" stroke="#000" stroke-linecap="square" stroke-linejoin="miter" stroke-width=".8"/><path d="m83.524219 7.2h1674" fill="none" stroke="#000" stroke-linecap="square" stroke-linejoin="miter" stroke-width=".8"/></g></g></svg>