<svg height="602.873437pt" stroke-linejoin="round" viewBox="0 0 1759.957031 602.873437" width="1759.957031pt" xmlns="http://www.w3.org/2000/svg" xmlns:xlink="http://www.w3.org/1999/xlink"><defs stroke-linejoin="round"><clipPath id="a" stroke-linejoin="round"><path d="m78.757031 7.2h760.909091v247.090909h-760.909091z"/></clipPath><clipPath id="b" stroke-linejoin="round"><path d="m991.84794 7.2h760.909091v247.090909h-760.909091z"/></clipPath><clipPath id="c" stroke-linejoin="round"><path d="m78.757031 303.709091h760.909091v247.090909h-760.909091z"/></clipPath><clipPath id="d" stroke-linejoin="round"><path d="m991.84794 303.709091h760.909091v247.090909h-760.909091z"/></clipPath><path id="e" d="m0 2.738613c.726289 0 1.422928-.288558 1.936492-.802121.513563-.513564.802121-1.210203.802121-1.936492s-.288558-1.422928-.802121-1.936492c-.513564-.513563-1.210203-.802121-1.936492-.802121s-1.422928.288558-1.936492.802121c-.513563.513564-.802121 1.210203-.802121 1.936492s.288558 1.422928.802121 1.936492c.513564.513563 1.210203.802121 1.936492.802121z" stroke="#008000" stroke-linejoin="round"/><path id="f" d="m0 0v3.5" stroke="#000" stroke-linejoin="round" stroke-width=".8"/><path id="g" d="m10.59375 35.5h62.59375v-8.296875h-62.59375z" stroke-linejoin="round"/><path id="h" d="m19.1875 8.296875h34.421875v-8.296875h-46.28125v8.296875q5.609375 5.8125 15.296875 15.59375 9.703125 9.796875 12.1875 12.640625 4.734375 5.3125 6.609375 9 1.890625 3.6875 1.890625 7.25 0 5.8125-4.078125 9.46875-4.078125 3.671875-10.625 3.671875-4.640625 0-9.796875-1.609375-5.140625-1.609375-11-4.890625v9.96875q5.953125 2.390625 11.125 3.609375 5.1875 1.21875 9.484375 1.21875 11.328125 0 18.0625-5.671875 6.734375-5.65625 6.734375-15.125 0-4.5-1.6875-8.53125-1.671875-4.015625-6.125-9.484375-1.21875-1.421875-7.765625-8.1875-6.53125-6.765625-18.453125-18.921875z" stroke-linejoin="round"/><path id="i" d="m12.40625 8.296875h16.109375v55.625l-17.53125-3.515625v8.984375l17.4375 3.515625h9.859375v-64.609375h16.109375v-8.296875h-41.984375z" stroke-linejoin="round"/><path id="j" d="m31.78125 66.40625q-7.609375 0-11.453125-7.5-3.828125-7.484375-3.828125-22.53125 0-14.984375 3.828125-22.484375 3.84375-7.5 11.453125-7.5 7.671875 0 11.5 7.5 3.84375 7.5 3.84375 22.484375 0 15.046875-3.84375 22.53125-3.828125 7.5-11.5 7.5zm0 7.8125q12.265625 0 18.734375-9.703125 6.46875-9.6875 6.46875-28.140625 0-18.40625-6.46875-28.109375-6.46875-9.6875-18.734375-9.6875-12.25 0-18.71875 9.6875-6.46875 9.703125-6.46875 28.109375 0 18.453125 6.46875 28.140625 6.46875 9.703125 18.71875 9.703125z" stroke-linejoin="round"/><path id="k" d="m40.578125 39.3125q7.078125-1.515625 11.046875-6.3125 3.984375-4.78125 3.984375-11.8125 0-10.78125-7.421875-16.703125-7.421875-5.90625-21.09375-5.90625-4.578125 0-9.4375.90625-4.859375.90625-10.03125 2.71875v9.515625q4.09375-2.390625 8.96875-3.609375 4.890625-1.21875 10.21875-1.21875 9.265625 0 14.125 3.65625 4.859375 3.65625 4.859375 10.640625 0 6.453125-4.515625 10.078125-4.515625 3.640625-12.5625 3.640625h-8.5v8.109375h8.890625q7.265625 0 11.125 2.90625 3.859375 2.90625 3.859375 8.375 0 5.609375-3.984375 8.609375-3.96875 3.015625-11.390625 3.015625-4.0625 0-8.703125-.890625-4.640625-.875-10.203125-2.71875v8.78125q5.625 1.5625 10.53125 2.34375 4.90625.78125 9.25.78125 11.234375 0 17.765625-5.109375 6.546875-5.09375 6.546875-13.78125 0-6.0625-3.46875-10.234375-3.46875-4.171875-9.859375-5.78125z" stroke-linejoin="round"/><path id="l" d="m32.171875-5.078125q-3.796875-9.765625-7.421875-12.734375-3.609375-2.984375-9.65625-2.984375h-7.1875v7.515625h5.28125q3.703125 0 5.75 1.765625 2.0625 1.75 4.546875 8.296875l1.609375 4.09375-22.109375 53.8125h9.515625l17.09375-42.765625 17.09375 42.765625h9.515625z" stroke-linejoin="round"/><path id="m" d="m0 0h-3.5" stroke="#000" stroke-linejoin="round" stroke-width=".8"/><path id="n" d="m37.109375 75.984375v-7.484375h-8.59375q-4.828125 0-6.71875-1.953125-1.875-1.953125-1.875-7.03125v-4.828125h14.796875v-6.984375h-14.796875v-47.703125h-9.03125v47.703125h-8.59375v6.984375h8.59375v3.8125q0 9.125 4.25 13.296875 4.25 4.1875 13.46875 4.1875z" stroke-linejoin="round"/><path id="o" d="m10.6875 12.40625h10.3125v-12.40625h-10.3125z" stroke-linejoin="round"/><path id="p" d="m10.796875 72.90625h38.71875v-8.3125h-29.6875v-17.859375q2.140625.734375 4.28125 1.09375 2.15625.359375 4.3125.359375 12.203125 0 19.328125-6.6875 7.140625-6.6875 7.140625-18.109375 0-11.765625-7.328125-18.296875-7.328125-6.515625-20.65625-6.515625-4.59375 0-9.359375.78125-4.75.78125-9.828125 2.34375v9.921875q4.390625-2.390625 9.078125-3.5625 4.6875-1.171875 9.90625-1.171875 8.453125 0 13.375 4.4375 4.9375 4.4375 4.9375 12.0625 0 7.609375-4.9375 12.046875-4.921875 4.453125-13.375 4.453125-3.953125 0-7.890625-.875-3.921875-.875-8.015625-2.734375z" stroke-linejoin="round"/></defs><g stroke-linejoin="round"><path d="m0 602.873437h1759.957031v-602.873437h-1759.957031z" fill="none"/><g><g stroke-linejoin="round"><path d="m78.757031 254.290909h760.909091v-247.090909h-760.909091z" fill="#fff"/><g clip-path="url(#a)" fill="#90ee90" stroke="#008000"><use x="353.431617" xlink:href="#e" y="142.200605"/><use x="530.96946" xlink:href="#e" y="96.098565"/><use x="479.763987" xlink:href="#e" y="64.977322"/><use x="365.810636" xlink:href="#e" y="145.052609"/><use x="470.864642" xlink:href="#e" y="152.790436"/><use x="345.769356" xlink:href="#e" y="128.61793"/><use x="319.862075" xlink:href="#e" y="53.783473"/><use x="462.566013" xlink:href="#e" y="136.784141"/><use x="204.640993" xlink:href="#e" y="161.81689"/><use x="468.372724" xlink:href="#e" y="127.159479"/><use x="338.491152" xlink:href="#e" y="55.481561"/><use x="371.583843" xlink:href="#e" y="75.585167"/><use x="291.176514" xlink:href="#e" y="107.246196"/><use x="460.975572" xlink:href="#e" y="45.810174"/><use x="496.872838" xlink:href="#e" y="117.989247"/><use x="514.255594" xlink:href="#e" y="97.707527"/><use x="459.797238" xlink:href="#e" y="164.293495"/><use x="357.83121" xlink:href="#e" y="100.648231"/><use x="355.420643" xlink:href="#e" y="158.131824"/><use x="466.876912" xlink:href="#e" y="184.678038"/><use x="327.990437" xlink:href="#e" y="82.32831"/><use x="463.581621" xlink:href="#e" y="131.035536"/><use x="444.37351" xlink:href="#e" y="150.54981"/><use x="403.31314" xlink:href="#e" y="126.894853"/><use x="166.550347" xlink:href="#e" y="225.966031"/><use x="269.004021" xlink:href="#e" y="144.202327"/><use x="508.78424" xlink:href="#e" y="164.267293"/><use x="454.259094" xlink:href="#e" y="177.095043"/><use x="512.012034" xlink:href="#e" y="113.332209"/><use x="461.680833" xlink:href="#e" y="209.185374"/><use x="588.082991" xlink:href="#e" y="243.059504"/><use x="489.064003" xlink:href="#e" y="114.963472"/><use x="577.390135" xlink:href="#e" y="164.264391"/><use x="260.368341" xlink:href="#e" y="106.205063"/><use x="313.110141" xlink:href="#e" y="117.588728"/><use x="451.777234" xlink:href="#e" y="104.979202"/><use x="113.343808" xlink:href="#e" y="199.100458"/><use x="373.819497" xlink:href="#e" y="203.158843"/><use x="337.867432" xlink:href="#e" y="67.730831"/><use x="491.128205" xlink:href="#e" y="96.567676"/><use x="363.197002" xlink:href="#e" y="181.453575"/><use x="438.347686" xlink:href="#e" y="80.290146"/><use x="219.165841" xlink:href="#e" y="122.898677"/><use x="442.748444" xlink:href="#e" y="80.504481"/><use x="412.083993" xlink:href="#e" y="163.081057"/><use x="484.4729" xlink:href="#e" y="93.113472"/><use x="312.039429" xlink:href="#e" y="18.431405"/><use x="441.012575" xlink:href="#e" y="190.008329"/><use x="392.069821" xlink:href="#e" y="149.371677"/><use x="340.685479" xlink:href="#e" y="116.075049"/><use x="484.184414" xlink:href="#e" y="67.457423"/><use x="280.986714" xlink:href="#e" y="25.197584"/><use x="427.035381" xlink:href="#e" y="129.018235"/><use x="275.564213" xlink:href="#e" y="125.105889"/><use x="338.000525" xlink:href="#e" y="66.481123"/><use x="323.514447" xlink:href="#e" y="165.061886"/><use x="214.969208" xlink:href="#e" y="96.578059"/><use x="479.20575" xlink:href="#e" y="193.092206"/><use x="381.996769" xlink:href="#e" y="138.757572"/><use x="412.066542" xlink:href="#e" y="216.428168"/><use x="616.974409" xlink:href="#e" y="98.57979"/><use x="260.253891" xlink:href="#e" y="148.031092"/><use x="313.511457" xlink:href="#e" y="47.282301"/><use x="326.401579" xlink:href="#e" y="140.076987"/><use x="293.36547" xlink:href="#e" y="67.389716"/><use x="565.550901" xlink:href="#e" y="175.475436"/><use x="638.066438" xlink:href="#e" y="175.45046"/><use x="515.344122" xlink:href="#e" y="160.475415"/><use x="343.06682" xlink:href="#e" y="137.610163"/><use x="365.700122" xlink:href="#e" y="61.975893"/><use x="336.982968" xlink:href="#e" y="115.299662"/><use x="299.890419" xlink:href="#e" y="70.131262"/><use x="348.221212" xlink:href="#e" y="104.989632"/><use x="560.814846" xlink:href="#e" y="128.89536"/><use x="298.841154" xlink:href="#e" y="69.012839"/><use x="376.594505" xlink:href="#e" y="123.372049"/><use x="215.143602" xlink:href="#e" y="113.243701"/><use x="368.716499" xlink:href="#e" y="92.069022"/><use x="386.413682" xlink:href="#e" y="125.222759"/><use x="703.123191" xlink:href="#e" y="116.324802"/><use x="515.297559" xlink:href="#e" y="119.724151"/><use x="437.984218" xlink:href="#e" y="23.115838"/><use x="222.626582" xlink:href="#e" y="121.24184"/><use x="350.558758" xlink:href="#e" y="82.371941"/><use x="451.866955" xlink:href="#e" y="192.570414"/><use x="651.498683" xlink:href="#e" y="96.67487"/><use x="441.781436" xlink:href="#e" y="187.292753"/><use x="530.943924" xlink:href="#e" y="146.990469"/><use x="465.221573" xlink:href="#e" y="92.204399"/><use x="805.079345" xlink:href="#e" y="101.780573"/><use x="569.978155" xlink:href="#e" y="141.373845"/><use x="324.612748" xlink:href="#e" y="54.181569"/><use x="279.759506" xlink:href="#e" y="118.893692"/><use x="158.055314" xlink:href="#e" y="61.928626"/><use x="331.643282" xlink:href="#e" y="33.331642"/><use x="507.308457" xlink:href="#e" y="155.806545"/><use x="512.569793" xlink:href="#e" y="133.674298"/><use x="438.105476" xlink:href="#e" y="153.941617"/><use x="311.663692" xlink:href="#e" y="120.399713"/><use x="238.054426" xlink:href="#e" y="149.256529"/></g><g><g><use stroke="#000" stroke-width=".8" x="169.961411" xlink:href="#f" y="254.290909"/><g transform="matrix(.15 0 0 -.15 158.904771 272.688565)"><use xlink:href="#g"/><use x="83.789062" xlink:href="#h"/></g></g><g><use stroke="#000" stroke-width=".8" x="292.393721" xlink:href="#f" y="254.290909"/><g transform="matrix(.15 0 0 -.15 281.33708 272.688565)"><use xlink:href="#g"/><use x="83.789062" xlink:href="#i"/></g></g><g><use stroke="#000" stroke-width=".8" x="414.82603" xlink:href="#f" y="254.290909"/><use transform="matrix(.15 0 0 -.15 410.054155 272.688565)" xlink:href="#j"/></g><g><use stroke="#000" stroke-width=".8" x="537.258339" xlink:href="#f" y="254.290909"/><use transform="matrix(.15 0 0 -.15 532.486464 272.688565)" xlink:href="#i"/></g><g><use stroke="#000" stroke-width=".8" x="659.690649" xlink:href="#f" y="254.290909"/><use transform="matrix(.15 0 0 -.15 654.918774 272.688565)" xlink:href="#h"/></g><g><use stroke="#000" stroke-width=".8" x="782.122958" xlink:href="#f" y="254.290909"/><use transform="matrix(.15 0 0 -.15 777.351083 272.688565)" xlink:href="#k"/></g><use transform="matrix(.2 0 0 -.2 453.292827 295.004972)" xlink:href="#l"/></g><g><g><use stroke="#000" stroke-width=".8" x="78.757031" xlink:href="#m" y="211.016227"/><g transform="matrix(.15 0 0 -.15 30.55625 216.715055)"><use xlink:href="#g"/><use x="83.789062" xlink:href="#h"/><use x="147.412109" xlink:href="#j"/><use x="211.035156" xlink:href="#j"/></g></g><g><use stroke="#000" stroke-width=".8" x="78.757031" xlink:href="#m" y="166.358296"/><g transform="matrix(.15 0 0 -.15 30.55625 172.057124)"><use xlink:href="#g"/><use x="83.789062" xlink:href="#i"/><use x="147.412109" xlink:href="#j"/><use x="211.035156" xlink:href="#j"/></g></g><g><use stroke="#000" stroke-width=".8" x="78.757031" xlink:href="#m" y="121.700365"/><use transform="matrix(.15 0 0 -.15 62.213281 127.399193)" xlink:href="#j"/></g><g><use stroke="#000" stroke-width=".8" x="78.757031" xlink:href="#m" y="77.042434"/><g transform="matrix(.15 0 0 -.15 43.125781 82.741262)"><use xlink:href="#i"/><use x="63.623047" xlink:href="#j"/><use x="127.246094" xlink:href="#j"/></g></g><g><use stroke="#000" stroke-width=".8" x="78.757031" xlink:href="#m" y="32.384502"/><g transform="matrix(.15 0 0 -.15 43.125781 38.083331)"><use xlink:href="#h"/><use x="63.623047" xlink:href="#j"/><use x="127.246094" xlink:href="#j"/></g></g><g transform="matrix(0 -.2 -.2 0 22.396875 140.628267)"><use xlink:href="#n"/><use x="35.205078" xlink:href="#i"/></g></g><path clip-path="url(#a)" d="m353.431617 119.567161 177.537843 10.054961-51.205473-2.900052-113.953351-6.453816 105.054006 5.949796-125.095286-7.084846-25.907281-1.467274 142.703938 8.082122-257.92502-14.607737 263.731731 14.936604-129.881572-7.35592 33.092691 1.874224-80.407329-4.553917 169.799058 9.61667 35.897266 2.033063 17.382756.984483-54.458356-3.084281-101.966028-5.774907-2.410567-.136524 111.456269 6.312392-138.886475-7.865918 135.591184 7.679288-19.208111-1.087863-41.06037-2.325479-236.762793-13.409201 102.453674 5.802525 239.780219 13.580095-54.525146-3.088064 57.75294 3.270872-50.331201-2.850538 126.402158 7.158862-99.018988-5.608 88.326132 5.002403-317.021794-17.954717 52.7418 2.987063 138.667093 7.853493-338.433426-19.167378 260.475689 14.752195-35.952065-2.036166 153.260773 8.680015-127.931203-7.24546 75.150684 4.256204-219.181845-12.413494 223.582603 12.662733-30.664451-1.736699 72.388907 4.099789-172.433471-9.765873 128.973146 7.304471-48.942754-2.771902-51.384342-2.910182 143.498935 8.127147-203.1977-11.508223 146.048667 8.271554-151.471168-8.57866 62.436312 3.536118-14.486078-.820428-108.545239-6.147524 264.236542 14.965193-97.208981-5.505488 30.069773 1.703019 204.907867 11.605079-356.720518-20.203078 53.257566 3.016274 12.890122.730039-33.036109-1.871019 272.185431 15.415383 72.515537 4.106961-122.722316-6.950451-172.277302-9.757028 22.633302 1.281851-28.717154-1.626413-37.092549-2.100759 48.330793 2.737243 212.593634 12.040367-261.973692-14.837036 77.753351 4.403608-161.450903-9.143868 153.572897 8.697692 17.697183 1.00229 316.709509 17.937032-187.825632-10.637616-77.313341-4.378688-215.357636-12.196907 127.932176 7.245515 101.308197 5.73765 199.631728 11.306261-209.717247-11.877461 89.162488 5.049771-65.722351-3.722225 339.857772 19.248047-235.10119-13.315095-245.365407-13.896416-44.853242-2.54029-121.704192-6.89279 173.587968 9.831258 175.665175 9.948902 5.261336.297979-74.464317-4.217331-126.441784-7.161106-73.609266-4.168904" fill="none" stroke="#ffc0cb" stroke-dasharray="3.7 1.6"/></g><path d="m78.757031 254.290909v-247.090909" fill="none" stroke="#000" stroke-linecap="square" stroke-linejoin="miter" stroke-width=".8"/><path d="m839.666122 254.290909v-247.090909" fill="none" stroke="#000" stroke-linecap="square" stroke-linejoin="miter" stroke-width=".8"/><path d="m78.757031 254.290909h760.909091" fill="none" stroke="#000" stroke-linecap="square" stroke-linejoin="miter" stroke-width=".8"/><path d="m78.757031 7.2h760.909091" fill="none" stroke="#000" stroke-linecap="square" stroke-linejoin="miter" stroke-width=".8"/></g><g><g stroke-linejoin="round"><path d="m991.84794 254.290909h760.909091v-247.090909h-760.909091z" fill="#fff"/><g clip-path="url(#b)" fill="#90ee90" stroke="#008000"><use x="1670.140178" xlink:href="#e" y="142.200605"/><use x="1211.468379" xlink:href="#e" y="96.098565"/><use x="1486.512109" xlink:href="#e" y="64.977322"/><use x="1552.718887" xlink:href="#e" y="145.052609"/><use x="1590.913382" xlink:href="#e" y="152.790436"/><use x="1328.527975" xlink:href="#e" y="128.61793"/><use x="1360.249742" xlink:href="#e" y="53.783473"/><use x="1352.760828" xlink:href="#e" y="136.784141"/><use x="1369.713506" xlink:href="#e" y="161.81689"/><use x="1152.253464" xlink:href="#e" y="127.159479"/><use x="1286.780599" xlink:href="#e" y="55.481561"/><use x="1129.991137" xlink:href="#e" y="75.585167"/><use x="1165.471628" xlink:href="#e" y="107.246196"/><use x="1555.298724" xlink:href="#e" y="45.810174"/><use x="1285.899174" xlink:href="#e" y="117.989247"/><use x="1439.138451" xlink:href="#e" y="97.707527"/><use x="1324.199947" xlink:href="#e" y="164.293495"/><use x="1252.747427" xlink:href="#e" y="100.648231"/><use x="1348.303044" xlink:href="#e" y="158.131824"/><use x="1718.170254" xlink:href="#e" y="184.678038"/><use x="1375.576757" xlink:href="#e" y="82.32831"/><use x="1317.213043" xlink:href="#e" y="131.035536"/><use x="1311.13768" xlink:href="#e" y="150.54981"/><use x="1526.124946" xlink:href="#e" y="126.894853"/><use x="1405.45893" xlink:href="#e" y="225.966031"/><use x="1300.350888" xlink:href="#e" y="144.202327"/><use x="1413.265517" xlink:href="#e" y="164.267293"/><use x="1411.356917" xlink:href="#e" y="177.095043"/><use x="1252.300184" xlink:href="#e" y="113.332209"/><use x="1602.359209" xlink:href="#e" y="209.185374"/><use x="1564.055303" xlink:href="#e" y="243.059504"/><use x="1538.708032" xlink:href="#e" y="114.963472"/><use x="1421.777924" xlink:href="#e" y="164.264391"/><use x="1182.121912" xlink:href="#e" y="106.205063"/><use x="1328.026958" xlink:href="#e" y="117.588728"/><use x="1040.59777" xlink:href="#e" y="104.979202"/><use x="1230.482854" xlink:href="#e" y="199.100458"/><use x="1473.364587" xlink:href="#e" y="203.158843"/><use x="1548.776368" xlink:href="#e" y="67.730831"/><use x="1341.42507" xlink:href="#e" y="96.567676"/><use x="1026.434717" xlink:href="#e" y="181.453575"/><use x="1212.856146" xlink:href="#e" y="80.290146"/><use x="1203.626773" xlink:href="#e" y="122.898677"/><use x="1341.663005" xlink:href="#e" y="80.504481"/><use x="1294.438629" xlink:href="#e" y="163.081057"/><use x="1458.834989" xlink:href="#e" y="93.113472"/><use x="1451.656153" xlink:href="#e" y="18.431405"/><use x="1310.91512" xlink:href="#e" y="190.008329"/><use x="1273.273297" xlink:href="#e" y="149.371677"/><use x="1530.370561" xlink:href="#e" y="116.075049"/><use x="1040.740362" xlink:href="#e" y="67.457423"/><use x="1432.371302" xlink:href="#e" y="25.197584"/><use x="1421.78879" xlink:href="#e" y="129.018235"/><use x="1282.423147" xlink:href="#e" y="125.105889"/><use x="1335.365437" xlink:href="#e" y="66.481123"/><use x="1459.115497" xlink:href="#e" y="165.061886"/><use x="1288.640298" xlink:href="#e" y="96.578059"/><use x="1287.001684" xlink:href="#e" y="193.092206"/><use x="1467.768336" xlink:href="#e" y="138.757572"/><use x="1450.910314" xlink:href="#e" y="216.428168"/><use x="1239.668287" xlink:href="#e" y="98.57979"/><use x="1195.093442" xlink:href="#e" y="148.031092"/><use x="1111.846847" xlink:href="#e" y="47.282301"/><use x="1201.66482" xlink:href="#e" y="140.076987"/><use x="1336.367811" xlink:href="#e" y="67.389716"/><use x="1120.066569" xlink:href="#e" y="175.475436"/><use x="1158.218755" xlink:href="#e" y="175.45046"/><use x="1262.817489" xlink:href="#e" y="160.475415"/><use x="1391.092142" xlink:href="#e" y="137.610163"/><use x="1339.783639" xlink:href="#e" y="61.975893"/><use x="1141.205861" xlink:href="#e" y="115.299662"/><use x="1027.978662" xlink:href="#e" y="70.131262"/><use x="1055.718762" xlink:href="#e" y="104.989632"/><use x="1318.102298" xlink:href="#e" y="128.89536"/><use x="1074.459567" xlink:href="#e" y="69.012839"/><use x="1101.002448" xlink:href="#e" y="123.372049"/><use x="1497.085747" xlink:href="#e" y="113.243701"/><use x="1277.27288" xlink:href="#e" y="92.069022"/><use x="1378.870905" xlink:href="#e" y="125.222759"/><use x="1504.752704" xlink:href="#e" y="116.324802"/><use x="1638.54287" xlink:href="#e" y="119.724151"/><use x="1213.000291" xlink:href="#e" y="23.115838"/><use x="1581.425237" xlink:href="#e" y="121.24184"/><use x="1321.499038" xlink:href="#e" y="82.371941"/><use x="1542.952183" xlink:href="#e" y="192.570414"/><use x="1505.380318" xlink:href="#e" y="96.67487"/><use x="1275.224758" xlink:href="#e" y="187.292753"/><use x="1271.508856" xlink:href="#e" y="146.990469"/><use x="1418.800588" xlink:href="#e" y="92.204399"/><use x="1463.137436" xlink:href="#e" y="101.780573"/><use x="1322.441834" xlink:href="#e" y="141.373845"/><use x="1240.094307" xlink:href="#e" y="54.181569"/><use x="1402.00332" xlink:href="#e" y="118.893692"/><use x="1273.858477" xlink:href="#e" y="61.928626"/><use x="1251.236181" xlink:href="#e" y="33.331642"/><use x="1341.820229" xlink:href="#e" y="155.806545"/><use x="1520.259345" xlink:href="#e" y="133.674298"/><use x="1325.066567" xlink:href="#e" y="153.941617"/><use x="1504.364248" xlink:href="#e" y="120.399713"/><use x="1039.954509" xlink:href="#e" y="149.256529"/></g><g><g><use stroke="#000" stroke-width=".8" x="999.959477" xlink:href="#f" y="254.290909"/><g transform="matrix(.15 0 0 -.15 981.747367 272.688565)"><use xlink:href="#g"/><use x="83.789062" xlink:href="#h"/><use x="147.412109" xlink:href="#o"/><use x="179.199219" xlink:href="#j"/></g></g><g><use stroke="#000" stroke-width=".8" x="1086.474636" xlink:href="#f" y="254.290909"/><g transform="matrix(.15 0 0 -.15 1068.262527 272.688565)"><use xlink:href="#g"/><use x="83.789062" xlink:href="#i"/><use x="147.412109" xlink:href="#o"/><use x="179.199219" xlink:href="#p"/></g></g><g><use stroke="#000" stroke-width=".8" x="1172.989796" xlink:href="#f" y="254.290909"/><g transform="matrix(.15 0 0 -.15 1154.777686 272.688565)"><use xlink:href="#g"/><use x="83.789062" xlink:href="#i"/><use x="147.412109" xlink:href="#o"/><use x="179.199219" xlink:href="#j"/></g></g><g><use stroke="#000" stroke-width=".8" x="1259.504955" xlink:href="#f" y="254.290909"/><g transform="matrix(.15 0 0 -.15 1241.292846 272.688565)"><use xlink:href="#g"/><use x="83.789062" xlink:href="#j"/><use x="147.412109" xlink:href="#o"/><use x="179.199219" xlink:href="#p"/></g></g><g><use stroke="#000" stroke-width=".8" x="1346.020114" xlink:href="#f" y="254.290909"/><g transform="matrix(.15 0 0 -.15 1334.092771 272.688565)"><use xlink:href="#j"/><use x="63.623047" xlink:href="#o"/><use x="95.410156" xlink:href="#j"/></g></g><g><use stroke="#000" stroke-width=".8" x="1432.535274" xlink:href="#f" y="254.290909"/><g transform="matrix(.15 0 0 -.15 1420.60793 272.688565)"><use xlink:href="#j"/><use x="63.623047" xlink:href="#o"/><use x="95.410156" xlink:href="#p"/></g></g><g><use stroke="#000" stroke-width=".8" x="1519.050433" xlink:href="#f" y="254.290909"/><g transform="matrix(.15 0 0 -.15 1507.12309 272.688565)"><use xlink:href="#i"/><use x="63.623047" xlink:href="#o"/><use x="95.410156" xlink:href="#j"/></g></g><g><use stroke="#000" stroke-width=".8" x="1605.565593" xlink:href="#f" y="254.290909"/><g transform="matrix(.15 0 0 -.15 1593.638249 272.688565)"><use xlink:href="#i"/><use x="63.623047" xlink:href="#o"/><use x="95.410156" xlink:href="#p"/></g></g><g><use stroke="#000" stroke-width=".8" x="1692.080752" xlink:href="#f" y="254.290909"/><g transform="matrix(.15 0 0 -.15 1680.153409 272.688565)"><use xlink:href="#h"/><use x="63.623047" xlink:href="#o"/><use x="95.410156" xlink:href="#j"/></g></g><use transform="matrix(.2 0 0 -.2 1366.383736 295.004972)" xlink:href="#l"/></g><g><g><use stroke="#000" stroke-width=".8" x="991.84794" xlink:href="#m" y="211.016227"/><g transform="matrix(.15 0 0 -.15 943.647159 216.715055)"><use xlink:href="#g"/><use x="83.789062" xlink:href="#h"/><use x="147.412109" xlink:href="#j"/><use x="211.035156" xlink:href="#j"/></g></g><g><use stroke="#000" stroke-width=".8" x="991.84794" xlink:href="#m" y="166.358296"/><g transform="matrix(.15 0 0 -.15 943.647159 172.057124)"><use xlink:href="#g"/><use x="83.789062" xlink:href="#i"/><use x="147.412109" xlink:href="#j"/><use x="211.035156" xlink:href="#j"/></g></g><g><use stroke="#000" stroke-width=".8" x="991.84794" xlink:href="#m" y="121.700365"/><use transform="matrix(.15 0 0 -.15 975.30419 127.399193)" xlink:href="#j"/></g><g><use stroke="#000" stroke-width=".8" x="991.84794" xlink:href="#m" y="77.042434"/><g transform="matrix(.15 0 0 -.15 956.21669 82.741262)"><use xlink:href="#i"/><use x="63.623047" xlink:href="#j"/><use x="127.246094" xlink:href="#j"/></g></g><g><use stroke="#000" stroke-width=".8" x="991.84794" xlink:href="#m" y="32.384502"/><g transform="matrix(.15 0 0 -.15 956.21669 38.083331)"><use xlink:href="#h"/><use x="63.623047" xlink:href="#j"/><use x="127.246094" xlink:href="#j"/></g></g><g transform="matrix(0 -.2 -.2 0 935.487784 140.628267)"><use xlink:href="#n"/><use x="35.205078" xlink:href="#h"/></g></g><path clip-path="url(#b)" d="m1670.140178 141.067859-458.671799-25.938038 275.04373 15.553811 66.206778 3.744015 38.194495 2.159911-262.385407-14.837979 31.721767 1.793876-7.488914-.423501 16.952678.95868-217.460042-12.297436 134.527135 7.607553-156.789462-8.866494 35.480491 2.006433 389.827096 22.044848-269.39955-15.234632 153.239277 8.665731-114.938504-6.49981-71.45252-4.040663 95.555617 5.403701 369.86721 20.91611-342.593497-19.373773-58.363714-3.300486-6.075363-.343564 214.987266 12.157599-120.666016-6.823702-105.108042-5.943894 112.914629 6.385359-1.9086-.107932-159.056733-8.994709 350.059025 19.79595-38.303906-2.166098-25.347271-1.433396-116.930108-6.612436-239.656012-13.552624 145.905046 8.250977-287.429188-16.254213 189.885084 10.738062 242.881733 13.735041 75.411781 4.26456-207.351298-11.725782-314.990353-17.812806 186.421429 10.542191-9.229373-.521924 138.036232 7.805994-47.224376-2.670554 164.39636 9.296667-7.178836-.405965-140.741033-7.958951-37.641823-2.128657 257.097264 14.538933-489.630199-27.688746 391.63094 22.146856-10.582512-.598444-139.365643-7.881172 52.94229 2.993903 123.75006 6.998106-170.475199-9.640427-1.638614-.092664 180.766652 10.222412-16.858022-.953327-211.242027-11.945804-44.574845-2.520722-83.246595-4.707622 89.817973 5.079235 134.702991 7.617498-216.301242-12.231905 38.152186 2.157518 104.598734 5.915092 128.274653 7.253973-51.308503-2.901512-198.577778-11.229637-113.227199-6.403035 27.7401 1.568712 262.383536 14.837873-243.642731-13.778075 26.542881 1.501009 396.083299 22.398638-219.812867-12.430488 101.598025 5.745401 125.881799 7.118656 133.790166 7.565877-425.542579-24.06457 368.424946 20.834549-259.926199-14.69891 221.453145 12.523247-37.571865-2.124701-230.15556-13.015371-3.715902-.210136 147.291732 8.329395 44.336848 2.507263-140.695602-7.956382-82.347527-4.656779 161.909013 9.156007-128.144843-7.246632-22.622296-1.279298 90.584048 5.122557 178.439116 10.090789-195.192778-11.038214 179.297681 10.139342-464.409739-26.262521" fill="none" stroke="#ffc0cb" stroke-dasharray="3.7 1.6"/></g><path d="m991.84794 254.290909v-247.090909" fill="none" stroke="#000" stroke-linecap="square" stroke-linejoin="miter" stroke-width=".8"/><path d="m1752.757031 254.290909v-247.090909" fill="none" stroke="#000" stroke-linecap="square" stroke-linejoin="miter" stroke-width=".8"/><path d="m991.84794 254.290909h760.909091" fill="none" stroke="#000" stroke-linecap="square" stroke-linejoin="miter" stroke-width=".8"/><path d="m991.84794 7.2h760.909091" fill="none" stroke="#000" stroke-linecap="square" stroke-linejoin="miter" stroke-width=".8"/></g><g><g stroke-linejoin="round"><path d="m78.757031 550.8h760.909091v-247.090909h-760.909091z" fill="#fff"/><g clip-path="url(#c)" fill="#90ee90" stroke="#008000"><use x="736.241596" xlink:href="#e" y="438.709696"/><use x="464.234859" xlink:href="#e" y="392.607656"/><use x="468.246303" xlink:href="#e" y="361.486413"/><use x="331.04537" xlink:href="#e" y="441.5617"/><use x="280.093951" xlink:href="#e" y="449.299527"/><use x="457.87062" xlink:href="#e" y="425.12702"/><use x="805.079345" xlink:href="#e" y="350.292564"/><use x="477.684553" xlink:href="#e" y="433.293232"/><use x="113.343808" xlink:href="#e" y="458.325981"/><use x="472.413464" xlink:href="#e" y="423.66857"/><use x="698.87851" xlink:href="#e" y="351.990652"/><use x="511.978195" xlink:href="#e" y="372.094258"/><use x="469.325342" xlink:href="#e" y="403.755287"/><use x="441.59828" xlink:href="#e" y="342.319265"/><use x="721.700459" xlink:href="#e" y="414.498337"/><use x="614.540842" xlink:href="#e" y="394.216617"/><use x="422.301206" xlink:href="#e" y="460.802586"/><use x="452.787962" xlink:href="#e" y="397.157322"/><use x="533.559578" xlink:href="#e" y="454.640915"/><use x="311.306214" xlink:href="#e" y="481.187129"/><use x="695.290035" xlink:href="#e" y="378.837401"/><use x="336.302721" xlink:href="#e" y="427.544627"/><use x="374.09751" xlink:href="#e" y="447.058901"/><use x="453.730898" xlink:href="#e" y="423.403943"/><use x="411.297288" xlink:href="#e" y="522.475121"/><use x="411.192381" xlink:href="#e" y="440.711418"/><use x="387.675956" xlink:href="#e" y="460.776384"/><use x="267.179263" xlink:href="#e" y="473.604134"/><use x="500.523859" xlink:href="#e" y="409.8413"/><use x="286.162838" xlink:href="#e" y="505.694465"/><use x="155.513545" xlink:href="#e" y="539.568595"/><use x="349.988533" xlink:href="#e" y="411.472563"/><use x="461.937457" xlink:href="#e" y="460.773482"/><use x="494.91129" xlink:href="#e" y="402.714154"/><use x="423.515264" xlink:href="#e" y="414.097819"/><use x="333.858453" xlink:href="#e" y="401.488293"/><use x="431.158517" xlink:href="#e" y="495.609549"/><use x="424.5139" xlink:href="#e" y="499.667934"/><use x="485.921319" xlink:href="#e" y="364.239922"/><use x="558.479533" xlink:href="#e" y="393.076767"/><use x="403.541102" xlink:href="#e" y="477.962666"/><use x="640.938255" xlink:href="#e" y="376.799237"/><use x="701.817999" xlink:href="#e" y="419.407768"/><use x="569.396627" xlink:href="#e" y="377.013572"/><use x="497.820962" xlink:href="#e" y="459.590148"/><use x="424.992" xlink:href="#e" y="389.622563"/><use x="791.067464" xlink:href="#e" y="314.940496"/><use x="535.940194" xlink:href="#e" y="486.51742"/><use x="323.287982" xlink:href="#e" y="445.880768"/><use x="708.401048" xlink:href="#e" y="412.58414"/><use x="696.782466" xlink:href="#e" y="363.966514"/><use x="653.861927" xlink:href="#e" y="321.706675"/><use x="339.920344" xlink:href="#e" y="425.527326"/><use x="305.476184" xlink:href="#e" y="421.61498"/><use x="576.396431" xlink:href="#e" y="362.990213"/><use x="127.860616" xlink:href="#e" y="461.570977"/><use x="479.821177" xlink:href="#e" y="393.08715"/><use x="374.596918" xlink:href="#e" y="489.601297"/><use x="340.483953" xlink:href="#e" y="435.266663"/><use x="482.094733" xlink:href="#e" y="512.937259"/><use x="572.163254" xlink:href="#e" y="395.088881"/><use x="491.554949" xlink:href="#e" y="444.540183"/><use x="711.014469" xlink:href="#e" y="343.791392"/><use x="348.242202" xlink:href="#e" y="436.586077"/><use x="582.578006" xlink:href="#e" y="363.898807"/><use x="244.381259" xlink:href="#e" y="471.984527"/><use x="528.429485" xlink:href="#e" y="471.959551"/><use x="321.996656" xlink:href="#e" y="456.984506"/><use x="280.997807" xlink:href="#e" y="434.119254"/><use x="756.10365" xlink:href="#e" y="358.484984"/><use x="372.111251" xlink:href="#e" y="411.808753"/><use x="626.851457" xlink:href="#e" y="366.640353"/><use x="587.725753" xlink:href="#e" y="401.498723"/><use x="314.101557" xlink:href="#e" y="425.404451"/><use x="523.659649" xlink:href="#e" y="365.52193"/><use x="541.100045" xlink:href="#e" y="419.88114"/><use x="537.88294" xlink:href="#e" y="409.752791"/><use x="466.577941" xlink:href="#e" y="388.578113"/><use x="415.524839" xlink:href="#e" y="421.73185"/><use x="336.074188" xlink:href="#e" y="412.833893"/><use x="364.171623" xlink:href="#e" y="416.233242"/><use x="653.378815" xlink:href="#e" y="319.624929"/><use x="446.579866" xlink:href="#e" y="417.750931"/><use x="664.600232" xlink:href="#e" y="378.881032"/><use x="368.744297" xlink:href="#e" y="489.079505"/><use x="609.48241" xlink:href="#e" y="393.183961"/><use x="203.622951" xlink:href="#e" y="483.801844"/><use x="299.754305" xlink:href="#e" y="443.49956"/><use x="598.408914" xlink:href="#e" y="388.71349"/><use x="643.913216" xlink:href="#e" y="398.289664"/><use x="320.007935" xlink:href="#e" y="437.882936"/><use x="541.410181" xlink:href="#e" y="350.69066"/><use x="369.74459" xlink:href="#e" y="415.402783"/><use x="724.758709" xlink:href="#e" y="358.437717"/><use x="750.621314" xlink:href="#e" y="329.840733"/><use x="453.581684" xlink:href="#e" y="452.315636"/><use x="454.447523" xlink:href="#e" y="430.183389"/><use x="379.053802" xlink:href="#e" y="450.450708"/><use x="328.645021" xlink:href="#e" y="416.908804"/><use x="381.204565" xlink:href="#e" y="445.76562"/></g><g><g><use stroke="#000" stroke-width=".8" x="165.584102" xlink:href="#f" y="550.8"/><g transform="matrix(.15 0 0 -.15 154.527461 569.197656)"><use xlink:href="#g"/><use x="83.789062" xlink:href="#h"/></g></g><g><use stroke="#000" stroke-width=".8" x="313.006764" xlink:href="#f" y="550.8"/><g transform="matrix(.15 0 0 -.15 301.950123 569.197656)"><use xlink:href="#g"/><use x="83.789062" xlink:href="#i"/></g></g><g><use stroke="#000" stroke-width=".8" x="460.429426" xlink:href="#f" y="550.8"/><use transform="matrix(.15 0 0 -.15 455.657551 569.197656)" xlink:href="#j"/></g><g><use stroke="#000" stroke-width=".8" x="607.852088" xlink:href="#f" y="550.8"/><use transform="matrix(.15 0 0 -.15 603.080213 569.197656)" xlink:href="#i"/></g><g><use stroke="#000" stroke-width=".8" x="755.27475" xlink:href="#f" y="550.8"/><use transform="matrix(.15 0 0 -.15 750.502875 569.197656)" xlink:href="#h"/></g><use transform="matrix(.2 0 0 -.2 453.292827 591.514062)" xlink:href="#l"/></g><g><g><use stroke="#000" stroke-width=".8" x="78.757031" xlink:href="#m" y="507.525318"/><g transform="matrix(.15 0 0 -.15 30.55625 513.224146)"><use xlink:href="#g"/><use x="83.789062" xlink:href="#h"/><use x="147.412109" xlink:href="#j"/><use x="211.035156" xlink:href="#j"/></g></g><g><use stroke="#000" stroke-width=".8" x="78.757031" xlink:href="#m" y="462.867387"/><g transform="matrix(.15 0 0 -.15 30.55625 468.566215)"><use xlink:href="#g"/><use x="83.789062" xlink:href="#i"/><use x="147.412109" xlink:href="#j"/><use x="211.035156" xlink:href="#j"/></g></g><g><use stroke="#000" stroke-width=".8" x="78.757031" xlink:href="#m" y="418.209456"/><use transform="matrix(.15 0 0 -.15 62.213281 423.908284)" xlink:href="#j"/></g><g><use stroke="#000" stroke-width=".8" x="78.757031" xlink:href="#m" y="373.551524"/><g transform="matrix(.15 0 0 -.15 43.125781 379.250353)"><use xlink:href="#i"/><use x="63.623047" xlink:href="#j"/><use x="127.246094" xlink:href="#j"/></g></g><g><use stroke="#000" stroke-width=".8" x="78.757031" xlink:href="#m" y="328.893593"/><g transform="matrix(.15 0 0 -.15 43.125781 334.592421)"><use xlink:href="#h"/><use x="63.623047" xlink:href="#j"/><use x="127.246094" xlink:href="#j"/></g></g><g transform="matrix(0 -.2 -.2 0 22.396875 437.137358)"><use xlink:href="#n"/><use x="35.205078" xlink:href="#k"/></g></g><path clip-path="url(#c)" d="m736.241596 364.814258-272.006737 55.463285 4.011444-.81795-137.200933 27.97583-50.951419 10.389203 177.776669-36.249389 347.208725-70.797277-327.394792 66.757135-364.340745 74.290566 359.069656-73.21577 226.465046-46.177147-186.900315 38.109737-42.652853 8.697091-27.727062 5.653661 280.102179-57.113978-107.159617 21.850284-192.239636 39.198447 30.486756-6.216374 80.771616-16.469663-222.253364 45.318369 383.983821-78.29587-358.987314 73.19898 37.794789-7.706512 79.633388-16.237573-42.43361 8.652387-.104907.02139-23.516425 4.795096-120.496693 24.569767 233.344596-47.579916-214.361021 43.709088-130.649293 26.639924 194.474988-39.654244 111.948924-22.826843 32.973833-6.723499-71.396026 14.557941-89.656811 18.28139 97.300064-19.83988-6.644617 1.354864 61.407419-12.521223 72.558214-14.794917-154.938431 31.59258 237.397153-48.40625 60.879744-12.413628-132.421372 27.001259-71.575665 14.59457-72.828962 14.850123 366.075464-74.644283-255.12727 52.021493-212.652212 43.360654 385.113066-78.526127-11.618582 2.369077-42.920539 8.751673-313.941583 64.013971-34.44416 7.023305 270.920247-55.241745-448.535815 91.458285 351.960561-71.766196-105.224259 21.455656-34.112965 6.955773 141.61078-28.875017 90.068521-18.365339-80.608305 16.436363 219.45952-44.748693-362.772267 73.970747 234.335804-47.782028-338.196747 68.959699 284.048226-57.918594-206.432829 42.092497-40.998849 8.359833 475.105843-96.876022-383.992399 78.297618 254.740206-51.942568-39.125704 7.977891-273.624196 55.793091 209.558092-42.729751 17.440396-3.556168-3.217105.655981-71.304999 14.53938-51.053102 10.409937-79.450651 16.200312 28.097435-5.729182 289.207192-58.970528-206.798949 42.167151 218.020366-44.455243-295.855935 60.326233 240.738113-49.087484-405.859459 82.756401 96.131354-19.601576 298.654609-60.896894 45.504302-9.278513-323.905281 66.045609 221.402246-45.144822-171.665591 35.003315 355.014119-72.388829 25.862605-5.27349-297.03963 60.567593.865839-.176548-75.393721 15.373088-50.408781 10.278556 52.559544-10.717105" fill="none" stroke="#ffc0cb" stroke-dasharray="3.7 1.6"/></g><path d="m78.757031 550.8v-247.090909" fill="none" stroke="#000" stroke-linecap="square" stroke-linejoin="miter" stroke-width=".8"/><path d="m839.666122 550.8v-247.090909" fill="none" stroke="#000" stroke-linecap="square" stroke-linejoin="miter" stroke-width=".8"/><path d="m78.757031 550.8h760.909091" fill="none" stroke="#000" stroke-linecap="square" stroke-linejoin="miter" stroke-width=".8"/><path d="m78.757031 303.709091h760.909091" fill="none" stroke="#000" stroke-linecap="square" stroke-linejoin="miter" stroke-width=".8"/></g><g><g stroke-linejoin="round"><path d="m991.84794 550.8h760.909091v-247.090909h-760.909091z" fill="#fff"/><g clip-path="url(#d)" fill="#90ee90" stroke="#008000"><use x="1101.40182" xlink:href="#e" y="438.709696"/><use x="1510.513382" xlink:href="#e" y="392.607656"/><use x="1618.67006" xlink:href="#e" y="361.486413"/><use x="1427.640389" xlink:href="#e" y="441.5617"/><use x="1435.251513" xlink:href="#e" y="449.299527"/><use x="1388.470393" xlink:href="#e" y="425.12702"/><use x="1394.32075" xlink:href="#e" y="350.292564"/><use x="1336.65536" xlink:href="#e" y="433.293232"/><use x="1538.859887" xlink:href="#e" y="458.325981"/><use x="1379.770616" xlink:href="#e" y="423.66857"/><use x="1477.502482" xlink:href="#e" y="351.990652"/><use x="1540.528163" xlink:href="#e" y="372.094258"/><use x="1457.926418" xlink:href="#e" y="403.755287"/><use x="1718.170254" xlink:href="#e" y="342.319265"/><use x="1207.068115" xlink:href="#e" y="414.498337"/><use x="1377.972432" xlink:href="#e" y="394.216617"/><use x="1277.475684" xlink:href="#e" y="460.802586"/><use x="1495.420617" xlink:href="#e" y="397.157322"/><use x="1205.328022" xlink:href="#e" y="454.640915"/><use x="1287.429759" xlink:href="#e" y="481.187129"/><use x="1370.450964" xlink:href="#e" y="378.837401"/><use x="1471.840898" xlink:href="#e" y="427.544627"/><use x="1368.504545" xlink:href="#e" y="447.058901"/><use x="1397.882912" xlink:href="#e" y="423.403943"/><use x="1044.186282" xlink:href="#e" y="522.475121"/><use x="1363.378299" xlink:href="#e" y="440.711418"/><use x="1305.328902" xlink:href="#e" y="460.776384"/><use x="1358.31797" xlink:href="#e" y="473.604134"/><use x="1408.192712" xlink:href="#e" y="409.8413"/><use x="1208.826428" xlink:href="#e" y="505.694465"/><use x="1187.662142" xlink:href="#e" y="539.568595"/><use x="1528.529234" xlink:href="#e" y="411.472563"/><use x="1243.921887" xlink:href="#e" y="460.773482"/><use x="1443.318137" xlink:href="#e" y="402.714154"/><use x="1455.102034" xlink:href="#e" y="414.097819"/><use x="1579.065023" xlink:href="#e" y="401.488293"/><use x="1125.38935" xlink:href="#e" y="495.609549"/><use x="1118.379721" xlink:href="#e" y="499.667934"/><use x="1597.762224" xlink:href="#e" y="364.239922"/><use x="1426.433624" xlink:href="#e" y="393.076767"/><use x="1226.043234" xlink:href="#e" y="477.962666"/><use x="1418.741253" xlink:href="#e" y="376.799237"/><use x="1205.43338" xlink:href="#e" y="419.407768"/><use x="1480.026858" xlink:href="#e" y="377.013572"/><use x="1221.600745" xlink:href="#e" y="459.590148"/><use x="1543.982568" xlink:href="#e" y="389.622563"/><use x="1542.137054" xlink:href="#e" y="314.940496"/><use x="1081.78877" xlink:href="#e" y="486.51742"/><use x="1413.267464" xlink:href="#e" y="445.880768"/><use x="1226.409759" xlink:href="#e" y="412.58414"/><use x="1428.811202" xlink:href="#e" y="363.966514"/><use x="1620.609425" xlink:href="#e" y="321.706675"/><use x="1476.061717" xlink:href="#e" y="425.527326"/><use x="1515.804432" xlink:href="#e" y="421.61498"/><use x="1525.15702" xlink:href="#e" y="362.990213"/><use x="1511.949668" xlink:href="#e" y="461.570977"/><use x="1486.890709" xlink:href="#e" y="393.08715"/><use x="1207.272874" xlink:href="#e" y="489.601297"/><use x="1447.013664" xlink:href="#e" y="435.266663"/><use x="1026.434717" xlink:href="#e" y="512.937259"/><use x="1408.155646" xlink:href="#e" y="395.088881"/><use x="1284.955571" xlink:href="#e" y="444.540183"/><use x="1494.561738" xlink:href="#e" y="343.791392"/><use x="1425.478446" xlink:href="#e" y="436.586077"/><use x="1520.043499" xlink:href="#e" y="363.898807"/><use x="1376.452433" xlink:href="#e" y="471.984527"/><use x="1145.878934" xlink:href="#e" y="471.959551"/><use x="1369.297693" xlink:href="#e" y="456.984506"/><use x="1494.52862" xlink:href="#e" y="434.119254"/><use x="1393.525931" xlink:href="#e" y="358.484984"/><use x="1510.816519" xlink:href="#e" y="411.808753"/><use x="1476.150939" xlink:href="#e" y="366.640353"/><use x="1362.615989" xlink:href="#e" y="401.498723"/><use x="1503.210142" xlink:href="#e" y="425.404451"/><use x="1560.320148" xlink:href="#e" y="365.52193"/><use x="1341.800269" xlink:href="#e" y="419.88114"/><use x="1379.72407" xlink:href="#e" y="409.752791"/><use x="1520.136656" xlink:href="#e" y="388.578113"/><use x="1432.563441" xlink:href="#e" y="421.73185"/><use x="1532.37592" xlink:href="#e" y="412.833893"/><use x="1496.167714" xlink:href="#e" y="416.233242"/><use x="1641.006153" xlink:href="#e" y="319.624929"/><use x="1422.507421" xlink:href="#e" y="417.750931"/><use x="1392.991039" xlink:href="#e" y="378.881032"/><use x="1206.701916" xlink:href="#e" y="489.079505"/><use x="1381.451354" xlink:href="#e" y="393.183961"/><use x="1368.633738" xlink:href="#e" y="483.801844"/><use x="1451.267251" xlink:href="#e" y="443.49956"/><use x="1410.811054" xlink:href="#e" y="388.71349"/><use x="1335.148383" xlink:href="#e" y="398.289664"/><use x="1445.544556" xlink:href="#e" y="437.882936"/><use x="1608.114985" xlink:href="#e" y="350.69066"/><use x="1492.481818" xlink:href="#e" y="415.402783"/><use x="1423.019431" xlink:href="#e" y="358.437717"/><use x="1519.954446" xlink:href="#e" y="329.840733"/><use x="1278.860581" xlink:href="#e" y="452.315636"/><use x="1360.925504" xlink:href="#e" y="430.183389"/><use x="1344.563168" xlink:href="#e" y="450.450708"/><use x="1523.400279" xlink:href="#e" y="416.908804"/><use x="1372.315407" xlink:href="#e" y="445.76562"/></g><g><g><use stroke="#000" stroke-width=".8" x="1103.660822" xlink:href="#f" y="550.8"/><g transform="matrix(.15 0 0 -.15 1092.604182 569.197656)"><use xlink:href="#g"/><use x="83.789062" xlink:href="#h"/></g></g><g><use stroke="#000" stroke-width=".8" x="1256.212147" xlink:href="#f" y="550.8"/><g transform="matrix(.15 0 0 -.15 1245.155506 569.197656)"><use xlink:href="#g"/><use x="83.789062" xlink:href="#i"/></g></g><g><use stroke="#000" stroke-width=".8" x="1408.763471" xlink:href="#f" y="550.8"/><use transform="matrix(.15 0 0 -.15 1403.991596 569.197656)" xlink:href="#j"/></g><g><use stroke="#000" stroke-width=".8" x="1561.314795" xlink:href="#f" y="550.8"/><use transform="matrix(.15 0 0 -.15 1556.54292 569.197656)" xlink:href="#i"/></g><g><use stroke="#000" stroke-width=".8" x="1713.866119" xlink:href="#f" y="550.8"/><use transform="matrix(.15 0 0 -.15 1709.094244 569.197656)" xlink:href="#h"/></g><use transform="matrix(.2 0 0 -.2 1366.383736 591.514062)" xlink:href="#l"/></g><g><g><use stroke="#000" stroke-width=".8" x="991.84794" xlink:href="#m" y="507.525318"/><g transform="matrix(.15 0 0 -.15 943.647159 513.224146)"><use xlink:href="#g"/><use x="83.789062" xlink:href="#h"/><use x="147.412109" xlink:href="#j"/><use x="211.035156" xlink:href="#j"/></g></g><g><use stroke="#000" stroke-width=".8" x="991.84794" xlink:href="#m" y="462.867387"/><g transform="matrix(.15 0 0 -.15 943.647159 468.566215)"><use xlink:href="#g"/><use x="83.789062" xlink:href="#i"/><use x="147.412109" xlink:href="#j"/><use x="211.035156" xlink:href="#j"/></g></g><g><use stroke="#000" stroke-width=".8" x="991.84794" xlink:href="#m" y="418.209456"/><use transform="matrix(.15 0 0 -.15 975.30419 423.908284)" xlink:href="#j"/></g><g><use stroke="#000" stroke-width=".8" x="991.84794" xlink:href="#m" y="373.551524"/><g transform="matrix(.15 0 0 -.15 956.21669 379.250353)"><use xlink:href="#i"/><use x="63.623047" xlink:href="#j"/><use x="127.246094" xlink:href="#j"/></g></g><g><use stroke="#000" stroke-width=".8" x="991.84794" xlink:href="#m" y="328.893593"/><g transform="matrix(.15 0 0 -.15 956.21669 334.592421)"><use xlink:href="#h"/><use x="63.623047" xlink:href="#j"/><use x="127.246094" xlink:href="#j"/></g></g><g transform="matrix(0 -.2 -.2 0 935.487784 437.137358)"><use xlink:href="#n"/><path d="m37.796875 64.3125-24.90625-38.921875h24.90625zm-2.59375 8.59375h12.40625v-47.515625h10.40625v-8.203125h-10.40625v-17.1875h-9.8125v17.1875h-32.90625v9.515625z" transform="translate(35.205078)"/></g></g><path clip-path="url(#d)" d="m1101.40182 493.022288 409.111562-102.316266 108.156678-27.049315-191.029671 47.775337 7.611124-1.903495-46.78112 11.699668 5.850357-1.463138-57.66539 14.421757 202.204527-50.570099-159.089271 39.78724 97.731866-24.442134 63.025681-15.762332-82.601745 20.658185 260.243836-65.085371-511.102139 127.823477 170.904317-42.74211-100.496748 25.133614 217.944933-54.506677-290.092595 72.55036 82.101737-20.533136 83.021205-20.763088 101.389934-25.356994-103.336353 25.843781 29.378367-7.347348-353.69663 88.457335 319.192017-79.827945-58.049397 14.517795 52.989068-13.252238 49.874742-12.473364-199.366284 49.860272-21.164286 5.293057 340.867092-85.248747-284.607347 71.178534 199.39625-49.867767 11.783897-2.94708 123.962989-31.002375-453.675673 113.461474-7.009629 1.753065 479.382503-119.890593-171.3286 42.848221-200.39039 50.116395 192.698019-48.19258-213.307873 53.346977 274.593478-68.674128-258.426113 64.63077 322.381823-80.625696-1.845514.461551-460.348284 115.130253 331.478694-82.900767-186.857705 46.731954 202.401443-50.619346 191.798223-47.967547-144.547708 36.150486 39.742715-9.939407 9.352588-2.339024-13.207352 3.303077-25.058959 6.26709-279.617835 69.930687 239.74079-59.957685-420.578947 105.184188 381.720929-95.466039-123.200075 30.811575 209.606167-52.421203-69.083292 17.277303 94.565053-23.650133-143.591066 35.911235-230.573499 57.665003 223.418759-55.875647 125.230927-31.319478-101.002689 25.260146 117.290588-29.333649-34.66558 8.669647-113.53495 28.394387 140.594153-35.161726 57.110006-14.282858-218.519879 54.650467 37.923801-9.484508 140.412586-35.116317-87.573215 21.901518 99.812479-24.962482-36.208206 9.055447 144.838439-36.223195-218.498732 54.645178-29.516382 7.381865-186.289123 46.589755 174.749438-43.703752-12.817616 3.205607 82.633513-20.66613-40.456197 10.117844-75.662671 18.922765 110.396173-27.609398 162.570429-40.657857-115.633167 28.919138-69.462387 17.372113 96.935015-24.242847-241.093865 60.296082 82.064923-20.523929-16.362336 4.092119 178.837111-44.726053-151.084872 37.78539" fill="none" stroke="#ffc0cb" stroke-dasharray="3.7 1.6"/></g><path d="m991.84794 550.8v-247.090909" fill="none" stroke="#000" stroke-linecap="square" stroke-linejoin="miter" stroke-width=".8"/><path d="m1752.757031 550.8v-247.090909" fill="none" stroke="#000" stroke-linecap="square" stroke-linejoin="miter" stroke-width=".8"/><path d="m991.84794 550.8h760.909091" fill="none" stroke="#000" stroke-linecap="square" stroke-linejoin="miter" stroke-width=".8"/><path d="m991.84794 303.709091h760.909091" fill="none" stroke="#000" stroke-linecap="square" stroke-linejoin="miter" stroke-width=".8"/></g></g></svg>