<svg height="602.873438pt" stroke-linejoin="round" viewBox="0 0 1755.180469 602.873438" width="1755.180469pt" xmlns="http://www.w3.org/2000/svg" xmlns:xlink="http://www.w3.org/1999/xlink"><defs stroke-linejoin="round"><clipPath id="a" stroke-linejoin="round"><path d="m73.980469 7.2h1674v543.6h-1674z"/></clipPath><path id="b" d="m0 3.535534c.937635 0 1.836992-.372526 2.5-1.035534s1.035534-1.562365 1.035534-2.5-.372526-1.836992-1.035534-2.5-1.562365-1.035534-2.5-1.035534-1.836992.372526-2.5 1.035534-1.035534 1.562365-1.035534 2.5.372526 1.836992 1.035534 2.5 1.562365 1.035534 2.5 1.035534z" stroke-linejoin="round"/><path id="c" d="m0 0v3.5" stroke="#000" stroke-linejoin="round" stroke-width=".8"/><path id="d" d="m10.59375 35.5h62.59375v-8.296875h-62.59375z" stroke-linejoin="round"/><path id="e" d="m12.40625 8.296875h16.109375v55.625l-17.53125-3.515625v8.984375l17.4375 3.515625h9.859375v-64.609375h16.109375v-8.296875h-41.984375z" stroke-linejoin="round"/><path id="f" d="m10.6875 12.40625h10.3125v-12.40625h-10.3125z" stroke-linejoin="round"/><path id="g" d="m31.78125 66.40625q-7.609375 0-11.453125-7.5-3.828125-7.484375-3.828125-22.53125 0-14.984375 3.828125-22.484375 3.84375-7.5 11.453125-7.5 7.671875 0 11.5 7.5 3.84375 7.5 3.84375 22.484375 0 15.046875-3.84375 22.53125-3.828125 7.5-11.5 7.5zm0 7.8125q12.265625 0 18.734375-9.703125 6.46875-9.6875 6.46875-28.140625 0-18.40625-6.46875-28.109375-6.46875-9.6875-18.734375-9.6875-12.25 0-18.71875 9.6875-6.46875 9.703125-6.46875 28.109375 0 18.453125 6.46875 28.140625 6.46875 9.703125 18.71875 9.703125z" stroke-linejoin="round"/><path id="h" d="m10.796875 72.90625h38.71875v-8.3125h-29.6875v-17.859375q2.140625.734375 4.28125 1.09375 2.15625.359375 4.3125.359375 12.203125 0 19.328125-6.6875 7.140625-6.6875 7.140625-18.109375 0-11.765625-7.328125-18.296875-7.328125-6.515625-20.65625-6.515625-4.59375 0-9.359375.78125-4.75.78125-9.828125 2.34375v9.921875q4.390625-2.390625 9.078125-3.5625 4.6875-1.171875 9.90625-1.171875 8.453125 0 13.375 4.4375 4.9375 4.4375 4.9375 12.0625 0 7.609375-4.9375 12.046875-4.921875 4.453125-13.375 4.453125-3.953125 0-7.890625-.875-3.921875-.875-8.015625-2.734375z" stroke-linejoin="round"/><path id="i" d="m37.109375 75.984375v-7.484375h-8.59375q-4.828125 0-6.71875-1.953125-1.875-1.953125-1.875-7.03125v-4.828125h14.796875v-6.984375h-14.796875v-47.703125h-9.03125v47.703125h-8.59375v6.984375h8.59375v3.8125q0 9.125 4.25 13.296875 4.25 4.1875 13.46875 4.1875z" stroke-linejoin="round"/><path id="j" d="m0 0h-3.5" stroke="#000" stroke-linejoin="round" stroke-width=".8"/></defs><g stroke-linejoin="round"><path d="m0 602.873438h1755.180469v-602.873438h-1755.180469z" fill="none"/><g><g stroke-linejoin="round"><path d="m73.980469 550.8h1674v-543.6h-1674z" fill="#fff"/><g><g clip-path="url(#a)"><use fill="#ffc0cb" stroke="#f00" stroke-linejoin="round" x="413.43102" xlink:href="#b" y="321.574557"/></g><g clip-path="url(#a)"><use fill="#90ee90" stroke="#008000" stroke-linejoin="round" x="519.023652" xlink:href="#b" y="349.649249"/></g><g clip-path="url(#a)"><use fill="#90ee90" stroke="#008000" stroke-linejoin="round" x="687.974626" xlink:href="#b" y="354.325944"/></g><g clip-path="url(#a)"><use fill="#90ee90" stroke="#008000" stroke-linejoin="round" x="690.209944" xlink:href="#b" y="188.63803"/></g><g clip-path="url(#a)"><use fill="#90ee90" stroke="#008000" stroke-linejoin="round" x="560.258095" xlink:href="#b" y="265.234089"/></g><g clip-path="url(#a)"><use fill="#ffc0cb" stroke="#f00" stroke-linejoin="round" x="732.861504" xlink:href="#b" y="435.616165"/></g><g clip-path="url(#a)"><use fill="#ffc0cb" stroke="#f00" stroke-linejoin="round" x="1471.154644" xlink:href="#b" y="280.560169"/></g><g clip-path="url(#a)"><use fill="#90ee90" stroke="#008000" stroke-linejoin="round" x="1067.738515" xlink:href="#b" y="229.215287"/></g><g clip-path="url(#a)"><use fill="#ffc0cb" stroke="#f00" stroke-linejoin="round" x="502.781453" xlink:href="#b" y="146.403799"/></g><g clip-path="url(#a)"><use fill="#ffc0cb" stroke="#f00" stroke-linejoin="round" x="597.479377" xlink:href="#b" y="98.260833"/></g><g clip-path="url(#a)"><use fill="#90ee90" stroke="#008000" stroke-linejoin="round" x="664.86065" xlink:href="#b" y="257.272196"/></g><g clip-path="url(#a)"><use fill="#ffc0cb" stroke="#f00" stroke-linejoin="round" x="247.612531" xlink:href="#b" y="264.41128"/></g><g clip-path="url(#a)"><use fill="#90ee90" stroke="#008000" stroke-linejoin="round" x="749.114797" xlink:href="#b" y="209.039244"/></g><g clip-path="url(#a)"><use fill="#90ee90" stroke="#008000" stroke-linejoin="round" x="894.581382" xlink:href="#b" y="469.454495"/></g><g clip-path="url(#a)"><use fill="#90ee90" stroke="#008000" stroke-linejoin="round" x="1029.802065" xlink:href="#b" y="387.00564"/></g><g clip-path="url(#a)"><use fill="#ffc0cb" stroke="#f00" stroke-linejoin="round" x="429.461485" xlink:href="#b" y="445.715931"/></g><g clip-path="url(#a)"><use fill="#ffc0cb" stroke="#f00" stroke-linejoin="round" x="1410.440834" xlink:href="#b" y="124.23964"/></g><g clip-path="url(#a)"><use fill="#90ee90" stroke="#008000" stroke-linejoin="round" x="684.944212" xlink:href="#b" y="194.41785"/></g><g clip-path="url(#a)"><use fill="#ffc0cb" stroke="#f00" stroke-linejoin="round" x="1207.578624" xlink:href="#b" y="440.023978"/></g><g clip-path="url(#a)"><use fill="#90ee90" stroke="#008000" stroke-linejoin="round" x="1054.963615" xlink:href="#b" y="368.017767"/></g><g clip-path="url(#a)"><use fill="#90ee90" stroke="#008000" stroke-linejoin="round" x="891.095627" xlink:href="#b" y="435.185288"/></g><g clip-path="url(#a)"><use fill="#ffc0cb" stroke="#f00" stroke-linejoin="round" x="225.451217" xlink:href="#b" y="345.316147"/></g><g clip-path="url(#a)"><use fill="#ffc0cb" stroke="#f00" stroke-linejoin="round" x="1225.947127" xlink:href="#b" y="92.591712"/></g><g clip-path="url(#a)"><use fill="#ffc0cb" stroke="#f00" stroke-linejoin="round" x="1035.049662" xlink:href="#b" y="89.277056"/></g><g clip-path="url(#a)"><use fill="#90ee90" stroke="#008000" stroke-linejoin="round" x="839.482815" xlink:href="#b" y="159.172913"/></g><g clip-path="url(#a)"><use fill="#ffc0cb" stroke="#f00" stroke-linejoin="round" x="1447.980838" xlink:href="#b" y="193.530809"/></g><g clip-path="url(#a)"><use fill="#90ee90" stroke="#008000" stroke-linejoin="round" x="1239.917726" xlink:href="#b" y="268.764763"/></g><g clip-path="url(#a)"><use fill="#ffc0cb" stroke="#f00" stroke-linejoin="round" x="1338.079025" xlink:href="#b" y="141.473114"/></g><g clip-path="url(#a)"><use fill="#90ee90" stroke="#008000" stroke-linejoin="round" x="591.031264" xlink:href="#b" y="378.225287"/></g><g clip-path="url(#a)"><use fill="#90ee90" stroke="#008000" stroke-linejoin="round" x="1227.380406" xlink:href="#b" y="298.286467"/></g><g clip-path="url(#a)"><use fill="#90ee90" stroke="#008000" stroke-linejoin="round" x="1284.447243" xlink:href="#b" y="372.552041"/></g><g clip-path="url(#a)"><use fill="#ffc0cb" stroke="#f00" stroke-linejoin="round" x="377.486019" xlink:href="#b" y="210.929401"/></g><g clip-path="url(#a)"><use fill="#ffc0cb" stroke="#f00" stroke-linejoin="round" x="1433.794085" xlink:href="#b" y="99.256231"/></g><g clip-path="url(#a)"><use fill="#90ee90" stroke="#008000" stroke-linejoin="round" x="1158.520351" xlink:href="#b" y="142.945053"/></g><g clip-path="url(#a)"><use fill="#ffc0cb" stroke="#f00" stroke-linejoin="round" x="394.085224" xlink:href="#b" y="366.431442"/></g><g clip-path="url(#a)"><use fill="#90ee90" stroke="#008000" stroke-linejoin="round" x="681.428474" xlink:href="#b" y="305.06686"/></g><g clip-path="url(#a)"><use fill="#ffc0cb" stroke="#f00" stroke-linejoin="round" x="351.504439" xlink:href="#b" y="120.241269"/></g><g clip-path="url(#a)"><use fill="#90ee90" stroke="#008000" stroke-linejoin="round" x="1013.117541" xlink:href="#b" y="230.021698"/></g><g clip-path="url(#a)"><use fill="#ffc0cb" stroke="#f00" stroke-linejoin="round" x="1501.615416" xlink:href="#b" y="354.998868"/></g><g clip-path="url(#a)"><use fill="#ffc0cb" stroke="#f00" stroke-linejoin="round" x="718.656262" xlink:href="#b" y="73.165189"/></g><g clip-path="url(#a)"><use fill="#90ee90" stroke="#008000" stroke-linejoin="round" x="643.770243" xlink:href="#b" y="233.459091"/></g><g clip-path="url(#a)"><use fill="#90ee90" stroke="#008000" stroke-linejoin="round" x="917.18603" xlink:href="#b" y="421.019251"/></g><g clip-path="url(#a)"><use fill="#90ee90" stroke="#008000" stroke-linejoin="round" x="1351.844264" xlink:href="#b" y="338.409347"/></g><g clip-path="url(#a)"><use fill="#90ee90" stroke="#008000" stroke-linejoin="round" x="1201.661498" xlink:href="#b" y="283.719178"/></g><g clip-path="url(#a)"><use fill="#ffc0cb" stroke="#f00" stroke-linejoin="round" x="1485.389727" xlink:href="#b" y="387.288017"/></g><g clip-path="url(#a)"><use fill="#ffc0cb" stroke="#f00" stroke-linejoin="round" x="607.270312" xlink:href="#b" y="504.906648"/></g><g clip-path="url(#a)"><use fill="#90ee90" stroke="#008000" stroke-linejoin="round" x="1414.574285" xlink:href="#b" y="263.616017"/></g><g clip-path="url(#a)"><use fill="#90ee90" stroke="#008000" stroke-linejoin="round" x="992.261751" xlink:href="#b" y="448.598134"/></g><g clip-path="url(#a)"><use fill="#90ee90" stroke="#008000" stroke-linejoin="round" x="646.448506" xlink:href="#b" y="359.146036"/></g><g clip-path="url(#a)"><use fill="#ffc0cb" stroke="#f00" stroke-linejoin="round" x="1515.379593" xlink:href="#b" y="283.921408"/></g><g clip-path="url(#a)"><use fill="#ffc0cb" stroke="#f00" stroke-linejoin="round" x="847.128674" xlink:href="#b" y="71.210552"/></g><g clip-path="url(#a)"><use fill="#ffc0cb" stroke="#f00" stroke-linejoin="round" x="535.711655" xlink:href="#b" y="408.692513"/></g><g clip-path="url(#a)"><use fill="#90ee90" stroke="#008000" stroke-linejoin="round" x="1177.205443" xlink:href="#b" y="368.108866"/></g><g clip-path="url(#a)"><use fill="#ffc0cb" stroke="#f00" stroke-linejoin="round" x="993.461734" xlink:href="#b" y="492.459205"/></g><g clip-path="url(#a)"><use fill="#ffc0cb" stroke="#f00" stroke-linejoin="round" x="150.071378" xlink:href="#b" y="235.010854"/></g><g clip-path="url(#a)"><use fill="#ffc0cb" stroke="#f00" stroke-linejoin="round" x="836.865055" xlink:href="#b" y="36.346442"/></g><g clip-path="url(#a)"><use fill="#90ee90" stroke="#008000" stroke-linejoin="round" x="1104.814442" xlink:href="#b" y="200.477617"/></g><g clip-path="url(#a)"><use fill="#ffc0cb" stroke="#f00" stroke-linejoin="round" x="454.601097" xlink:href="#b" y="462.666633"/></g><g clip-path="url(#a)"><use fill="#ffc0cb" stroke="#f00" stroke-linejoin="round" x="798.401901" xlink:href="#b" y="508.933273"/></g><g clip-path="url(#a)"><use fill="#ffc0cb" stroke="#f00" stroke-linejoin="round" x="1261.441379" xlink:href="#b" y="427.667628"/></g><g clip-path="url(#a)"><use fill="#ffc0cb" stroke="#f00" stroke-linejoin="round" x="1219.936729" xlink:href="#b" y="31.909091"/></g><g clip-path="url(#a)"><use fill="#ffc0cb" stroke="#f00" stroke-linejoin="round" x="1526.49162" xlink:href="#b" y="205.700055"/></g><g clip-path="url(#a)"><use fill="#90ee90" stroke="#008000" stroke-linejoin="round" x="1187.17334" xlink:href="#b" y="379.385326"/></g><g clip-path="url(#a)"><use fill="#90ee90" stroke="#008000" stroke-linejoin="round" x="1298.628234" xlink:href="#b" y="377.314975"/></g><g clip-path="url(#a)"><use fill="#90ee90" stroke="#008000" stroke-linejoin="round" x="1176.674135" xlink:href="#b" y="180.020646"/></g><g clip-path="url(#a)"><use fill="#90ee90" stroke="#008000" stroke-linejoin="round" x="696.26018" xlink:href="#b" y="232.595565"/></g><g clip-path="url(#a)"><use fill="#ffc0cb" stroke="#f00" stroke-linejoin="round" x="1494.076243" xlink:href="#b" y="463.330554"/></g><g clip-path="url(#a)"><use fill="#ffc0cb" stroke="#f00" stroke-linejoin="round" x="1671.88956" xlink:href="#b" y="274.137644"/></g><g clip-path="url(#a)"><use fill="#90ee90" stroke="#008000" stroke-linejoin="round" x="745.245372" xlink:href="#b" y="181.718418"/></g><g clip-path="url(#a)"><use fill="#ffc0cb" stroke="#f00" stroke-linejoin="round" x="873.773224" xlink:href="#b" y="423.981669"/></g><g clip-path="url(#a)"><use fill="#ffc0cb" stroke="#f00" stroke-linejoin="round" x="687.678626" xlink:href="#b" y="88.52948"/></g><g clip-path="url(#a)"><use fill="#90ee90" stroke="#008000" stroke-linejoin="round" x="1185.53759" xlink:href="#b" y="387.220066"/></g><g clip-path="url(#a)"><use fill="#90ee90" stroke="#008000" stroke-linejoin="round" x="1076.464758" xlink:href="#b" y="148.578285"/></g><g clip-path="url(#a)"><use fill="#ffc0cb" stroke="#f00" stroke-linejoin="round" x="615.996407" xlink:href="#b" y="478.150353"/></g><g clip-path="url(#a)"><use fill="#ffc0cb" stroke="#f00" stroke-linejoin="round" x="559.963486" xlink:href="#b" y="116.242516"/></g><g clip-path="url(#a)"><use fill="#90ee90" stroke="#008000" stroke-linejoin="round" x="1088.628397" xlink:href="#b" y="179.2703"/></g><g clip-path="url(#a)"><use fill="#90ee90" stroke="#008000" stroke-linejoin="round" x="943.097421" xlink:href="#b" y="99.903064"/></g><g clip-path="url(#a)"><use fill="#ffc0cb" stroke="#f00" stroke-linejoin="round" x="1102.224637" xlink:href="#b" y="468.380644"/></g><g clip-path="url(#a)"><use fill="#ffc0cb" stroke="#f00" stroke-linejoin="round" x="1584.227439" xlink:href="#b" y="349.401937"/></g><g clip-path="url(#a)"><use fill="#ffc0cb" stroke="#f00" stroke-linejoin="round" x="469.219691" xlink:href="#b" y="153.120255"/></g><g clip-path="url(#a)"><use fill="#90ee90" stroke="#008000" stroke-linejoin="round" x="808.212653" xlink:href="#b" y="386.886933"/></g><g clip-path="url(#a)"><use fill="#90ee90" stroke="#008000" stroke-linejoin="round" x="835.108628" xlink:href="#b" y="164.218134"/></g><g clip-path="url(#a)"><use fill="#90ee90" stroke="#008000" stroke-linejoin="round" x="614.395809" xlink:href="#b" y="153.052691"/></g><g clip-path="url(#a)"><use fill="#90ee90" stroke="#008000" stroke-linejoin="round" x="573.459071" xlink:href="#b" y="281.169536"/></g><g clip-path="url(#a)"><use fill="#90ee90" stroke="#008000" stroke-linejoin="round" x="921.238353" xlink:href="#b" y="152.599474"/></g><g clip-path="url(#a)"><use fill="#ffc0cb" stroke="#f00" stroke-linejoin="round" x="1514.920995" xlink:href="#b" y="353.705567"/></g><g clip-path="url(#a)"><use fill="#ffc0cb" stroke="#f00" stroke-linejoin="round" x="1012.798714" xlink:href="#b" y="37.82696"/></g><g clip-path="url(#a)"><use fill="#ffc0cb" stroke="#f00" stroke-linejoin="round" x="1561.416145" xlink:href="#b" y="436.300585"/></g><g clip-path="url(#a)"><use fill="#ffc0cb" stroke="#f00" stroke-linejoin="round" x="1532.446068" xlink:href="#b" y="150.944723"/></g><g clip-path="url(#a)"><use fill="#90ee90" stroke="#008000" stroke-linejoin="round" x="1324.616308" xlink:href="#b" y="219.799349"/></g><g clip-path="url(#a)"><use fill="#ffc0cb" stroke="#f00" stroke-linejoin="round" x="477.670879" xlink:href="#b" y="312.686356"/></g><g clip-path="url(#a)"><use fill="#90ee90" stroke="#008000" stroke-linejoin="round" x="1056.110823" xlink:href="#b" y="422.047443"/></g><g clip-path="url(#a)"><use fill="#ffc0cb" stroke="#f00" stroke-linejoin="round" x="1103.705044" xlink:href="#b" y="526.090909"/></g><g clip-path="url(#a)"><use fill="#90ee90" stroke="#008000" stroke-linejoin="round" x="1087.264248" xlink:href="#b" y="375.972745"/></g><g clip-path="url(#a)"><use fill="#90ee90" stroke="#008000" stroke-linejoin="round" x="494.651408" xlink:href="#b" y="344.163302"/></g><g clip-path="url(#a)"><use fill="#ffc0cb" stroke="#f00" stroke-linejoin="round" x="404.718548" xlink:href="#b" y="424.445417"/></g><g clip-path="url(#a)"><use fill="#90ee90" stroke="#008000" stroke-linejoin="round" x="1379.211126" xlink:href="#b" y="223.025177"/></g><g clip-path="url(#a)"><use fill="#90ee90" stroke="#008000" stroke-linejoin="round" x="545.119665" xlink:href="#b" y="254.999077"/></g><g clip-path="url(#a)"><use fill="#ffc0cb" stroke="#f00" stroke-linejoin="round" x="1085.859817" xlink:href="#b" y="514.018356"/></g><g clip-path="url(#a)"><use fill="#90ee90" stroke="#008000" stroke-linejoin="round" x="686.96756" xlink:href="#b" y="391.58814"/></g></g><g><g><use stroke="#000" stroke-width=".8" x="303.577699" xlink:href="#c" y="550.8"/><g transform="matrix(.15 0 0 -.15 285.36559 569.197656)"><use xlink:href="#d"/><use x="83.789062" xlink:href="#e"/><use x="147.412109" xlink:href="#f"/><use x="179.199219" xlink:href="#g"/></g></g><g><use stroke="#000" stroke-width=".8" x="611.756184" xlink:href="#c" y="550.8"/><g transform="matrix(.15 0 0 -.15 593.544075 569.197656)"><use xlink:href="#d"/><use x="83.789062" xlink:href="#g"/><use x="147.412109" xlink:href="#f"/><use x="179.199219" xlink:href="#h"/></g></g><g><use stroke="#000" stroke-width=".8" x="919.93467" xlink:href="#c" y="550.8"/><g transform="matrix(.15 0 0 -.15 908.007326 569.197656)"><use xlink:href="#g"/><use x="63.623047" xlink:href="#f"/><use x="95.410156" xlink:href="#g"/></g></g><g><use stroke="#000" stroke-width=".8" x="1228.113155" xlink:href="#c" y="550.8"/><g transform="matrix(.15 0 0 -.15 1216.185811 569.197656)"><use xlink:href="#g"/><use x="63.623047" xlink:href="#f"/><use x="95.410156" xlink:href="#h"/></g></g><g><use stroke="#000" stroke-width=".8" x="1536.29164" xlink:href="#c" y="550.8"/><g transform="matrix(.15 0 0 -.15 1524.364296 569.197656)"><use xlink:href="#e"/><use x="63.623047" xlink:href="#f"/><use x="95.410156" xlink:href="#g"/></g></g><g transform="matrix(.2 0 0 -.2 901.097656 591.514063)"><use xlink:href="#i"/><use x="35.205078" xlink:href="#e"/></g></g><g><g><use stroke="#000" stroke-width=".8" x="73.980469" xlink:href="#j" y="492.601311"/><g transform="matrix(.15 0 0 -.15 30.55625 498.300139)"><use xlink:href="#d"/><use x="83.789062" xlink:href="#e"/><use x="147.412109" xlink:href="#f"/><use x="179.199219" xlink:href="#g"/></g></g><g><use stroke="#000" stroke-width=".8" x="73.980469" xlink:href="#j" y="387.033117"/><g transform="matrix(.15 0 0 -.15 30.55625 392.731945)"><use xlink:href="#d"/><use x="83.789062" xlink:href="#g"/><use x="147.412109" xlink:href="#f"/><use x="179.199219" xlink:href="#h"/></g></g><g><use stroke="#000" stroke-width=".8" x="73.980469" xlink:href="#j" y="281.464922"/><g transform="matrix(.15 0 0 -.15 43.125781 287.163751)"><use xlink:href="#g"/><use x="63.623047" xlink:href="#f"/><use x="95.410156" xlink:href="#g"/></g></g><g><use stroke="#000" stroke-width=".8" x="73.980469" xlink:href="#j" y="175.896728"/><g transform="matrix(.15 0 0 -.15 43.125781 181.595556)"><use xlink:href="#g"/><use x="63.623047" xlink:href="#f"/><use x="95.410156" xlink:href="#h"/></g></g><g><use stroke="#000" stroke-width=".8" x="73.980469" xlink:href="#j" y="70.328534"/><g transform="matrix(.15 0 0 -.15 43.125781 76.027362)"><use xlink:href="#e"/><use x="63.623047" xlink:href="#f"/><use x="95.410156" xlink:href="#g"/></g></g><g transform="matrix(0 -.2 -.2 0 22.396875 288.882812)"><use xlink:href="#i"/><path d="m19.1875 8.296875h34.421875v-8.296875h-46.28125v8.296875q5.609375 5.8125 15.296875 15.59375 9.703125 9.796875 12.1875 12.640625 4.734375 5.3125 6.609375 9 1.890625 3.6875 1.890625 7.25 0 5.8125-4.078125 9.46875-4.078125 3.671875-10.625 3.671875-4.640625 0-9.796875-1.609375-5.140625-1.609375-11-4.890625v9.96875q5.953125 2.390625 11.125 3.609375 5.1875 1.21875 9.484375 1.21875 11.328125 0 18.0625-5.671875 6.734375-5.65625 6.734375-15.125 0-4.5-1.6875-8.53125-1.671875-4.015625-6.125-9.484375-1.21875-1.421875-7.765625-8.1875-6.53125-6.765625-18.453125-18.921875z" transform="translate(35.205078)"/></g></g></g><path d="m73.980469 550.8v-543.6" fill="none" stroke="#000" stroke-linecap="square" stroke-linejoin="miter" stroke-width=".8"/><path d="m1747.980469 550.8v-543.6" fill="none" stroke="#000" stroke-linecap="square" stroke-linejoin="miter" stroke-width=".8"/><path d="m73.980469 550.8h1674" fill="none" stroke="#000" stroke-linecap="square" stroke-linejoin="miter" stroke-width=".8"/><path d="m73.980469 7.2h1674" fill="none" stroke="#000" stroke-linecap="square" stroke-linejoin="miter" stroke-width=".8"/></g></g></svg>