<?xml version="1.0" encoding="utf-8" standalone="no"?>
<!DOCTYPE svg PUBLIC "-//W3C//DTD SVG 1.1//EN"
  "http://www.w3.org/Graphics/SVG/1.1/DTD/svg11.dtd">
<!-- Created with matplotlib (https://matplotlib.org/) -->
<svg height="602.873438pt" version="1.1" viewBox="0 0 1750.413281 602.873438" width="1750.413281pt" xmlns="http://www.w3.org/2000/svg" xmlns:xlink="http://www.w3.org/1999/xlink">
 <metadata>
  <rdf:RDF xmlns:cc="http://creativecommons.org/ns#" xmlns:dc="http://purl.org/dc/elements/1.1/" xmlns:rdf="http://www.w3.org/1999/02/22-rdf-syntax-ns#">
   <cc:Work>
    <dc:type rdf:resource="http://purl.org/dc/dcmitype/StillImage"/>
    <dc:date>2020-11-05T18:28:20.719075</dc:date>
    <dc:format>image/svg+xml</dc:format>
    <dc:creator>
     <cc:Agent>
      <dc:title>Matplotlib v3.3.2, https://matplotlib.org/</dc:title>
     </cc:Agent>
    </dc:creator>
   </cc:Work>
  </rdf:RDF>
 </metadata>
 <defs>
  <style type="text/css">*{stroke-linecap:butt;stroke-linejoin:round;}</style>
 </defs>
 <g id="figure_1">
  <g id="patch_1">
   <path d="M 0 602.873438 
L 1750.413281 602.873438 
L 1750.413281 0 
L 0 0 
z
" style="fill:none;"/>
  </g>
  <g id="axes_1">
   <g id="patch_2">
    <path d="M 69.213281 550.8 
L 1743.213281 550.8 
L 1743.213281 7.2 
L 69.213281 7.2 
z
" style="fill:#ffffff;"/>
   </g>
   <g id="PathCollection_1">
    <defs>
     <path d="M 0 3.535534 
C 0.937635 3.535534 1.836992 3.163008 2.5 2.5 
C 3.163008 1.836992 3.535534 0.937635 3.535534 -0 
C 3.535534 -0.937635 3.163008 -1.836992 2.5 -2.5 
C 1.836992 -3.163008 0.937635 -3.535534 0 -3.535534 
C -0.937635 -3.535534 -1.836992 -3.163008 -2.5 -2.5 
C -3.163008 -1.836992 -3.535534 -0.937635 -3.535534 0 
C -3.535534 0.937635 -3.163008 1.836992 -2.5 2.5 
C -1.836992 3.163008 -0.937635 3.535534 0 3.535534 
z
" id="C0_0_bcd5ff4ec2"/>
    </defs>
    <g clip-path="url(#p702acb2eca)">
     <use style="fill:#ffc0cb;stroke:#ff0000;" x="574.619097" xlink:href="#C0_0_bcd5ff4ec2" y="196.709696"/>
    </g>
    <g clip-path="url(#p702acb2eca)">
     <use style="fill:#fffb96;stroke:#cac200;" x="1288.150884" xlink:href="#C0_0_bcd5ff4ec2" y="395.801153"/>
    </g>
    <g clip-path="url(#p702acb2eca)">
     <use style="fill:#ffc0cb;stroke:#ff0000;" x="378.929853" xlink:href="#C0_0_bcd5ff4ec2" y="114.924337"/>
    </g>
    <g clip-path="url(#p702acb2eca)">
     <use style="fill:#90ee90;stroke:#008000;" x="1667.122372" xlink:href="#C0_0_bcd5ff4ec2" y="526.090909"/>
    </g>
    <g clip-path="url(#p702acb2eca)">
     <use style="fill:#90ee90;stroke:#008000;" x="1091.027577" xlink:href="#C0_0_bcd5ff4ec2" y="287.156407"/>
    </g>
    <g clip-path="url(#p702acb2eca)">
     <use style="fill:#ffc0cb;stroke:#ff0000;" x="684.930227" xlink:href="#C0_0_bcd5ff4ec2" y="209.617892"/>
    </g>
    <g clip-path="url(#p702acb2eca)">
     <use style="fill:#fffb96;stroke:#cac200;" x="1196.052123" xlink:href="#C0_0_bcd5ff4ec2" y="354.99313"/>
    </g>
    <g clip-path="url(#p702acb2eca)">
     <use style="fill:#ffc0cb;stroke:#ff0000;" x="405.807666" xlink:href="#C0_0_bcd5ff4ec2" y="99.517341"/>
    </g>
    <g clip-path="url(#p702acb2eca)">
     <use style="fill:#fffb96;stroke:#cac200;" x="1327.677658" xlink:href="#C0_0_bcd5ff4ec2" y="398.098366"/>
    </g>
    <g clip-path="url(#p702acb2eca)">
     <use style="fill:#90ee90;stroke:#008000;" x="1140.331608" xlink:href="#C0_0_bcd5ff4ec2" y="281.981164"/>
    </g>
    <g clip-path="url(#p702acb2eca)">
     <use style="fill:#ffc0cb;stroke:#ff0000;" x="599.318988" xlink:href="#C0_0_bcd5ff4ec2" y="201.581875"/>
    </g>
    <g clip-path="url(#p702acb2eca)">
     <use style="fill:#ffc0cb;stroke:#ff0000;" x="313.039565" xlink:href="#C0_0_bcd5ff4ec2" y="79.15332"/>
    </g>
    <g clip-path="url(#p702acb2eca)">
     <use style="fill:#ffc0cb;stroke:#ff0000;" x="329.32614" xlink:href="#C0_0_bcd5ff4ec2" y="96.405791"/>
    </g>
    <g clip-path="url(#p702acb2eca)">
     <use style="fill:#90ee90;stroke:#008000;" x="1474.218077" xlink:href="#C0_0_bcd5ff4ec2" y="471.528263"/>
    </g>
    <g clip-path="url(#p702acb2eca)">
     <use style="fill:#90ee90;stroke:#008000;" x="1177.229734" xlink:href="#C0_0_bcd5ff4ec2" y="371.334564"/>
    </g>
    <g clip-path="url(#p702acb2eca)">
     <use style="fill:#fffb96;stroke:#cac200;" x="1100.756549" xlink:href="#C0_0_bcd5ff4ec2" y="308.795798"/>
    </g>
    <g clip-path="url(#p702acb2eca)">
     <use style="fill:#90ee90;stroke:#008000;" x="1146.28964" xlink:href="#C0_0_bcd5ff4ec2" y="334.284954"/>
    </g>
    <g clip-path="url(#p702acb2eca)">
     <use style="fill:#90ee90;stroke:#008000;" x="1170.228713" xlink:href="#C0_0_bcd5ff4ec2" y="318.026505"/>
    </g>
    <g clip-path="url(#p702acb2eca)">
     <use style="fill:#ffc0cb;stroke:#ff0000;" x="453.113341" xlink:href="#C0_0_bcd5ff4ec2" y="144.863067"/>
    </g>
    <g clip-path="url(#p702acb2eca)">
     <use style="fill:#ffc0cb;stroke:#ff0000;" x="626.245804" xlink:href="#C0_0_bcd5ff4ec2" y="216.460433"/>
    </g>
    <g clip-path="url(#p702acb2eca)">
     <use style="fill:#fffb96;stroke:#cac200;" x="1235.467946" xlink:href="#C0_0_bcd5ff4ec2" y="392.145064"/>
    </g>
    <g clip-path="url(#p702acb2eca)">
     <use style="fill:#90ee90;stroke:#008000;" x="974.136189" xlink:href="#C0_0_bcd5ff4ec2" y="247.634922"/>
    </g>
    <g clip-path="url(#p702acb2eca)">
     <use style="fill:#90ee90;stroke:#008000;" x="1285.000527" xlink:href="#C0_0_bcd5ff4ec2" y="385.355822"/>
    </g>
    <g clip-path="url(#p702acb2eca)">
     <use style="fill:#ffc0cb;stroke:#ff0000;" x="615.938669" xlink:href="#C0_0_bcd5ff4ec2" y="147.7787"/>
    </g>
    <g clip-path="url(#p702acb2eca)">
     <use style="fill:#90ee90;stroke:#008000;" x="1264.353723" xlink:href="#C0_0_bcd5ff4ec2" y="389.634794"/>
    </g>
    <g clip-path="url(#p702acb2eca)">
     <use style="fill:#fffb96;stroke:#cac200;" x="1089.074105" xlink:href="#C0_0_bcd5ff4ec2" y="317.139907"/>
    </g>
    <g clip-path="url(#p702acb2eca)">
     <use style="fill:#fffb96;stroke:#cac200;" x="1035.350576" xlink:href="#C0_0_bcd5ff4ec2" y="276.309002"/>
    </g>
    <g clip-path="url(#p702acb2eca)">
     <use style="fill:#fffb96;stroke:#cac200;" x="1069.258022" xlink:href="#C0_0_bcd5ff4ec2" y="334.944874"/>
    </g>
    <g clip-path="url(#p702acb2eca)">
     <use style="fill:#ffc0cb;stroke:#ff0000;" x="549.201687" xlink:href="#C0_0_bcd5ff4ec2" y="123.056806"/>
    </g>
    <g clip-path="url(#p702acb2eca)">
     <use style="fill:#ffc0cb;stroke:#ff0000;" x="514.712041" xlink:href="#C0_0_bcd5ff4ec2" y="164.953384"/>
    </g>
    <g clip-path="url(#p702acb2eca)">
     <use style="fill:#fffb96;stroke:#cac200;" x="1263.940935" xlink:href="#C0_0_bcd5ff4ec2" y="329.280703"/>
    </g>
    <g clip-path="url(#p702acb2eca)">
     <use style="fill:#fffb96;stroke:#cac200;" x="1315.801417" xlink:href="#C0_0_bcd5ff4ec2" y="397.428982"/>
    </g>
    <g clip-path="url(#p702acb2eca)">
     <use style="fill:#ffc0cb;stroke:#ff0000;" x="352.423105" xlink:href="#C0_0_bcd5ff4ec2" y="74.297153"/>
    </g>
    <g clip-path="url(#p702acb2eca)">
     <use style="fill:#fffb96;stroke:#cac200;" x="1357.51067" xlink:href="#C0_0_bcd5ff4ec2" y="431.986151"/>
    </g>
    <g clip-path="url(#p702acb2eca)">
     <use style="fill:#90ee90;stroke:#008000;" x="1382.190999" xlink:href="#C0_0_bcd5ff4ec2" y="414.860113"/>
    </g>
    <g clip-path="url(#p702acb2eca)">
     <use style="fill:#fffb96;stroke:#cac200;" x="1220.456322" xlink:href="#C0_0_bcd5ff4ec2" y="350.958648"/>
    </g>
    <g clip-path="url(#p702acb2eca)">
     <use style="fill:#fffb96;stroke:#cac200;" x="1225.434145" xlink:href="#C0_0_bcd5ff4ec2" y="354.681599"/>
    </g>
    <g clip-path="url(#p702acb2eca)">
     <use style="fill:#90ee90;stroke:#008000;" x="1263.558525" xlink:href="#C0_0_bcd5ff4ec2" y="386.371056"/>
    </g>
    <g clip-path="url(#p702acb2eca)">
     <use style="fill:#90ee90;stroke:#008000;" x="1248.939832" xlink:href="#C0_0_bcd5ff4ec2" y="369.305606"/>
    </g>
    <g clip-path="url(#p702acb2eca)">
     <use style="fill:#90ee90;stroke:#008000;" x="1336.529988" xlink:href="#C0_0_bcd5ff4ec2" y="368.649487"/>
    </g>
    <g clip-path="url(#p702acb2eca)">
     <use style="fill:#ffc0cb;stroke:#ff0000;" x="322.805199" xlink:href="#C0_0_bcd5ff4ec2" y="90.379175"/>
    </g>
    <g clip-path="url(#p702acb2eca)">
     <use style="fill:#90ee90;stroke:#008000;" x="1395.446631" xlink:href="#C0_0_bcd5ff4ec2" y="432.370961"/>
    </g>
    <g clip-path="url(#p702acb2eca)">
     <use style="fill:#ffc0cb;stroke:#ff0000;" x="240.620435" xlink:href="#C0_0_bcd5ff4ec2" y="31.909091"/>
    </g>
    <g clip-path="url(#p702acb2eca)">
     <use style="fill:#fffb96;stroke:#cac200;" x="1216.759858" xlink:href="#C0_0_bcd5ff4ec2" y="340.884628"/>
    </g>
    <g clip-path="url(#p702acb2eca)">
     <use style="fill:#fffb96;stroke:#cac200;" x="1291.371096" xlink:href="#C0_0_bcd5ff4ec2" y="371.637163"/>
    </g>
    <g clip-path="url(#p702acb2eca)">
     <use style="fill:#90ee90;stroke:#008000;" x="1410.497731" xlink:href="#C0_0_bcd5ff4ec2" y="434.732887"/>
    </g>
    <g clip-path="url(#p702acb2eca)">
     <use style="fill:#ffc0cb;stroke:#ff0000;" x="145.30419" xlink:href="#C0_0_bcd5ff4ec2" y="38.009036"/>
    </g>
    <g clip-path="url(#p702acb2eca)">
     <use style="fill:#fffb96;stroke:#cac200;" x="1233.56081" xlink:href="#C0_0_bcd5ff4ec2" y="351.413601"/>
    </g>
    <g clip-path="url(#p702acb2eca)">
     <use style="fill:#ffc0cb;stroke:#ff0000;" x="517.894523" xlink:href="#C0_0_bcd5ff4ec2" y="161.150424"/>
    </g>
    <g clip-path="url(#p702acb2eca)">
     <use style="fill:#90ee90;stroke:#008000;" x="1346.321724" xlink:href="#C0_0_bcd5ff4ec2" y="418.35571"/>
    </g>
   </g>
   <g id="matplotlib.axis_1">
    <g id="xtick_1">
     <g id="line2d_1">
      <defs>
       <path d="M 0 0 
L 0 3.5 
" id="m9da1c00bc2" style="stroke:#000000;stroke-width:0.8;"/>
      </defs>
      <g>
       <use style="stroke:#000000;stroke-width:0.8;" x="222.655188" xlink:href="#m9da1c00bc2" y="550.8"/>
      </g>
     </g>
     <g id="text_1">
      <!-- −2 -->
      <g transform="translate(211.598547 569.197656)scale(0.15 -0.15)">
       <defs>
        <path d="M 10.59375 35.5 
L 73.1875 35.5 
L 73.1875 27.203125 
L 10.59375 27.203125 
z
" id="DejaVuSans-8722"/>
        <path d="M 19.1875 8.296875 
L 53.609375 8.296875 
L 53.609375 0 
L 7.328125 0 
L 7.328125 8.296875 
Q 12.9375 14.109375 22.625 23.890625 
Q 32.328125 33.6875 34.8125 36.53125 
Q 39.546875 41.84375 41.421875 45.53125 
Q 43.3125 49.21875 43.3125 52.78125 
Q 43.3125 58.59375 39.234375 62.25 
Q 35.15625 65.921875 28.609375 65.921875 
Q 23.96875 65.921875 18.8125 64.3125 
Q 13.671875 62.703125 7.8125 59.421875 
L 7.8125 69.390625 
Q 13.765625 71.78125 18.9375 73 
Q 24.125 74.21875 28.421875 74.21875 
Q 39.75 74.21875 46.484375 68.546875 
Q 53.21875 62.890625 53.21875 53.421875 
Q 53.21875 48.921875 51.53125 44.890625 
Q 49.859375 40.875 45.40625 35.40625 
Q 44.1875 33.984375 37.640625 27.21875 
Q 31.109375 20.453125 19.1875 8.296875 
z
" id="DejaVuSans-50"/>
       </defs>
       <use xlink:href="#DejaVuSans-8722"/>
       <use x="83.789062" xlink:href="#DejaVuSans-50"/>
      </g>
     </g>
    </g>
    <g id="xtick_2">
     <g id="line2d_2">
      <g>
       <use style="stroke:#000000;stroke-width:0.8;" x="510.546725" xlink:href="#m9da1c00bc2" y="550.8"/>
      </g>
     </g>
     <g id="text_2">
      <!-- 0 -->
      <g transform="translate(505.77485 569.197656)scale(0.15 -0.15)">
       <defs>
        <path d="M 31.78125 66.40625 
Q 24.171875 66.40625 20.328125 58.90625 
Q 16.5 51.421875 16.5 36.375 
Q 16.5 21.390625 20.328125 13.890625 
Q 24.171875 6.390625 31.78125 6.390625 
Q 39.453125 6.390625 43.28125 13.890625 
Q 47.125 21.390625 47.125 36.375 
Q 47.125 51.421875 43.28125 58.90625 
Q 39.453125 66.40625 31.78125 66.40625 
z
M 31.78125 74.21875 
Q 44.046875 74.21875 50.515625 64.515625 
Q 56.984375 54.828125 56.984375 36.375 
Q 56.984375 17.96875 50.515625 8.265625 
Q 44.046875 -1.421875 31.78125 -1.421875 
Q 19.53125 -1.421875 13.0625 8.265625 
Q 6.59375 17.96875 6.59375 36.375 
Q 6.59375 54.828125 13.0625 64.515625 
Q 19.53125 74.21875 31.78125 74.21875 
z
" id="DejaVuSans-48"/>
       </defs>
       <use xlink:href="#DejaVuSans-48"/>
      </g>
     </g>
    </g>
    <g id="xtick_3">
     <g id="line2d_3">
      <g>
       <use style="stroke:#000000;stroke-width:0.8;" x="798.438262" xlink:href="#m9da1c00bc2" y="550.8"/>
      </g>
     </g>
     <g id="text_3">
      <!-- 2 -->
      <g transform="translate(793.666387 569.197656)scale(0.15 -0.15)">
       <use xlink:href="#DejaVuSans-50"/>
      </g>
     </g>
    </g>
    <g id="xtick_4">
     <g id="line2d_4">
      <g>
       <use style="stroke:#000000;stroke-width:0.8;" x="1086.329799" xlink:href="#m9da1c00bc2" y="550.8"/>
      </g>
     </g>
     <g id="text_4">
      <!-- 4 -->
      <g transform="translate(1081.557924 569.197656)scale(0.15 -0.15)">
       <defs>
        <path d="M 37.796875 64.3125 
L 12.890625 25.390625 
L 37.796875 25.390625 
z
M 35.203125 72.90625 
L 47.609375 72.90625 
L 47.609375 25.390625 
L 58.015625 25.390625 
L 58.015625 17.1875 
L 47.609375 17.1875 
L 47.609375 0 
L 37.796875 0 
L 37.796875 17.1875 
L 4.890625 17.1875 
L 4.890625 26.703125 
z
" id="DejaVuSans-52"/>
       </defs>
       <use xlink:href="#DejaVuSans-52"/>
      </g>
     </g>
    </g>
    <g id="xtick_5">
     <g id="line2d_5">
      <g>
       <use style="stroke:#000000;stroke-width:0.8;" x="1374.221337" xlink:href="#m9da1c00bc2" y="550.8"/>
      </g>
     </g>
     <g id="text_5">
      <!-- 6 -->
      <g transform="translate(1369.449462 569.197656)scale(0.15 -0.15)">
       <defs>
        <path d="M 33.015625 40.375 
Q 26.375 40.375 22.484375 35.828125 
Q 18.609375 31.296875 18.609375 23.390625 
Q 18.609375 15.53125 22.484375 10.953125 
Q 26.375 6.390625 33.015625 6.390625 
Q 39.65625 6.390625 43.53125 10.953125 
Q 47.40625 15.53125 47.40625 23.390625 
Q 47.40625 31.296875 43.53125 35.828125 
Q 39.65625 40.375 33.015625 40.375 
z
M 52.59375 71.296875 
L 52.59375 62.3125 
Q 48.875 64.0625 45.09375 64.984375 
Q 41.3125 65.921875 37.59375 65.921875 
Q 27.828125 65.921875 22.671875 59.328125 
Q 17.53125 52.734375 16.796875 39.40625 
Q 19.671875 43.65625 24.015625 45.921875 
Q 28.375 48.1875 33.59375 48.1875 
Q 44.578125 48.1875 50.953125 41.515625 
Q 57.328125 34.859375 57.328125 23.390625 
Q 57.328125 12.15625 50.6875 5.359375 
Q 44.046875 -1.421875 33.015625 -1.421875 
Q 20.359375 -1.421875 13.671875 8.265625 
Q 6.984375 17.96875 6.984375 36.375 
Q 6.984375 53.65625 15.1875 63.9375 
Q 23.390625 74.21875 37.203125 74.21875 
Q 40.921875 74.21875 44.703125 73.484375 
Q 48.484375 72.75 52.59375 71.296875 
z
" id="DejaVuSans-54"/>
       </defs>
       <use xlink:href="#DejaVuSans-54"/>
      </g>
     </g>
    </g>
    <g id="xtick_6">
     <g id="line2d_6">
      <g>
       <use style="stroke:#000000;stroke-width:0.8;" x="1662.112874" xlink:href="#m9da1c00bc2" y="550.8"/>
      </g>
     </g>
     <g id="text_6">
      <!-- 8 -->
      <g transform="translate(1657.340999 569.197656)scale(0.15 -0.15)">
       <defs>
        <path d="M 31.78125 34.625 
Q 24.75 34.625 20.71875 30.859375 
Q 16.703125 27.09375 16.703125 20.515625 
Q 16.703125 13.921875 20.71875 10.15625 
Q 24.75 6.390625 31.78125 6.390625 
Q 38.8125 6.390625 42.859375 10.171875 
Q 46.921875 13.96875 46.921875 20.515625 
Q 46.921875 27.09375 42.890625 30.859375 
Q 38.875 34.625 31.78125 34.625 
z
M 21.921875 38.8125 
Q 15.578125 40.375 12.03125 44.71875 
Q 8.5 49.078125 8.5 55.328125 
Q 8.5 64.0625 14.71875 69.140625 
Q 20.953125 74.21875 31.78125 74.21875 
Q 42.671875 74.21875 48.875 69.140625 
Q 55.078125 64.0625 55.078125 55.328125 
Q 55.078125 49.078125 51.53125 44.71875 
Q 48 40.375 41.703125 38.8125 
Q 48.828125 37.15625 52.796875 32.3125 
Q 56.78125 27.484375 56.78125 20.515625 
Q 56.78125 9.90625 50.3125 4.234375 
Q 43.84375 -1.421875 31.78125 -1.421875 
Q 19.734375 -1.421875 13.25 4.234375 
Q 6.78125 9.90625 6.78125 20.515625 
Q 6.78125 27.484375 10.78125 32.3125 
Q 14.796875 37.15625 21.921875 38.8125 
z
M 18.3125 54.390625 
Q 18.3125 48.734375 21.84375 45.5625 
Q 25.390625 42.390625 31.78125 42.390625 
Q 38.140625 42.390625 41.71875 45.5625 
Q 45.3125 48.734375 45.3125 54.390625 
Q 45.3125 60.0625 41.71875 63.234375 
Q 38.140625 66.40625 31.78125 66.40625 
Q 25.390625 66.40625 21.84375 63.234375 
Q 18.3125 60.0625 18.3125 54.390625 
z
" id="DejaVuSans-56"/>
       </defs>
       <use xlink:href="#DejaVuSans-56"/>
      </g>
     </g>
    </g>
    <g id="text_7">
     <!-- f1 -->
     <g transform="translate(896.330469 591.514063)scale(0.2 -0.2)">
      <defs>
       <path d="M 37.109375 75.984375 
L 37.109375 68.5 
L 28.515625 68.5 
Q 23.6875 68.5 21.796875 66.546875 
Q 19.921875 64.59375 19.921875 59.515625 
L 19.921875 54.6875 
L 34.71875 54.6875 
L 34.71875 47.703125 
L 19.921875 47.703125 
L 19.921875 0 
L 10.890625 0 
L 10.890625 47.703125 
L 2.296875 47.703125 
L 2.296875 54.6875 
L 10.890625 54.6875 
L 10.890625 58.5 
Q 10.890625 67.625 15.140625 71.796875 
Q 19.390625 75.984375 28.609375 75.984375 
z
" id="DejaVuSans-102"/>
       <path d="M 12.40625 8.296875 
L 28.515625 8.296875 
L 28.515625 63.921875 
L 10.984375 60.40625 
L 10.984375 69.390625 
L 28.421875 72.90625 
L 38.28125 72.90625 
L 38.28125 8.296875 
L 54.390625 8.296875 
L 54.390625 0 
L 12.40625 0 
z
" id="DejaVuSans-49"/>
      </defs>
      <use xlink:href="#DejaVuSans-102"/>
      <use x="35.205078" xlink:href="#DejaVuSans-49"/>
     </g>
    </g>
   </g>
   <g id="matplotlib.axis_2">
    <g id="ytick_1">
     <g id="line2d_7">
      <defs>
       <path d="M 0 0 
L -3.5 0 
" id="m13f5993cdb" style="stroke:#000000;stroke-width:0.8;"/>
      </defs>
      <g>
       <use style="stroke:#000000;stroke-width:0.8;" x="69.213281" xlink:href="#m13f5993cdb" y="497.510601"/>
      </g>
     </g>
     <g id="text_8">
      <!-- −10 -->
      <g transform="translate(30.55625 503.209429)scale(0.15 -0.15)">
       <use xlink:href="#DejaVuSans-8722"/>
       <use x="83.789062" xlink:href="#DejaVuSans-49"/>
       <use x="147.412109" xlink:href="#DejaVuSans-48"/>
      </g>
     </g>
    </g>
    <g id="ytick_2">
     <g id="line2d_8">
      <g>
       <use style="stroke:#000000;stroke-width:0.8;" x="69.213281" xlink:href="#m13f5993cdb" y="420.059293"/>
      </g>
     </g>
     <g id="text_9">
      <!-- −8 -->
      <g transform="translate(40.1 425.758121)scale(0.15 -0.15)">
       <use xlink:href="#DejaVuSans-8722"/>
       <use x="83.789062" xlink:href="#DejaVuSans-56"/>
      </g>
     </g>
    </g>
    <g id="ytick_3">
     <g id="line2d_9">
      <g>
       <use style="stroke:#000000;stroke-width:0.8;" x="69.213281" xlink:href="#m13f5993cdb" y="342.607986"/>
      </g>
     </g>
     <g id="text_10">
      <!-- −6 -->
      <g transform="translate(40.1 348.306814)scale(0.15 -0.15)">
       <use xlink:href="#DejaVuSans-8722"/>
       <use x="83.789062" xlink:href="#DejaVuSans-54"/>
      </g>
     </g>
    </g>
    <g id="ytick_4">
     <g id="line2d_10">
      <g>
       <use style="stroke:#000000;stroke-width:0.8;" x="69.213281" xlink:href="#m13f5993cdb" y="265.156679"/>
      </g>
     </g>
     <g id="text_11">
      <!-- −4 -->
      <g transform="translate(40.1 270.855507)scale(0.15 -0.15)">
       <use xlink:href="#DejaVuSans-8722"/>
       <use x="83.789062" xlink:href="#DejaVuSans-52"/>
      </g>
     </g>
    </g>
    <g id="ytick_5">
     <g id="line2d_11">
      <g>
       <use style="stroke:#000000;stroke-width:0.8;" x="69.213281" xlink:href="#m13f5993cdb" y="187.705371"/>
      </g>
     </g>
     <g id="text_12">
      <!-- −2 -->
      <g transform="translate(40.1 193.4042)scale(0.15 -0.15)">
       <use xlink:href="#DejaVuSans-8722"/>
       <use x="83.789062" xlink:href="#DejaVuSans-50"/>
      </g>
     </g>
    </g>
    <g id="ytick_6">
     <g id="line2d_12">
      <g>
       <use style="stroke:#000000;stroke-width:0.8;" x="69.213281" xlink:href="#m13f5993cdb" y="110.254064"/>
      </g>
     </g>
     <g id="text_13">
      <!-- 0 -->
      <g transform="translate(52.669531 115.952892)scale(0.15 -0.15)">
       <use xlink:href="#DejaVuSans-48"/>
      </g>
     </g>
    </g>
    <g id="ytick_7">
     <g id="line2d_13">
      <g>
       <use style="stroke:#000000;stroke-width:0.8;" x="69.213281" xlink:href="#m13f5993cdb" y="32.802757"/>
      </g>
     </g>
     <g id="text_14">
      <!-- 2 -->
      <g transform="translate(52.669531 38.501585)scale(0.15 -0.15)">
       <use xlink:href="#DejaVuSans-50"/>
      </g>
     </g>
    </g>
    <g id="text_15">
     <!-- f2 -->
     <g transform="translate(22.396875 288.882812)rotate(-90)scale(0.2 -0.2)">
      <use xlink:href="#DejaVuSans-102"/>
      <use x="35.205078" xlink:href="#DejaVuSans-50"/>
     </g>
    </g>
   </g>
   <g id="patch_3">
    <path d="M 69.213281 550.8 
L 69.213281 7.2 
" style="fill:none;stroke:#000000;stroke-linecap:square;stroke-linejoin:miter;stroke-width:0.8;"/>
   </g>
   <g id="patch_4">
    <path d="M 1743.213281 550.8 
L 1743.213281 7.2 
" style="fill:none;stroke:#000000;stroke-linecap:square;stroke-linejoin:miter;stroke-width:0.8;"/>
   </g>
   <g id="patch_5">
    <path d="M 69.213281 550.8 
L 1743.213281 550.8 
" style="fill:none;stroke:#000000;stroke-linecap:square;stroke-linejoin:miter;stroke-width:0.8;"/>
   </g>
   <g id="patch_6">
    <path d="M 69.213281 7.2 
L 1743.213281 7.2 
" style="fill:none;stroke:#000000;stroke-linecap:square;stroke-linejoin:miter;stroke-width:0.8;"/>
   </g>
  </g>
 </g>
 <defs>
  <clipPath id="p702acb2eca">
   <rect height="543.6" width="1674" x="69.213281" y="7.2"/>
  </clipPath>
 </defs>
</svg>
